<svg width="612" height="119" viewBox="0 0 612 119" fill="none" xmlns="http://www.w3.org/2000/svg">
<rect width="612" height="119" fill="#12274B"/>
<path d="M222.52 27.68C221.4 27.0667 220.253 26.56 219.08 26.16C217.933 25.76 216.853 25.56 215.84 25.56C214.587 25.56 213.6 25.8133 212.88 26.32C212.16 26.8267 211.8 27.5867 211.8 28.6C211.8 29.2933 212.067 29.92 212.6 30.48C213.16 31.0133 213.867 31.4933 214.72 31.92C215.6 32.3467 216.507 32.7333 217.44 33.08C218.293 33.4 219.133 33.7867 219.96 34.24C220.813 34.6667 221.573 35.2133 222.24 35.88C222.907 36.52 223.44 37.3333 223.84 38.32C224.24 39.28 224.44 40.4667 224.44 41.88C224.44 43.3733 224.053 44.76 223.28 46.04C222.507 47.32 221.373 48.36 219.88 49.16C218.387 49.9333 216.547 50.32 214.36 50.32C213.24 50.32 212.093 50.2133 210.92 50C209.773 49.76 208.64 49.4133 207.52 48.96C206.4 48.48 205.32 47.88 204.28 47.16L206.84 42.64C207.533 43.1467 208.28 43.6 209.08 44C209.907 44.3733 210.733 44.6667 211.56 44.88C212.387 45.0933 213.147 45.2 213.84 45.2C214.533 45.2 215.227 45.1067 215.92 44.92C216.64 44.7067 217.227 44.36 217.68 43.88C218.16 43.4 218.4 42.7333 218.4 41.88C218.4 41.2933 218.2 40.76 217.8 40.28C217.427 39.8 216.907 39.36 216.24 38.96C215.6 38.56 214.893 38.2133 214.12 37.92C213.213 37.5733 212.28 37.1733 211.32 36.72C210.36 36.2667 209.453 35.72 208.6 35.08C207.773 34.4133 207.093 33.6 206.56 32.64C206.053 31.6533 205.8 30.4533 205.8 29.04C205.8 27.3333 206.173 25.8533 206.92 24.6C207.693 23.3467 208.773 22.36 210.16 21.64C211.547 20.8933 213.147 20.48 214.96 20.4C217.333 20.4 219.253 20.68 220.72 21.24C222.213 21.8 223.547 22.4667 224.72 23.24L222.52 27.68ZM253.32 39.12C253.32 40.0533 253.6 40.9467 254.16 41.8C254.72 42.6533 255.454 43.3467 256.36 43.88C257.294 44.4133 258.307 44.68 259.4 44.68C260.6 44.68 261.667 44.4133 262.6 43.88C263.534 43.3467 264.267 42.6533 264.8 41.8C265.36 40.9467 265.64 40.0533 265.64 39.12V20.56H271.36V39.24C271.36 41.4 270.827 43.32 269.76 45C268.694 46.6533 267.254 47.96 265.44 48.92C263.627 49.8533 261.614 50.32 259.4 50.32C257.214 50.32 255.214 49.8533 253.4 48.92C251.614 47.96 250.187 46.6533 249.12 45C248.054 43.32 247.52 41.4 247.52 39.24V20.56H253.32V39.12ZM305.275 20.56C307.701 20.56 309.755 20.9733 311.435 21.8C313.115 22.6 314.395 23.7467 315.275 25.24C316.155 26.7067 316.595 28.4533 316.595 30.48C316.595 31.68 316.408 32.8933 316.035 34.12C315.688 35.32 315.115 36.4133 314.315 37.4C313.541 38.3867 312.488 39.1867 311.155 39.8C309.848 40.3867 308.235 40.68 306.315 40.68H302.155V50H296.355V20.56H305.275ZM306.275 35.04C307.155 35.04 307.888 34.8933 308.475 34.6C309.061 34.28 309.515 33.8933 309.835 33.44C310.181 32.96 310.421 32.4667 310.555 31.96C310.715 31.4533 310.795 31.0133 310.795 30.64C310.795 30.3467 310.741 29.96 310.635 29.48C310.555 28.9733 310.368 28.4667 310.075 27.96C309.781 27.4533 309.328 27.0267 308.715 26.68C308.128 26.3333 307.328 26.16 306.315 26.16H302.155V35.04H306.275ZM339.784 20.56H359.864V26.16H345.584V32.44H358.224V38.04H345.584V44.4H360.424V50H339.784V20.56ZM393.345 20.56C395.185 20.56 396.825 20.8 398.265 21.28C399.705 21.7333 400.905 22.4 401.865 23.28C402.852 24.1333 403.598 25.1733 404.105 26.4C404.612 27.6 404.865 28.96 404.865 30.48C404.865 31.68 404.678 32.88 404.305 34.08C403.958 35.28 403.372 36.3733 402.545 37.36C401.745 38.3467 400.678 39.1467 399.345 39.76C398.012 40.3467 396.358 40.64 394.385 40.64H390.225V50H384.425V20.56H393.345ZM394.345 35.04C395.225 35.04 395.958 34.8933 396.545 34.6C397.132 34.3067 397.585 33.9333 397.905 33.48C398.252 33.0267 398.492 32.56 398.625 32.08C398.785 31.5733 398.865 31.1067 398.865 30.68C398.865 30.36 398.812 29.96 398.705 29.48C398.625 28.9733 398.438 28.4667 398.145 27.96C397.852 27.4533 397.398 27.0267 396.785 26.68C396.198 26.3333 395.398 26.16 394.385 26.16H390.225V35.04H394.345ZM399.785 38.64L407.065 50H400.305L392.865 38.8L399.785 38.64Z" fill="white"/>
<path d="M218.53 92L227.53 69.77H227.65L236.65 92H235L227.17 72.11L228.19 71.54L220 92H218.53ZM222.88 83.57H232.33L232.75 84.95H222.52L222.88 83.57ZM246.282 70.7C248.342 70.7 249.932 71.13 251.052 71.99C252.192 72.83 252.762 74.2 252.762 76.1C252.762 77.04 252.582 77.9 252.222 78.68C251.862 79.46 251.322 80.1 250.602 80.6C249.902 81.1 249.022 81.42 247.962 81.56L247.812 80.84C248.912 80.92 249.912 81.2 250.812 81.68C251.732 82.14 252.462 82.77 253.002 83.57C253.562 84.35 253.842 85.27 253.842 86.33C253.842 87.29 253.652 88.13 253.272 88.85C252.912 89.55 252.412 90.14 251.772 90.62C251.152 91.08 250.442 91.43 249.642 91.67C248.842 91.89 248.002 92 247.122 92H241.572V70.7H246.282ZM246.972 80.66C248.492 80.66 249.582 80.25 250.242 79.43C250.922 78.61 251.262 77.59 251.262 76.37C251.262 74.85 250.812 73.76 249.912 73.1C249.032 72.44 247.842 72.11 246.342 72.11H243.042V80.66H246.972ZM247.062 90.65C248.022 90.65 248.902 90.5 249.702 90.2C250.502 89.88 251.142 89.4 251.622 88.76C252.102 88.12 252.342 87.33 252.342 86.39C252.342 85.35 252.072 84.52 251.532 83.9C250.992 83.26 250.312 82.8 249.492 82.52C248.672 82.22 247.832 82.07 246.972 82.07H243.042V90.65H247.062ZM257.202 92L266.202 69.77H266.322L275.322 92H273.672L265.842 72.11L266.862 71.54L258.672 92H257.202ZM261.552 83.57H271.002L271.422 84.95H261.192L261.552 83.57ZM285.104 70.7C285.904 70.7 286.694 70.82 287.474 71.06C288.274 71.28 288.994 71.64 289.634 72.14C290.294 72.62 290.824 73.24 291.224 74C291.624 74.76 291.824 75.67 291.824 76.73C291.824 77.53 291.704 78.31 291.464 79.07C291.224 79.81 290.834 80.48 290.294 81.08C289.754 81.68 289.054 82.16 288.194 82.52C287.334 82.88 286.274 83.06 285.014 83.06H281.714V92H280.244V70.7H285.104ZM284.924 81.65C285.984 81.65 286.864 81.5 287.564 81.2C288.264 80.9 288.814 80.51 289.214 80.03C289.614 79.55 289.894 79.03 290.054 78.47C290.234 77.89 290.324 77.33 290.324 76.79C290.324 76.15 290.204 75.55 289.964 74.99C289.744 74.43 289.414 73.94 288.974 73.52C288.534 73.08 288.004 72.74 287.384 72.5C286.764 72.24 286.074 72.11 285.314 72.11H281.714V81.65H284.924ZM287.984 82.31L293.894 92H292.184L286.244 82.34L287.984 82.31ZM304.088 70.7C304.888 70.7 305.678 70.82 306.458 71.06C307.258 71.28 307.978 71.64 308.618 72.14C309.278 72.62 309.808 73.24 310.208 74C310.608 74.76 310.808 75.67 310.808 76.73C310.808 77.53 310.688 78.31 310.448 79.07C310.208 79.81 309.818 80.48 309.278 81.08C308.738 81.68 308.038 82.16 307.178 82.52C306.318 82.88 305.258 83.06 303.998 83.06H300.698V92H299.228V70.7H304.088ZM303.908 81.65C304.968 81.65 305.848 81.5 306.548 81.2C307.248 80.9 307.798 80.51 308.198 80.03C308.598 79.55 308.878 79.03 309.038 78.47C309.218 77.89 309.308 77.33 309.308 76.79C309.308 76.15 309.188 75.55 308.948 74.99C308.728 74.43 308.398 73.94 307.958 73.52C307.518 73.08 306.988 72.74 306.368 72.5C305.748 72.24 305.058 72.11 304.298 72.11H300.698V81.65H303.908ZM306.968 82.31L312.878 92H311.168L305.228 82.34L306.968 82.31ZM316.657 81.38C316.657 79.88 316.937 78.48 317.497 77.18C318.057 75.86 318.837 74.7 319.837 73.7C320.837 72.68 321.987 71.89 323.287 71.33C324.607 70.75 326.017 70.46 327.517 70.46C329.017 70.46 330.427 70.75 331.747 71.33C333.067 71.89 334.227 72.68 335.227 73.7C336.227 74.7 337.007 75.86 337.567 77.18C338.147 78.48 338.437 79.88 338.437 81.38C338.437 82.88 338.147 84.29 337.567 85.61C337.007 86.91 336.227 88.06 335.227 89.06C334.227 90.06 333.067 90.84 331.747 91.4C330.427 91.96 329.017 92.24 327.517 92.24C326.017 92.24 324.607 91.97 323.287 91.43C321.987 90.89 320.837 90.13 319.837 89.15C318.837 88.17 318.057 87.02 317.497 85.7C316.937 84.38 316.657 82.94 316.657 81.38ZM318.157 81.41C318.157 82.71 318.397 83.93 318.877 85.07C319.357 86.21 320.027 87.21 320.887 88.07C321.747 88.93 322.737 89.61 323.857 90.11C324.997 90.59 326.207 90.83 327.487 90.83C328.807 90.83 330.037 90.59 331.177 90.11C332.317 89.61 333.317 88.93 334.177 88.07C335.037 87.21 335.707 86.21 336.187 85.07C336.687 83.93 336.937 82.7 336.937 81.38C336.937 80.08 336.687 78.86 336.187 77.72C335.707 76.56 335.037 75.55 334.177 74.69C333.317 73.81 332.317 73.12 331.177 72.62C330.037 72.12 328.817 71.87 327.517 71.87C326.197 71.87 324.967 72.13 323.827 72.65C322.687 73.15 321.687 73.84 320.827 74.72C319.987 75.6 319.327 76.62 318.847 77.78C318.387 78.92 318.157 80.13 318.157 81.41ZM341.082 70.7H355.032V72.11H348.762V92H347.292V72.11H341.082V70.7ZM360.107 70.7H373.247V72.11H361.577V80.57H372.077V81.98H361.577V90.59H373.667V92H360.107V70.7ZM389.917 73.1C389.297 72.8 388.537 72.52 387.637 72.26C386.737 72 385.837 71.87 384.937 71.87C383.537 71.87 382.417 72.22 381.577 72.92C380.737 73.62 380.317 74.5 380.317 75.56C380.317 76.36 380.557 77.03 381.037 77.57C381.517 78.09 382.147 78.54 382.927 78.92C383.707 79.28 384.537 79.63 385.417 79.97C386.117 80.23 386.807 80.52 387.487 80.84C388.187 81.16 388.817 81.55 389.377 82.01C389.937 82.47 390.377 83.04 390.697 83.72C391.037 84.4 391.207 85.24 391.207 86.24C391.207 87.42 390.927 88.47 390.367 89.39C389.807 90.29 389.027 90.99 388.027 91.49C387.027 91.99 385.867 92.24 384.547 92.24C383.487 92.24 382.517 92.11 381.637 91.85C380.777 91.59 380.017 91.29 379.357 90.95C378.717 90.59 378.207 90.29 377.827 90.05L378.517 88.85C378.957 89.17 379.487 89.49 380.107 89.81C380.747 90.13 381.437 90.4 382.177 90.62C382.917 90.84 383.657 90.95 384.397 90.95C385.257 90.95 386.087 90.78 386.887 90.44C387.707 90.1 388.377 89.59 388.897 88.91C389.437 88.21 389.707 87.33 389.707 86.27C389.707 85.25 389.457 84.43 388.957 83.81C388.457 83.17 387.817 82.65 387.037 82.25C386.257 81.85 385.427 81.49 384.547 81.17C383.867 80.91 383.187 80.64 382.507 80.36C381.827 80.06 381.207 79.71 380.647 79.31C380.087 78.89 379.637 78.39 379.297 77.81C378.977 77.23 378.817 76.53 378.817 75.71C378.817 74.69 379.077 73.8 379.597 73.04C380.117 72.28 380.817 71.69 381.697 71.27C382.597 70.83 383.617 70.6 384.757 70.58C385.757 70.58 386.767 70.71 387.787 70.97C388.827 71.23 389.727 71.56 390.487 71.96L389.917 73.1Z" fill="white"/>
</svg>
