<svg width="914" height="99" viewBox="0 0 914 99" fill="none" xmlns="http://www.w3.org/2000/svg">
<mask id="path-1-outside-1_188_435" maskUnits="userSpaceOnUse" x="-0.900391" y="-0.700195" width="914" height="100" fill="black">
<rect fill="white" x="-0.900391" y="-0.700195" width="914" height="100"/>
<path d="M61.5996 73.8998C60.3996 74.6998 58.7663 75.5998 56.6996 76.5998C54.6329 77.5998 52.1996 78.4331 49.3996 79.0998C46.6663 79.7665 43.6663 80.0998 40.3996 80.0998C34.7996 80.0331 29.7329 79.0331 25.1996 77.0998C20.7329 75.1665 16.9329 72.5331 13.7996 69.1998C10.6663 65.8665 8.23294 62.0331 6.49961 57.6998C4.83294 53.2998 3.99961 48.6331 3.99961 43.6998C3.99961 38.2998 4.86628 33.3331 6.59961 28.7998C8.39961 24.1998 10.8996 20.2331 14.0996 16.8998C17.2996 13.4998 21.0663 10.8665 25.3996 8.9998C29.7996 7.13314 34.5996 6.1998 39.7996 6.1998C44.1329 6.1998 48.0663 6.7998 51.5996 7.9998C55.1329 9.13313 58.1663 10.4998 60.6996 12.0998L56.7996 21.0998C54.7996 19.7665 52.3663 18.4998 49.4996 17.2998C46.6996 16.0998 43.5663 15.4998 40.0996 15.4998C36.5663 15.4998 33.2329 16.1998 30.0996 17.5998C26.9663 18.9998 24.1996 20.9665 21.7996 23.4998C19.3996 26.0331 17.4996 28.9998 16.0996 32.3998C14.7663 35.7331 14.0996 39.3331 14.0996 43.1998C14.0996 47.1331 14.6996 50.7998 15.8996 54.1998C17.1663 57.5331 18.9329 60.4331 21.1996 62.8998C23.5329 65.3665 26.3329 67.2998 29.5996 68.6998C32.8663 70.0998 36.5329 70.7998 40.5996 70.7998C44.2663 70.7998 47.5329 70.2331 50.3996 69.0998C53.2663 67.9665 55.6329 66.6998 57.4996 65.2998L61.5996 73.8998ZM83.4332 43.1998C83.4332 38.1998 84.3665 33.4998 86.2332 29.0998C88.1665 24.6331 90.8332 20.6998 94.2332 17.2998C97.6332 13.8331 101.533 11.1331 105.933 9.1998C110.4 7.1998 115.2 6.1998 120.333 6.1998C125.4 6.1998 130.133 7.1998 134.533 9.1998C139 11.1331 142.933 13.8331 146.333 17.2998C149.8 20.6998 152.5 24.6331 154.433 29.0998C156.367 33.4998 157.333 38.1998 157.333 43.1998C157.333 48.3331 156.367 53.1331 154.433 57.5998C152.5 62.0665 149.8 65.9998 146.333 69.3998C142.933 72.7331 139 75.3665 134.533 77.2998C130.133 79.1665 125.4 80.0998 120.333 80.0998C115.2 80.0998 110.4 79.1665 105.933 77.2998C101.533 75.4331 97.6332 72.8331 94.2332 69.4998C90.8332 66.1665 88.1665 62.2665 86.2332 57.7998C84.3665 53.3331 83.4332 48.4665 83.4332 43.1998ZM93.4332 43.2998C93.4332 47.0998 94.1332 50.6665 95.5332 53.9998C96.9332 57.2665 98.8665 60.1665 101.333 62.6998C103.8 65.2331 106.667 67.2331 109.933 68.6998C113.2 70.0998 116.733 70.7998 120.533 70.7998C124.267 70.7998 127.767 70.0998 131.033 68.6998C134.3 67.2331 137.133 65.2331 139.533 62.6998C141.933 60.1665 143.833 57.2665 145.233 53.9998C146.633 50.6665 147.333 47.0665 147.333 43.1998C147.333 39.3998 146.633 35.8331 145.233 32.4998C143.833 29.0998 141.9 26.1331 139.433 23.5998C136.967 21.0665 134.1 19.0998 130.833 17.6998C127.567 16.2331 124.067 15.4998 120.333 15.4998C116.533 15.4998 113 16.2331 109.733 17.6998C106.467 19.1665 103.6 21.1665 101.133 23.6998C98.6665 26.2331 96.7665 29.1998 95.4332 32.5998C94.0999 35.9331 93.4332 39.4998 93.4332 43.2998ZM202.875 6.9998C206.542 6.9998 209.909 7.4998 212.975 8.4998C216.109 9.43314 218.809 10.8665 221.075 12.7998C223.409 14.6665 225.209 16.9998 226.475 19.7998C227.809 22.5331 228.475 25.7331 228.475 29.3998C228.475 32.2665 228.042 35.0665 227.175 37.7998C226.375 40.5331 225.009 43.0331 223.075 45.2998C221.142 47.4998 218.609 49.2998 215.475 50.6998C212.409 52.0331 208.609 52.6998 204.075 52.6998H193.375V79.2998H183.675V6.9998H202.875ZM203.875 43.3998C206.742 43.3998 209.109 42.9665 210.975 42.0998C212.909 41.2331 214.409 40.1331 215.475 38.7998C216.542 37.3998 217.309 35.8998 217.775 34.2998C218.242 32.6998 218.475 31.1998 218.475 29.7998C218.475 28.3331 218.209 26.8331 217.675 25.2998C217.209 23.6998 216.409 22.2331 215.275 20.8998C214.209 19.5665 212.775 18.4665 210.975 17.5998C209.242 16.7331 207.109 16.2998 204.575 16.2998H193.375V43.3998H203.875ZM215.775 48.8998L234.675 79.2998H223.475L204.275 49.1998L215.775 48.8998ZM253.317 6.9998H301.317V16.2998H281.917V79.2998H272.217V16.2998H253.317V6.9998ZM326.722 6.9998H373.722V16.2998H336.422V38.2998H369.722V47.5998H336.422V69.9998H375.122V79.2998H326.722V6.9998ZM443.597 79.2998V6.9998H463.297C470.431 6.9998 476.497 8.0998 481.497 10.2998C486.564 12.4998 490.631 15.3998 493.697 18.9998C496.764 22.5998 498.997 26.5998 500.397 30.9998C501.864 35.3331 502.597 39.6665 502.597 43.9998C502.597 49.4665 501.631 54.3665 499.697 58.6998C497.831 63.0331 495.231 66.7331 491.897 69.7998C488.564 72.8665 484.731 75.2331 480.397 76.8998C476.131 78.4998 471.597 79.2998 466.797 79.2998H443.597ZM453.297 69.9998H464.897C468.897 69.9998 472.564 69.3998 475.897 68.1998C479.297 66.9998 482.231 65.2665 484.697 62.9998C487.231 60.7331 489.197 57.9665 490.597 54.6998C491.997 51.3665 492.697 47.5998 492.697 43.3998C492.697 38.9331 491.964 35.0331 490.497 31.6998C489.031 28.2998 487.031 25.4665 484.497 23.1998C481.964 20.9331 479.097 19.2331 475.897 18.0998C472.697 16.8998 469.331 16.2998 465.797 16.2998H453.297V69.9998ZM528.89 6.9998H575.89V16.2998H538.59V38.2998H571.89V47.5998H538.59V69.9998H577.29V79.2998H528.89V6.9998ZM698.865 73.8998C697.665 74.6998 696.032 75.5998 693.965 76.5998C691.899 77.5998 689.465 78.4331 686.665 79.0998C683.932 79.7665 680.932 80.0998 677.665 80.0998C672.065 80.0331 666.999 79.0331 662.465 77.0998C657.999 75.1665 654.199 72.5331 651.065 69.1998C647.932 65.8665 645.499 62.0331 643.765 57.6998C642.099 53.2998 641.265 48.6331 641.265 43.6998C641.265 38.2998 642.132 33.3331 643.865 28.7998C645.665 24.1998 648.165 20.2331 651.365 16.8998C654.565 13.4998 658.332 10.8665 662.665 8.9998C667.065 7.13314 671.865 6.1998 677.065 6.1998C681.399 6.1998 685.332 6.7998 688.865 7.9998C692.399 9.13313 695.432 10.4998 697.965 12.0998L694.065 21.0998C692.065 19.7665 689.632 18.4998 686.765 17.2998C683.965 16.0998 680.832 15.4998 677.365 15.4998C673.832 15.4998 670.499 16.1998 667.365 17.5998C664.232 18.9998 661.465 20.9665 659.065 23.4998C656.665 26.0331 654.765 28.9998 653.365 32.3998C652.032 35.7331 651.365 39.3331 651.365 43.1998C651.365 47.1331 651.965 50.7998 653.165 54.1998C654.432 57.5331 656.199 60.4331 658.465 62.8998C660.799 65.3665 663.599 67.2998 666.865 68.6998C670.132 70.0998 673.799 70.7998 677.865 70.7998C681.532 70.7998 684.799 70.2331 687.665 69.0998C690.532 67.9665 692.899 66.6998 694.765 65.2998L698.865 73.8998ZM717.999 79.2998L749.599 3.9998H750.199L781.699 79.2998H770.599L746.999 19.1998L753.899 14.6998L727.499 79.2998H717.999ZM736.499 51.8998H763.399L766.599 60.2998H733.699L736.499 51.8998ZM821.016 66.1998C821.016 72.0665 819.883 77.0665 817.616 81.1998C815.416 85.3331 812.383 88.4665 808.516 90.5998C804.649 92.7998 800.216 93.9998 795.216 94.1998V84.7998C799.883 84.5331 803.716 82.8665 806.716 79.7998C809.783 76.7998 811.316 72.1665 811.316 65.8998V6.9998H821.016V66.1998ZM843.37 79.2998L874.97 3.9998H875.57L907.07 79.2998H895.97L872.37 19.1998L879.27 14.6998L852.87 79.2998H843.37ZM861.87 51.8998H888.77L891.97 60.2998H859.07L861.87 51.8998Z"/>
</mask>
<path d="M61.5996 73.8998C60.3996 74.6998 58.7663 75.5998 56.6996 76.5998C54.6329 77.5998 52.1996 78.4331 49.3996 79.0998C46.6663 79.7665 43.6663 80.0998 40.3996 80.0998C34.7996 80.0331 29.7329 79.0331 25.1996 77.0998C20.7329 75.1665 16.9329 72.5331 13.7996 69.1998C10.6663 65.8665 8.23294 62.0331 6.49961 57.6998C4.83294 53.2998 3.99961 48.6331 3.99961 43.6998C3.99961 38.2998 4.86628 33.3331 6.59961 28.7998C8.39961 24.1998 10.8996 20.2331 14.0996 16.8998C17.2996 13.4998 21.0663 10.8665 25.3996 8.9998C29.7996 7.13314 34.5996 6.1998 39.7996 6.1998C44.1329 6.1998 48.0663 6.7998 51.5996 7.9998C55.1329 9.13313 58.1663 10.4998 60.6996 12.0998L56.7996 21.0998C54.7996 19.7665 52.3663 18.4998 49.4996 17.2998C46.6996 16.0998 43.5663 15.4998 40.0996 15.4998C36.5663 15.4998 33.2329 16.1998 30.0996 17.5998C26.9663 18.9998 24.1996 20.9665 21.7996 23.4998C19.3996 26.0331 17.4996 28.9998 16.0996 32.3998C14.7663 35.7331 14.0996 39.3331 14.0996 43.1998C14.0996 47.1331 14.6996 50.7998 15.8996 54.1998C17.1663 57.5331 18.9329 60.4331 21.1996 62.8998C23.5329 65.3665 26.3329 67.2998 29.5996 68.6998C32.8663 70.0998 36.5329 70.7998 40.5996 70.7998C44.2663 70.7998 47.5329 70.2331 50.3996 69.0998C53.2663 67.9665 55.6329 66.6998 57.4996 65.2998L61.5996 73.8998ZM83.4332 43.1998C83.4332 38.1998 84.3665 33.4998 86.2332 29.0998C88.1665 24.6331 90.8332 20.6998 94.2332 17.2998C97.6332 13.8331 101.533 11.1331 105.933 9.1998C110.4 7.1998 115.2 6.1998 120.333 6.1998C125.4 6.1998 130.133 7.1998 134.533 9.1998C139 11.1331 142.933 13.8331 146.333 17.2998C149.8 20.6998 152.5 24.6331 154.433 29.0998C156.367 33.4998 157.333 38.1998 157.333 43.1998C157.333 48.3331 156.367 53.1331 154.433 57.5998C152.5 62.0665 149.8 65.9998 146.333 69.3998C142.933 72.7331 139 75.3665 134.533 77.2998C130.133 79.1665 125.4 80.0998 120.333 80.0998C115.2 80.0998 110.4 79.1665 105.933 77.2998C101.533 75.4331 97.6332 72.8331 94.2332 69.4998C90.8332 66.1665 88.1665 62.2665 86.2332 57.7998C84.3665 53.3331 83.4332 48.4665 83.4332 43.1998ZM93.4332 43.2998C93.4332 47.0998 94.1332 50.6665 95.5332 53.9998C96.9332 57.2665 98.8665 60.1665 101.333 62.6998C103.8 65.2331 106.667 67.2331 109.933 68.6998C113.2 70.0998 116.733 70.7998 120.533 70.7998C124.267 70.7998 127.767 70.0998 131.033 68.6998C134.3 67.2331 137.133 65.2331 139.533 62.6998C141.933 60.1665 143.833 57.2665 145.233 53.9998C146.633 50.6665 147.333 47.0665 147.333 43.1998C147.333 39.3998 146.633 35.8331 145.233 32.4998C143.833 29.0998 141.9 26.1331 139.433 23.5998C136.967 21.0665 134.1 19.0998 130.833 17.6998C127.567 16.2331 124.067 15.4998 120.333 15.4998C116.533 15.4998 113 16.2331 109.733 17.6998C106.467 19.1665 103.6 21.1665 101.133 23.6998C98.6665 26.2331 96.7665 29.1998 95.4332 32.5998C94.0999 35.9331 93.4332 39.4998 93.4332 43.2998ZM202.875 6.9998C206.542 6.9998 209.909 7.4998 212.975 8.4998C216.109 9.43314 218.809 10.8665 221.075 12.7998C223.409 14.6665 225.209 16.9998 226.475 19.7998C227.809 22.5331 228.475 25.7331 228.475 29.3998C228.475 32.2665 228.042 35.0665 227.175 37.7998C226.375 40.5331 225.009 43.0331 223.075 45.2998C221.142 47.4998 218.609 49.2998 215.475 50.6998C212.409 52.0331 208.609 52.6998 204.075 52.6998H193.375V79.2998H183.675V6.9998H202.875ZM203.875 43.3998C206.742 43.3998 209.109 42.9665 210.975 42.0998C212.909 41.2331 214.409 40.1331 215.475 38.7998C216.542 37.3998 217.309 35.8998 217.775 34.2998C218.242 32.6998 218.475 31.1998 218.475 29.7998C218.475 28.3331 218.209 26.8331 217.675 25.2998C217.209 23.6998 216.409 22.2331 215.275 20.8998C214.209 19.5665 212.775 18.4665 210.975 17.5998C209.242 16.7331 207.109 16.2998 204.575 16.2998H193.375V43.3998H203.875ZM215.775 48.8998L234.675 79.2998H223.475L204.275 49.1998L215.775 48.8998ZM253.317 6.9998H301.317V16.2998H281.917V79.2998H272.217V16.2998H253.317V6.9998ZM326.722 6.9998H373.722V16.2998H336.422V38.2998H369.722V47.5998H336.422V69.9998H375.122V79.2998H326.722V6.9998ZM443.597 79.2998V6.9998H463.297C470.431 6.9998 476.497 8.0998 481.497 10.2998C486.564 12.4998 490.631 15.3998 493.697 18.9998C496.764 22.5998 498.997 26.5998 500.397 30.9998C501.864 35.3331 502.597 39.6665 502.597 43.9998C502.597 49.4665 501.631 54.3665 499.697 58.6998C497.831 63.0331 495.231 66.7331 491.897 69.7998C488.564 72.8665 484.731 75.2331 480.397 76.8998C476.131 78.4998 471.597 79.2998 466.797 79.2998H443.597ZM453.297 69.9998H464.897C468.897 69.9998 472.564 69.3998 475.897 68.1998C479.297 66.9998 482.231 65.2665 484.697 62.9998C487.231 60.7331 489.197 57.9665 490.597 54.6998C491.997 51.3665 492.697 47.5998 492.697 43.3998C492.697 38.9331 491.964 35.0331 490.497 31.6998C489.031 28.2998 487.031 25.4665 484.497 23.1998C481.964 20.9331 479.097 19.2331 475.897 18.0998C472.697 16.8998 469.331 16.2998 465.797 16.2998H453.297V69.9998ZM528.89 6.9998H575.89V16.2998H538.59V38.2998H571.89V47.5998H538.59V69.9998H577.29V79.2998H528.89V6.9998ZM698.865 73.8998C697.665 74.6998 696.032 75.5998 693.965 76.5998C691.899 77.5998 689.465 78.4331 686.665 79.0998C683.932 79.7665 680.932 80.0998 677.665 80.0998C672.065 80.0331 666.999 79.0331 662.465 77.0998C657.999 75.1665 654.199 72.5331 651.065 69.1998C647.932 65.8665 645.499 62.0331 643.765 57.6998C642.099 53.2998 641.265 48.6331 641.265 43.6998C641.265 38.2998 642.132 33.3331 643.865 28.7998C645.665 24.1998 648.165 20.2331 651.365 16.8998C654.565 13.4998 658.332 10.8665 662.665 8.9998C667.065 7.13314 671.865 6.1998 677.065 6.1998C681.399 6.1998 685.332 6.7998 688.865 7.9998C692.399 9.13313 695.432 10.4998 697.965 12.0998L694.065 21.0998C692.065 19.7665 689.632 18.4998 686.765 17.2998C683.965 16.0998 680.832 15.4998 677.365 15.4998C673.832 15.4998 670.499 16.1998 667.365 17.5998C664.232 18.9998 661.465 20.9665 659.065 23.4998C656.665 26.0331 654.765 28.9998 653.365 32.3998C652.032 35.7331 651.365 39.3331 651.365 43.1998C651.365 47.1331 651.965 50.7998 653.165 54.1998C654.432 57.5331 656.199 60.4331 658.465 62.8998C660.799 65.3665 663.599 67.2998 666.865 68.6998C670.132 70.0998 673.799 70.7998 677.865 70.7998C681.532 70.7998 684.799 70.2331 687.665 69.0998C690.532 67.9665 692.899 66.6998 694.765 65.2998L698.865 73.8998ZM717.999 79.2998L749.599 3.9998H750.199L781.699 79.2998H770.599L746.999 19.1998L753.899 14.6998L727.499 79.2998H717.999ZM736.499 51.8998H763.399L766.599 60.2998H733.699L736.499 51.8998ZM821.016 66.1998C821.016 72.0665 819.883 77.0665 817.616 81.1998C815.416 85.3331 812.383 88.4665 808.516 90.5998C804.649 92.7998 800.216 93.9998 795.216 94.1998V84.7998C799.883 84.5331 803.716 82.8665 806.716 79.7998C809.783 76.7998 811.316 72.1665 811.316 65.8998V6.9998H821.016V66.1998ZM843.37 79.2998L874.97 3.9998H875.57L907.07 79.2998H895.97L872.37 19.1998L879.27 14.6998L852.87 79.2998H843.37ZM861.87 51.8998H888.77L891.97 60.2998H859.07L861.87 51.8998Z" fill="#12274B"/>
<path d="M61.5996 73.8998L63.8184 77.228L66.7013 75.3061L65.2103 72.1784L61.5996 73.8998ZM56.6996 76.5998L58.4419 80.2004L58.4419 80.2004L56.6996 76.5998ZM49.3996 79.0998L48.4731 75.2086L48.4624 75.2111L48.4518 75.2137L49.3996 79.0998ZM40.3996 80.0998L40.352 84.0995L40.3758 84.0998H40.3996V80.0998ZM25.1996 77.0998L23.6107 80.7707L23.6206 80.775L23.6305 80.7792L25.1996 77.0998ZM13.7996 69.1998L10.8851 71.9394L10.8851 71.9394L13.7996 69.1998ZM6.49961 57.6998L2.75897 59.1167L2.77202 59.1512L2.7857 59.1854L6.49961 57.6998ZM6.59961 28.7998L2.87464 27.3422L2.86896 27.3567L2.8634 27.3713L6.59961 28.7998ZM14.0996 16.8998L16.9852 19.6699L16.9989 19.6557L17.0124 19.6413L14.0996 16.8998ZM25.3996 8.9998L23.8374 5.31748L23.8273 5.32179L23.8171 5.32615L25.3996 8.9998ZM51.5996 7.9998L50.3133 11.7873L50.3455 11.7983L50.3779 11.8087L51.5996 7.9998ZM60.6996 12.0998L64.3698 13.6902L65.7319 10.5471L62.8356 8.71784L60.6996 12.0998ZM56.7996 21.0998L54.5808 24.428L58.5656 27.0846L60.4698 22.6902L56.7996 21.0998ZM49.4996 17.2998L47.9239 20.9764L47.9395 20.983L47.9551 20.9896L49.4996 17.2998ZM30.0996 17.5998L28.4679 13.9478L28.4679 13.9478L30.0996 17.5998ZM21.7996 23.4998L24.7034 26.2508L24.7034 26.2508L21.7996 23.4998ZM16.0996 32.3998L12.4009 30.8768L12.3932 30.8955L12.3857 30.9142L16.0996 32.3998ZM15.8996 54.1998L12.1276 55.5311L12.1435 55.5761L12.1605 55.6207L15.8996 54.1998ZM21.1996 62.8998L18.2543 65.6063L18.2739 65.6276L18.2937 65.6486L21.1996 62.8998ZM29.5996 68.6998L31.1753 65.0232L31.1753 65.0232L29.5996 68.6998ZM50.3996 69.0998L48.929 65.38L48.929 65.38L50.3996 69.0998ZM57.4996 65.2998L61.1103 63.5784L59.0079 59.1686L55.0996 62.0998L57.4996 65.2998ZM61.5996 73.8998L59.3808 70.5716C58.3951 71.2287 56.9433 72.0382 54.9574 72.9992L56.6996 76.5998L58.4419 80.2004C60.5892 79.1614 62.4041 78.1709 63.8184 77.228L61.5996 73.8998ZM56.6996 76.5998L54.9574 72.9992C53.2072 73.846 51.059 74.5929 48.4731 75.2086L49.3996 79.0998L50.3261 82.991C53.3402 82.2734 56.0587 81.3536 58.4419 80.2004L56.6996 76.5998ZM49.3996 79.0998L48.4518 75.2137C46.0737 75.7937 43.3968 76.0998 40.3996 76.0998V80.0998V84.0998C43.9357 84.0998 47.2588 83.7392 50.3474 82.9859L49.3996 79.0998ZM40.3996 80.0998L40.4472 76.1001C35.2995 76.0388 30.7595 75.1224 26.7688 73.4204L25.1996 77.0998L23.6305 80.7792C28.7064 82.9439 34.2997 84.0275 40.352 84.0995L40.3996 80.0998ZM25.1996 77.0998L26.7885 73.4289C22.7901 71.6983 19.4502 69.3709 16.7141 66.4602L13.7996 69.1998L10.8851 71.9394C14.4157 75.6954 18.6758 78.6347 23.6107 80.7707L25.1996 77.0998ZM13.7996 69.1998L16.7141 66.4602C13.9303 63.4986 11.765 60.0928 10.2135 56.2142L6.49961 57.6998L2.7857 59.1854C4.70094 63.9734 7.40226 68.2343 10.8851 71.9394L13.7996 69.1998ZM6.49961 57.6998L10.2402 56.2829C8.75329 52.3573 7.99961 48.1728 7.99961 43.6998H3.99961H-0.000390217C-0.000390217 49.0935 0.912595 54.2423 2.75897 59.1167L6.49961 57.6998ZM3.99961 43.6998H7.99961C7.99961 38.7333 8.79543 34.2571 10.3358 30.2284L6.59961 28.7998L2.8634 27.3713C0.937124 32.4092 -0.000390217 37.8663 -0.000390217 43.6998H3.99961ZM6.59961 28.7998L10.3246 30.2574C11.9468 26.1116 14.1728 22.5995 16.9852 19.6699L14.0996 16.8998L11.2141 14.1297C7.62641 17.8668 4.85237 22.288 2.87464 27.3422L6.59961 28.7998ZM14.0996 16.8998L17.0124 19.6413C19.8334 16.644 23.1458 14.326 26.9821 12.6735L25.3996 8.9998L23.8171 5.32615C18.9867 7.40694 14.7659 10.3556 11.1868 14.1583L14.0996 16.8998ZM25.3996 8.9998L26.9618 12.6821C30.8257 11.0429 35.0888 10.1998 39.7996 10.1998V6.1998V2.1998C34.1104 2.1998 28.7736 3.22335 23.8374 5.31748L25.3996 8.9998ZM39.7996 6.1998V10.1998C43.7645 10.1998 47.255 10.7486 50.3133 11.7873L51.5996 7.9998L52.8859 4.21227C48.8776 2.85096 44.5013 2.1998 39.7996 2.1998V6.1998ZM51.5996 7.9998L50.3779 11.8087C53.6627 12.8623 56.3741 14.0989 58.5636 15.4818L60.6996 12.0998L62.8356 8.71784C59.9585 6.90072 56.6032 5.40399 52.8213 4.19094L51.5996 7.9998ZM60.6996 12.0998L57.0294 10.5094L53.1294 19.5094L56.7996 21.0998L60.4698 22.6902L64.3698 13.6902L60.6996 12.0998ZM56.7996 21.0998L59.0184 17.7716C56.7545 16.2623 54.0821 14.8817 51.0442 13.61L49.4996 17.2998L47.9551 20.9896C50.6505 22.1179 52.8447 23.2706 54.5808 24.428L56.7996 21.0998ZM49.4996 17.2998L51.0753 13.6232C47.7132 12.1823 44.0335 11.4998 40.0996 11.4998V15.4998V19.4998C43.099 19.4998 45.686 20.0173 47.9239 20.9764L49.4996 17.2998ZM40.0996 15.4998V11.4998C36.021 11.4998 32.13 12.3115 28.4679 13.9478L30.0996 17.5998L31.7314 21.2518C34.3359 20.0881 37.1115 19.4998 40.0996 19.4998V15.4998ZM30.0996 17.5998L28.4679 13.9478C24.8473 15.5655 21.6504 17.8412 18.8958 20.7488L21.7996 23.4998L24.7034 26.2508C26.7488 24.0917 29.0852 22.4341 31.7314 21.2518L30.0996 17.5998ZM21.7996 23.4998L18.8958 20.7488C16.1397 23.658 13.978 27.0468 12.4009 30.8768L16.0996 32.3998L19.7983 33.9228C21.0213 30.9528 22.6595 28.4082 24.7034 26.2508L21.7996 23.4998ZM16.0996 32.3998L12.3857 30.9142C10.8492 34.7554 10.0996 38.8638 10.0996 43.1998H14.0996H18.0996C18.0996 39.8025 18.6833 36.7109 19.8135 33.8854L16.0996 32.3998ZM14.0996 43.1998H10.0996C10.0996 47.5454 10.7636 51.6663 12.1276 55.5311L15.8996 54.1998L19.6716 52.8685C18.6356 49.9333 18.0996 46.7208 18.0996 43.1998H14.0996ZM15.8996 54.1998L12.1605 55.6207C13.5959 59.3981 15.622 62.7418 18.2543 65.6063L21.1996 62.8998L24.1449 60.1933C22.2439 58.1245 20.7366 55.6681 19.6387 52.7789L15.8996 54.1998ZM21.1996 62.8998L18.2937 65.6486C21.0199 68.5306 24.2791 70.7715 28.0239 72.3764L29.5996 68.6998L31.1753 65.0232C28.3868 63.8282 26.0459 62.2023 24.1055 60.151L21.1996 62.8998ZM29.5996 68.6998L28.0239 72.3764C31.8553 74.0184 36.0689 74.7998 40.5996 74.7998V70.7998V66.7998C36.997 66.7998 33.8773 66.1812 31.1753 65.0232L29.5996 68.6998ZM40.5996 70.7998V74.7998C44.6764 74.7998 48.4557 74.1696 51.8702 72.8196L50.3996 69.0998L48.929 65.38C46.6101 66.2967 43.8562 66.7998 40.5996 66.7998V70.7998ZM50.3996 69.0998L51.8702 72.8196C54.9691 71.5945 57.6733 70.1696 59.8996 68.4998L57.4996 65.2998L55.0996 62.0998C53.5926 63.23 51.5635 64.3384 48.929 65.38L50.3996 69.0998ZM57.4996 65.2998L53.8889 67.0212L57.9889 75.6212L61.5996 73.8998L65.2103 72.1784L61.1103 63.5784L57.4996 65.2998ZM86.2332 29.0998L82.5623 27.5109L82.5565 27.5242L82.5509 27.5376L86.2332 29.0998ZM94.2332 17.2998L97.0616 20.1282L97.0754 20.1145L97.089 20.1006L94.2332 17.2998ZM105.933 9.1998L107.542 12.8619L107.555 12.8563L107.568 12.8505L105.933 9.1998ZM134.533 9.1998L132.878 12.8413L132.911 12.8563L132.944 12.8707L134.533 9.1998ZM146.333 17.2998L143.477 20.1006L143.505 20.1284L143.532 20.1556L146.333 17.2998ZM154.433 29.0998L150.762 30.6887L150.767 30.6988L150.771 30.7089L154.433 29.0998ZM154.433 57.5998L158.104 59.1887L158.104 59.1887L154.433 57.5998ZM146.333 69.3998L149.133 72.2561L149.134 72.2556L146.333 69.3998ZM134.533 77.2998L136.095 80.9821L136.109 80.9765L136.122 80.9707L134.533 77.2998ZM105.933 77.2998L104.371 80.9821L104.381 80.9863L104.391 80.9905L105.933 77.2998ZM94.2332 69.4998L97.0335 66.6435L97.0335 66.6435L94.2332 69.4998ZM86.2332 57.7998L82.5425 59.3422L82.5523 59.3655L82.5623 59.3887L86.2332 57.7998ZM95.5332 53.9998L91.8453 55.5487L91.8509 55.5621L91.8566 55.5755L95.5332 53.9998ZM101.333 62.6998L98.4673 65.4903L101.333 62.6998ZM109.933 68.6998L108.295 72.3489L108.326 72.3629L108.358 72.3764L109.933 68.6998ZM131.033 68.6998L132.609 72.3764L132.64 72.3629L132.672 72.3489L131.033 68.6998ZM139.533 62.6998L136.629 59.9488L136.629 59.9488L139.533 62.6998ZM145.233 53.9998L148.91 55.5755L148.916 55.5621L148.921 55.5487L145.233 53.9998ZM145.233 32.4998L141.534 34.0228L141.54 34.0358L141.545 34.0487L145.233 32.4998ZM130.833 17.6998L129.195 21.3489L129.226 21.3629L129.258 21.3764L130.833 17.6998ZM109.733 17.6998L108.095 14.0507L108.095 14.0507L109.733 17.6998ZM101.133 23.6998L98.2673 20.9093L98.2673 20.9093L101.133 23.6998ZM95.4332 32.5998L99.1471 34.0854L99.1521 34.0728L99.1571 34.0602L95.4332 32.5998ZM83.4332 43.1998H87.4332C87.4332 38.7114 88.2681 34.5452 89.9155 30.662L86.2332 29.0998L82.5509 27.5376C80.4649 32.4545 79.4332 37.6883 79.4332 43.1998H83.4332ZM86.2332 29.0998L89.9041 30.6887C91.6397 26.6788 94.0225 23.1674 97.0616 20.1282L94.2332 17.2998L91.4048 14.4714C87.6439 18.2322 84.6934 22.5875 82.5623 27.5109L86.2332 29.0998ZM94.2332 17.2998L97.089 20.1006C100.136 16.994 103.614 14.588 107.542 12.8619L105.933 9.1998L104.324 5.53772C99.4526 7.67825 95.1306 10.6723 91.3774 14.499L94.2332 17.2998ZM105.933 9.1998L107.568 12.8505C111.495 11.092 115.735 10.1998 120.333 10.1998V6.1998V2.1998C114.665 2.1998 109.305 3.30759 104.299 5.54906L105.933 9.1998ZM120.333 6.1998V10.1998C124.857 10.1998 129.023 11.089 132.878 12.8413L134.533 9.1998L136.188 5.55833C131.244 3.31066 125.943 2.1998 120.333 2.1998V6.1998ZM134.533 9.1998L132.944 12.8707C136.938 14.5991 140.44 17.004 143.477 20.1006L146.333 17.2998L149.189 14.499C145.426 10.6622 141.062 7.66715 136.122 5.52891L134.533 9.1998ZM146.333 17.2998L143.532 20.1556C146.629 23.1926 149.034 26.6954 150.762 30.6887L154.433 29.0998L158.104 27.5109C155.966 22.5708 152.971 18.207 149.134 14.4441L146.333 17.2998ZM154.433 29.0998L150.771 30.7089C152.473 34.5812 153.333 38.7309 153.333 43.1998H157.333H161.333C161.333 37.6687 160.26 32.4184 158.095 27.4907L154.433 29.0998ZM157.333 43.1998H153.333C153.333 47.817 152.467 52.073 150.762 56.0109L154.433 57.5998L158.104 59.1887C160.266 54.1933 161.333 48.8493 161.333 43.1998H157.333ZM154.433 57.5998L150.762 56.0109C149.034 60.0042 146.629 63.507 143.532 66.5441L146.333 69.3998L149.134 72.2556C152.971 68.4926 155.966 64.1288 158.104 59.1887L154.433 57.5998ZM146.333 69.3998L143.533 66.5435C140.491 69.5256 136.971 71.8861 132.944 73.6289L134.533 77.2998L136.122 80.9707C141.029 78.8468 145.375 75.9407 149.133 72.2561L146.333 69.3998ZM134.533 77.2998L132.971 73.6175C129.094 75.2621 124.896 76.0998 120.333 76.0998V80.0998V84.0998C125.904 84.0998 131.172 83.0709 136.095 80.9821L134.533 77.2998ZM120.333 80.0998V76.0998C115.697 76.0998 111.425 75.2595 107.476 73.6091L105.933 77.2998L104.391 80.9905C109.375 83.0735 114.703 84.0998 120.333 84.0998V80.0998ZM105.933 77.2998L107.495 73.6175C103.554 71.9455 100.075 69.6251 97.0335 66.6435L94.2332 69.4998L91.4329 72.3561C95.1917 76.0412 99.5121 78.9208 104.371 80.9821L105.933 77.2998ZM94.2332 69.4998L97.0335 66.6435C94.0112 63.6805 91.6366 60.2136 89.9041 56.2109L86.2332 57.7998L82.5623 59.3887C84.6965 64.3194 87.6552 68.6524 91.4329 72.3561L94.2332 69.4998ZM86.2332 57.7998L89.9239 56.2574C88.2787 52.3208 87.4332 47.9838 87.4332 43.1998H83.4332H79.4332C79.4332 48.9491 80.4543 54.3454 82.5425 59.3422L86.2332 57.7998ZM93.4332 43.2998H89.4332C89.4332 47.6041 90.2289 51.7001 91.8453 55.5487L95.5332 53.9998L99.2211 52.4509C98.0375 49.6328 97.4332 46.5955 97.4332 43.2998H93.4332ZM95.5332 53.9998L91.8566 55.5755C93.449 59.291 95.6564 62.6033 98.4673 65.4903L101.333 62.6998L104.199 59.9093C102.077 57.7296 100.417 55.2419 99.2098 52.4241L95.5332 53.9998ZM101.333 62.6998L98.4673 65.4903C101.29 68.3892 104.575 70.6786 108.295 72.3489L109.933 68.6998L111.572 65.0507C108.759 63.7877 106.31 62.077 104.199 59.9093L101.333 62.6998ZM109.933 68.6998L108.358 72.3764C112.156 74.0043 116.23 74.7998 120.533 74.7998V70.7998V66.7998C117.237 66.7998 114.244 66.1954 111.509 65.0232L109.933 68.6998ZM120.533 70.7998V74.7998C124.78 74.7998 128.819 74.0005 132.609 72.3764L131.033 68.6998L129.458 65.0232C126.714 66.1991 123.753 66.7998 120.533 66.7998V70.7998ZM131.033 68.6998L132.672 72.3489C136.402 70.674 139.668 68.3732 142.437 65.4508L139.533 62.6998L136.629 59.9488C134.598 62.0931 132.198 63.7922 129.395 65.0507L131.033 68.6998ZM139.533 62.6998L142.437 65.4508C145.168 62.568 147.327 59.2683 148.91 55.5755L145.233 53.9998L141.557 52.4241C140.339 55.2646 138.698 57.7649 136.629 59.9488L139.533 62.6998ZM145.233 53.9998L148.921 55.5487C150.541 51.6916 151.333 47.561 151.333 43.1998H147.333H143.333C143.333 46.572 142.725 49.6413 141.545 52.4509L145.233 53.9998ZM147.333 43.1998H151.333C151.333 38.8955 150.538 34.7995 148.921 30.9509L145.233 32.4998L141.545 34.0487C142.729 36.8668 143.333 39.9041 143.333 43.1998H147.333ZM145.233 32.4998L148.932 30.9768C147.346 27.1242 145.136 23.7227 142.299 20.8093L139.433 23.5998L136.567 26.3903C138.664 28.5435 140.321 31.0754 141.534 34.0228L145.233 32.4998ZM139.433 23.5998L142.299 20.8093C139.463 17.8966 136.157 15.6296 132.409 14.0232L130.833 17.6998L129.258 21.3764C132.043 22.57 134.47 24.2364 136.567 26.3903L139.433 23.5998ZM130.833 17.6998L132.472 14.0507C128.668 12.3429 124.607 11.4998 120.333 11.4998V15.4998V19.4998C123.526 19.4998 126.465 20.1234 129.195 21.3489L130.833 17.6998ZM120.333 15.4998V11.4998C116.004 11.4998 111.908 12.3387 108.095 14.0507L109.733 17.6998L111.372 21.3489C114.092 20.1275 117.063 19.4998 120.333 19.4998V15.4998ZM109.733 17.6998L108.095 14.0507C104.375 15.721 101.09 18.0104 98.2673 20.9093L101.133 23.6998L103.999 26.4903C106.11 24.3226 108.559 22.6119 111.372 21.3489L109.733 17.6998ZM101.133 23.6998L98.2673 20.9093C95.4166 23.8371 93.2307 27.26 91.7093 31.1395L95.4332 32.5998L99.1571 34.0602C100.302 31.1396 101.916 28.6292 103.999 26.4903L101.133 23.6998ZM95.4332 32.5998L91.7193 31.1142C90.1861 34.9472 89.4332 39.0211 89.4332 43.2998H93.4332H97.4332C97.4332 39.9786 98.0136 36.919 99.1471 34.0854L95.4332 32.5998ZM212.975 8.4998L211.735 12.3027L211.784 12.3187L211.833 12.3333L212.975 8.4998ZM221.075 12.7998L218.48 15.8431L218.527 15.884L218.577 15.9233L221.075 12.7998ZM226.475 19.7998L222.831 21.4485L222.855 21.5013L222.88 21.5535L226.475 19.7998ZM227.175 37.7998L223.362 36.5908L223.349 36.6334L223.336 36.6762L227.175 37.7998ZM223.075 45.2998L226.08 47.9403L226.1 47.9181L226.119 47.8956L223.075 45.2998ZM215.475 50.6998L217.07 54.3681L217.089 54.3601L217.107 54.3518L215.475 50.6998ZM193.375 52.6998V48.6998H189.375V52.6998H193.375ZM193.375 79.2998V83.2998H197.375V79.2998H193.375ZM183.675 79.2998H179.675V83.2998H183.675V79.2998ZM183.675 6.9998V2.9998H179.675V6.9998H183.675ZM210.975 42.0998L209.339 38.4498L209.315 38.4606L209.291 38.4718L210.975 42.0998ZM215.475 38.7998L218.599 41.2986L218.628 41.2616L218.657 41.224L215.475 38.7998ZM217.775 34.2998L221.615 35.4198L221.615 35.4198L217.775 34.2998ZM217.675 25.2998L213.835 26.4198L213.864 26.5176L213.897 26.6139L217.675 25.2998ZM215.275 20.8998L212.152 23.3986L212.189 23.445L212.228 23.4904L215.275 20.8998ZM210.975 17.5998L209.187 21.1775L209.213 21.1909L209.24 21.2038L210.975 17.5998ZM193.375 16.2998V12.2998H189.375V16.2998H193.375ZM193.375 43.3998H189.375V47.3998H193.375V43.3998ZM215.775 48.8998L219.172 46.7878L217.962 44.8414L215.671 44.9012L215.775 48.8998ZM234.675 79.2998V83.2998H241.872L238.072 77.1879L234.675 79.2998ZM223.475 79.2998L220.103 81.4509L221.282 83.2998H223.475V79.2998ZM204.275 49.1998L204.171 45.2012L197.098 45.3857L200.903 51.3509L204.275 49.1998ZM202.875 6.9998V10.9998C206.178 10.9998 209.12 11.4498 211.735 12.3027L212.975 8.4998L214.215 4.69689C210.698 3.54983 206.907 2.9998 202.875 2.9998V6.9998ZM212.975 8.4998L211.833 12.3333C214.485 13.1231 216.677 14.3056 218.48 15.8431L221.075 12.7998L223.671 9.75647C220.94 7.42735 217.733 5.74315 214.117 4.66626L212.975 8.4998ZM221.075 12.7998L218.577 15.9233C220.403 17.3842 221.817 19.2066 222.831 21.4485L226.475 19.7998L230.12 18.1511C228.601 14.793 226.415 11.9488 223.574 9.67633L221.075 12.7998ZM226.475 19.7998L222.88 21.5535C223.898 23.6397 224.475 26.2176 224.475 29.3998H228.475H232.475C232.475 25.2487 231.719 21.4266 230.07 18.0461L226.475 19.7998ZM228.475 29.3998H224.475C224.475 31.8562 224.105 34.2484 223.362 36.5908L227.175 37.7998L230.988 39.0088C231.979 35.8845 232.475 32.6768 232.475 29.3998H228.475ZM227.175 37.7998L223.336 36.6762C222.702 38.8433 221.617 40.8463 220.032 42.704L223.075 45.2998L226.119 47.8956C228.401 45.22 230.049 42.223 231.014 38.9234L227.175 37.7998ZM223.075 45.2998L220.071 42.6593C218.577 44.3594 216.541 45.8424 213.844 47.0478L215.475 50.6998L217.107 54.3518C220.676 52.7572 223.707 50.6402 226.08 47.9403L223.075 45.2998ZM215.475 50.6998L213.88 47.0315C211.462 48.083 208.244 48.6998 204.075 48.6998V52.6998V56.6998C208.974 56.6998 213.355 55.9833 217.07 54.3681L215.475 50.6998ZM204.075 52.6998V48.6998H193.375V52.6998V56.6998H204.075V52.6998ZM193.375 52.6998H189.375V79.2998H193.375H197.375V52.6998H193.375ZM193.375 79.2998V75.2998H183.675V79.2998V83.2998H193.375V79.2998ZM183.675 79.2998H187.675V6.9998H183.675H179.675V79.2998H183.675ZM183.675 6.9998V10.9998H202.875V6.9998V2.9998H183.675V6.9998ZM203.875 43.3998V47.3998C207.11 47.3998 210.101 46.916 212.66 45.7278L210.975 42.0998L209.291 38.4718C208.117 39.0169 206.374 39.3998 203.875 39.3998V43.3998ZM210.975 42.0998L212.612 45.7498C214.988 44.6845 217.051 43.2338 218.599 41.2986L215.475 38.7998L212.352 36.301C211.767 37.0325 210.829 37.7817 209.339 38.4498L210.975 42.0998ZM215.475 38.7998L218.657 41.224C220.005 39.4555 221.004 37.5172 221.615 35.4198L217.775 34.2998L213.935 33.1798C213.614 34.2824 213.08 35.3441 212.294 36.3756L215.475 38.7998ZM217.775 34.2998L221.615 35.4198C222.169 33.523 222.475 31.6428 222.475 29.7998H218.475H214.475C214.475 30.7568 214.315 31.8766 213.935 33.1798L217.775 34.2998ZM218.475 29.7998H222.475C222.475 27.8406 222.118 25.8967 221.453 23.9857L217.675 25.2998L213.897 26.6139C214.299 27.7696 214.475 28.8257 214.475 29.7998H218.475ZM217.675 25.2998L221.515 24.1798C220.883 22.0124 219.803 20.0496 218.323 18.3092L215.275 20.8998L212.228 23.4904C213.015 24.4166 213.534 25.3872 213.835 26.4198L217.675 25.2998ZM215.275 20.8998L218.399 18.401C216.9 16.5269 214.959 15.0784 212.711 13.9958L210.975 17.5998L209.24 21.2038C210.592 21.8546 211.518 22.6061 212.152 23.3986L215.275 20.8998ZM210.975 17.5998L212.764 14.0221C210.332 12.8058 207.546 12.2998 204.575 12.2998V16.2998V20.2998C206.671 20.2998 208.152 20.6604 209.187 21.1775L210.975 17.5998ZM204.575 16.2998V12.2998H193.375V16.2998V20.2998H204.575V16.2998ZM193.375 16.2998H189.375V43.3998H193.375H197.375V16.2998H193.375ZM193.375 43.3998V47.3998H203.875V43.3998V39.3998H193.375V43.3998ZM215.775 48.8998L212.378 51.0118L231.278 81.4118L234.675 79.2998L238.072 77.1879L219.172 46.7878L215.775 48.8998ZM234.675 79.2998V75.2998H223.475V79.2998V83.2998H234.675V79.2998ZM223.475 79.2998L226.848 77.1487L207.648 47.0487L204.275 49.1998L200.903 51.3509L220.103 81.4509L223.475 79.2998ZM204.275 49.1998L204.38 53.1984L215.88 52.8984L215.775 48.8998L215.671 44.9012L204.171 45.2012L204.275 49.1998ZM253.317 6.9998V2.9998H249.317V6.9998H253.317ZM301.317 6.9998H305.317V2.9998H301.317V6.9998ZM301.317 16.2998V20.2998H305.317V16.2998H301.317ZM281.917 16.2998V12.2998H277.917V16.2998H281.917ZM281.917 79.2998V83.2998H285.917V79.2998H281.917ZM272.217 79.2998H268.217V83.2998H272.217V79.2998ZM272.217 16.2998H276.217V12.2998H272.217V16.2998ZM253.317 16.2998H249.317V20.2998H253.317V16.2998ZM253.317 6.9998V10.9998H301.317V6.9998V2.9998H253.317V6.9998ZM301.317 6.9998H297.317V16.2998H301.317H305.317V6.9998H301.317ZM301.317 16.2998V12.2998H281.917V16.2998V20.2998H301.317V16.2998ZM281.917 16.2998H277.917V79.2998H281.917H285.917V16.2998H281.917ZM281.917 79.2998V75.2998H272.217V79.2998V83.2998H281.917V79.2998ZM272.217 79.2998H276.217V16.2998H272.217H268.217V79.2998H272.217ZM272.217 16.2998V12.2998H253.317V16.2998V20.2998H272.217V16.2998ZM253.317 16.2998H257.317V6.9998H253.317H249.317V16.2998H253.317ZM326.722 6.9998V2.9998H322.722V6.9998H326.722ZM373.722 6.9998H377.722V2.9998H373.722V6.9998ZM373.722 16.2998V20.2998H377.722V16.2998H373.722ZM336.422 16.2998V12.2998H332.422V16.2998H336.422ZM336.422 38.2998H332.422V42.2998H336.422V38.2998ZM369.722 38.2998H373.722V34.2998H369.722V38.2998ZM369.722 47.5998V51.5998H373.722V47.5998H369.722ZM336.422 47.5998V43.5998H332.422V47.5998H336.422ZM336.422 69.9998H332.422V73.9998H336.422V69.9998ZM375.122 69.9998H379.122V65.9998H375.122V69.9998ZM375.122 79.2998V83.2998H379.122V79.2998H375.122ZM326.722 79.2998H322.722V83.2998H326.722V79.2998ZM326.722 6.9998V10.9998H373.722V6.9998V2.9998H326.722V6.9998ZM373.722 6.9998H369.722V16.2998H373.722H377.722V6.9998H373.722ZM373.722 16.2998V12.2998H336.422V16.2998V20.2998H373.722V16.2998ZM336.422 16.2998H332.422V38.2998H336.422H340.422V16.2998H336.422ZM336.422 38.2998V42.2998H369.722V38.2998V34.2998H336.422V38.2998ZM369.722 38.2998H365.722V47.5998H369.722H373.722V38.2998H369.722ZM369.722 47.5998V43.5998H336.422V47.5998V51.5998H369.722V47.5998ZM336.422 47.5998H332.422V69.9998H336.422H340.422V47.5998H336.422ZM336.422 69.9998V73.9998H375.122V69.9998V65.9998H336.422V69.9998ZM375.122 69.9998H371.122V79.2998H375.122H379.122V69.9998H375.122ZM375.122 79.2998V75.2998H326.722V79.2998V83.2998H375.122V79.2998ZM326.722 79.2998H330.722V6.9998H326.722H322.722V79.2998H326.722ZM443.597 79.2998H439.597V83.2998H443.597V79.2998ZM443.597 6.9998V2.9998H439.597V6.9998H443.597ZM481.497 10.2998L479.886 13.9611L479.895 13.965L479.904 13.9688L481.497 10.2998ZM493.697 18.9998L496.742 16.4059L496.742 16.4059L493.697 18.9998ZM500.397 30.9998L496.586 32.2126L496.597 32.2475L496.608 32.2822L500.397 30.9998ZM499.697 58.6998L496.044 57.07L496.034 57.0936L496.024 57.1173L499.697 58.6998ZM491.897 69.7998L489.189 66.8561L489.189 66.8561L491.897 69.7998ZM480.397 76.8998L481.802 80.6451L481.817 80.6392L481.833 80.6332L480.397 76.8998ZM453.297 69.9998H449.297V73.9998H453.297V69.9998ZM475.897 68.1998L474.566 64.4278L474.554 64.432L474.542 64.4363L475.897 68.1998ZM484.697 62.9998L482.03 60.0188L482.01 60.0365L481.991 60.0545L484.697 62.9998ZM490.597 54.6998L494.274 56.2755L494.28 56.2621L494.285 56.2487L490.597 54.6998ZM490.497 31.6998L486.824 33.2842L486.83 33.2975L486.836 33.3108L490.497 31.6998ZM484.497 23.1998L487.164 20.2188L487.164 20.2188L484.497 23.1998ZM475.897 18.0998L474.493 21.8451L474.527 21.858L474.562 21.8703L475.897 18.0998ZM453.297 16.2998V12.2998H449.297V16.2998H453.297ZM443.597 79.2998H447.597V6.9998H443.597H439.597V79.2998H443.597ZM443.597 6.9998V10.9998H463.297V6.9998V2.9998H443.597V6.9998ZM463.297 6.9998V10.9998C470.038 10.9998 475.524 12.0416 479.886 13.9611L481.497 10.2998L483.108 6.63854C477.471 4.15802 470.823 2.9998 463.297 2.9998V6.9998ZM481.497 10.2998L479.904 13.9688C484.505 15.9665 488.043 18.5301 490.652 21.5937L493.697 18.9998L496.742 16.4059C493.219 12.2696 488.623 9.03306 483.09 6.63075L481.497 10.2998ZM493.697 18.9998L490.652 21.5937C493.383 24.7989 495.351 28.3318 496.586 32.2126L500.397 30.9998L504.209 29.787C502.644 24.8678 500.145 20.4007 496.742 16.4059L493.697 18.9998ZM500.397 30.9998L496.608 32.2822C497.943 36.2256 498.597 40.1264 498.597 43.9998H502.597H506.597C506.597 39.2066 505.785 34.4407 504.186 29.7174L500.397 30.9998ZM502.597 43.9998H498.597C498.597 48.9898 497.717 53.3219 496.044 57.07L499.697 58.6998L503.35 60.3296C505.545 55.4111 506.597 49.9431 506.597 43.9998H502.597ZM499.697 58.6998L496.024 57.1173C494.37 60.9561 492.091 64.1862 489.189 66.8561L491.897 69.7998L494.605 72.7435C498.37 69.2801 501.291 65.1102 503.371 60.2823L499.697 58.6998ZM491.897 69.7998L489.189 66.8561C486.236 69.5732 482.837 71.6759 478.961 73.1664L480.397 76.8998L481.833 80.6332C486.625 78.7904 490.892 76.1598 494.605 72.7435L491.897 69.7998ZM480.397 76.8998L478.993 73.1545C475.199 74.5772 471.143 75.2998 466.797 75.2998V79.2998V83.2998C472.051 83.2998 477.062 82.4224 481.802 80.6451L480.397 76.8998ZM466.797 79.2998V75.2998H443.597V79.2998V83.2998H466.797V79.2998ZM453.297 69.9998V73.9998H464.897V69.9998V65.9998H453.297V69.9998ZM464.897 69.9998V73.9998C469.3 73.9998 473.432 73.3386 477.252 71.9634L475.897 68.1998L474.542 64.4363C471.696 65.461 468.494 65.9998 464.897 65.9998V69.9998ZM475.897 68.1998L477.229 71.9718C481.099 70.6058 484.51 68.6046 487.404 65.9451L484.697 62.9998L481.991 60.0545C479.952 61.9284 477.496 63.3938 474.566 64.4278L475.897 68.1998ZM484.697 62.9998L487.364 65.9808C490.353 63.3072 492.655 60.0536 494.274 56.2755L490.597 54.6998L486.921 53.1241C485.74 55.8794 484.109 58.1591 482.03 60.0188L484.697 62.9998ZM490.597 54.6998L494.285 56.2487C495.922 52.3522 496.697 48.0467 496.697 43.3998H492.697H488.697C488.697 47.1529 488.073 50.3807 486.909 53.1509L490.597 54.6998ZM492.697 43.3998H496.697C496.697 38.501 495.893 34.0311 494.159 30.0888L490.497 31.6998L486.836 33.3108C488.035 36.0351 488.697 39.3653 488.697 43.3998H492.697ZM490.497 31.6998L494.17 30.1154C492.494 26.2307 490.168 22.9061 487.164 20.2188L484.497 23.1998L481.83 26.1808C483.893 28.0268 485.567 30.3689 486.824 33.2842L490.497 31.6998ZM484.497 23.1998L487.164 20.2188C484.243 17.6052 480.924 15.6368 477.233 14.3293L475.897 18.0998L474.562 21.8703C477.27 22.8295 479.684 24.261 481.83 26.1808L484.497 23.1998ZM475.897 18.0998L477.302 14.3545C473.637 12.9804 469.794 12.2998 465.797 12.2998V16.2998V20.2998C468.867 20.2998 471.757 20.8192 474.493 21.8451L475.897 18.0998ZM465.797 16.2998V12.2998H453.297V16.2998V20.2998H465.797V16.2998ZM453.297 16.2998H449.297V69.9998H453.297H457.297V16.2998H453.297ZM528.89 6.9998V2.9998H524.89V6.9998H528.89ZM575.89 6.9998H579.89V2.9998H575.89V6.9998ZM575.89 16.2998V20.2998H579.89V16.2998H575.89ZM538.59 16.2998V12.2998H534.59V16.2998H538.59ZM538.59 38.2998H534.59V42.2998H538.59V38.2998ZM571.89 38.2998H575.89V34.2998H571.89V38.2998ZM571.89 47.5998V51.5998H575.89V47.5998H571.89ZM538.59 47.5998V43.5998H534.59V47.5998H538.59ZM538.59 69.9998H534.59V73.9998H538.59V69.9998ZM577.29 69.9998H581.29V65.9998H577.29V69.9998ZM577.29 79.2998V83.2998H581.29V79.2998H577.29ZM528.89 79.2998H524.89V83.2998H528.89V79.2998ZM528.89 6.9998V10.9998H575.89V6.9998V2.9998H528.89V6.9998ZM575.89 6.9998H571.89V16.2998H575.89H579.89V6.9998H575.89ZM575.89 16.2998V12.2998H538.59V16.2998V20.2998H575.89V16.2998ZM538.59 16.2998H534.59V38.2998H538.59H542.59V16.2998H538.59ZM538.59 38.2998V42.2998H571.89V38.2998V34.2998H538.59V38.2998ZM571.89 38.2998H567.89V47.5998H571.89H575.89V38.2998H571.89ZM571.89 47.5998V43.5998H538.59V47.5998V51.5998H571.89V47.5998ZM538.59 47.5998H534.59V69.9998H538.59H542.59V47.5998H538.59ZM538.59 69.9998V73.9998H577.29V69.9998V65.9998H538.59V69.9998ZM577.29 69.9998H573.29V79.2998H577.29H581.29V69.9998H577.29ZM577.29 79.2998V75.2998H528.89V79.2998V83.2998H577.29V79.2998ZM528.89 79.2998H532.89V6.9998H528.89H524.89V79.2998H528.89ZM698.865 73.8998L701.084 77.228L703.967 75.3061L702.476 72.1784L698.865 73.8998ZM693.965 76.5998L695.707 80.2004L695.707 80.2004L693.965 76.5998ZM686.665 79.0998L685.739 75.2086L685.728 75.2111L685.717 75.2137L686.665 79.0998ZM677.665 80.0998L677.618 84.0995L677.641 84.0998H677.665V80.0998ZM662.465 77.0998L660.876 80.7707L660.886 80.775L660.896 80.7792L662.465 77.0998ZM651.065 69.1998L648.151 71.9394L648.151 71.9394L651.065 69.1998ZM643.765 57.6998L640.025 59.1167L640.038 59.1512L640.051 59.1854L643.765 57.6998ZM643.865 28.7998L640.14 27.3422L640.135 27.3567L640.129 27.3713L643.865 28.7998ZM651.365 16.8998L654.251 19.6699L654.264 19.6557L654.278 19.6413L651.365 16.8998ZM662.665 8.9998L661.103 5.31748L661.093 5.32179L661.083 5.32615L662.665 8.9998ZM688.865 7.9998L687.579 11.7873L687.611 11.7983L687.644 11.8087L688.865 7.9998ZM697.965 12.0998L701.635 13.6902L702.997 10.5471L700.101 8.71784L697.965 12.0998ZM694.065 21.0998L691.846 24.428L695.831 27.0846L697.735 22.6902L694.065 21.0998ZM686.765 17.2998L685.19 20.9764L685.205 20.983L685.221 20.9896L686.765 17.2998ZM667.365 17.5998L665.733 13.9478L665.733 13.9478L667.365 17.5998ZM659.065 23.4998L661.969 26.2508L661.969 26.2508L659.065 23.4998ZM653.365 32.3998L649.667 30.8768L649.659 30.8955L649.651 30.9142L653.365 32.3998ZM653.165 54.1998L649.393 55.5311L649.409 55.5761L649.426 55.6207L653.165 54.1998ZM658.465 62.8998L655.52 65.6063L655.539 65.6276L655.559 65.6486L658.465 62.8998ZM666.865 68.6998L668.441 65.0232L668.441 65.0232L666.865 68.6998ZM687.665 69.0998L686.195 65.38L686.195 65.38L687.665 69.0998ZM694.765 65.2998L698.376 63.5784L696.274 59.1686L692.365 62.0998L694.765 65.2998ZM698.865 73.8998L696.646 70.5716C695.661 71.2287 694.209 72.0382 692.223 72.9992L693.965 76.5998L695.707 80.2004C697.855 79.1614 699.67 78.1709 701.084 77.228L698.865 73.8998ZM693.965 76.5998L692.223 72.9992C690.473 73.846 688.325 74.5929 685.739 75.2086L686.665 79.0998L687.592 82.991C690.606 82.2734 693.324 81.3536 695.707 80.2004L693.965 76.5998ZM686.665 79.0998L685.717 75.2137C683.339 75.7937 680.662 76.0998 677.665 76.0998V80.0998V84.0998C681.201 84.0998 684.524 83.7392 687.613 82.9859L686.665 79.0998ZM677.665 80.0998L677.713 76.1001C672.565 76.0388 668.025 75.1224 664.034 73.4204L662.465 77.0998L660.896 80.7792C665.972 82.9439 671.565 84.0275 677.618 84.0995L677.665 80.0998ZM662.465 77.0998L664.054 73.4289C660.056 71.6983 656.716 69.3709 653.98 66.4602L651.065 69.1998L648.151 71.9394C651.681 75.6954 655.941 78.6347 660.876 80.7707L662.465 77.0998ZM651.065 69.1998L653.98 66.4602C651.196 63.4986 649.031 60.0928 647.479 56.2142L643.765 57.6998L640.051 59.1854C641.967 63.9734 644.668 68.2343 648.151 71.9394L651.065 69.1998ZM643.765 57.6998L647.506 56.2829C646.019 52.3573 645.265 48.1728 645.265 43.6998H641.265H637.265C637.265 49.0935 638.178 54.2423 640.025 59.1167L643.765 57.6998ZM641.265 43.6998H645.265C645.265 38.7333 646.061 34.2571 647.601 30.2284L643.865 28.7998L640.129 27.3713C638.203 32.4092 637.265 37.8663 637.265 43.6998H641.265ZM643.865 28.7998L647.59 30.2574C649.212 26.1116 651.438 22.5995 654.251 19.6699L651.365 16.8998L648.48 14.1297C644.892 17.8668 642.118 22.288 640.14 27.3422L643.865 28.7998ZM651.365 16.8998L654.278 19.6413C657.099 16.644 660.411 14.326 664.248 12.6735L662.665 8.9998L661.083 5.32615C656.252 7.40694 652.031 10.3556 648.452 14.1583L651.365 16.8998ZM662.665 8.9998L664.227 12.6821C668.091 11.0429 672.354 10.1998 677.065 10.1998V6.1998V2.1998C671.376 2.1998 666.039 3.22335 661.103 5.31748L662.665 8.9998ZM677.065 6.1998V10.1998C681.03 10.1998 684.521 10.7486 687.579 11.7873L688.865 7.9998L690.152 4.21227C686.143 2.85096 681.767 2.1998 677.065 2.1998V6.1998ZM688.865 7.9998L687.644 11.8087C690.928 12.8623 693.64 14.0989 695.829 15.4818L697.965 12.0998L700.101 8.71784C697.224 6.90072 693.869 5.40399 690.087 4.19094L688.865 7.9998ZM697.965 12.0998L694.295 10.5094L690.395 19.5094L694.065 21.0998L697.735 22.6902L701.635 13.6902L697.965 12.0998ZM694.065 21.0998L696.284 17.7716C694.02 16.2623 691.348 14.8817 688.31 13.61L686.765 17.2998L685.221 20.9896C687.916 22.1179 690.11 23.2706 691.846 24.428L694.065 21.0998ZM686.765 17.2998L688.341 13.6232C684.979 12.1823 681.299 11.4998 677.365 11.4998V15.4998V19.4998C680.365 19.4998 682.952 20.0173 685.19 20.9764L686.765 17.2998ZM677.365 15.4998V11.4998C673.287 11.4998 669.396 12.3115 665.733 13.9478L667.365 17.5998L668.997 21.2518C671.602 20.0881 674.377 19.4998 677.365 19.4998V15.4998ZM667.365 17.5998L665.733 13.9478C662.113 15.5655 658.916 17.8412 656.161 20.7488L659.065 23.4998L661.969 26.2508C664.014 24.0917 666.351 22.4341 668.997 21.2518L667.365 17.5998ZM659.065 23.4998L656.161 20.7488C653.405 23.658 651.244 27.0468 649.667 30.8768L653.365 32.3998L657.064 33.9228C658.287 30.9528 659.925 28.4082 661.969 26.2508L659.065 23.4998ZM653.365 32.3998L649.651 30.9142C648.115 34.7554 647.365 38.8638 647.365 43.1998H651.365H655.365C655.365 39.8025 655.949 36.7109 657.079 33.8854L653.365 32.3998ZM651.365 43.1998H647.365C647.365 47.5454 648.029 51.6663 649.393 55.5311L653.165 54.1998L656.937 52.8685C655.901 49.9333 655.365 46.7208 655.365 43.1998H651.365ZM653.165 54.1998L649.426 55.6207C650.862 59.3981 652.888 62.7418 655.52 65.6063L658.465 62.8998L661.411 60.1933C659.509 58.1245 658.002 55.6681 656.904 52.7789L653.165 54.1998ZM658.465 62.8998L655.559 65.6486C658.286 68.5306 661.545 70.7715 665.29 72.3764L666.865 68.6998L668.441 65.0232C665.652 63.8282 663.312 62.2023 661.371 60.151L658.465 62.8998ZM666.865 68.6998L665.29 72.3764C669.121 74.0184 673.335 74.7998 677.865 74.7998V70.7998V66.7998C674.263 66.7998 671.143 66.1812 668.441 65.0232L666.865 68.6998ZM677.865 70.7998V74.7998C681.942 74.7998 685.721 74.1696 689.136 72.8196L687.665 69.0998L686.195 65.38C683.876 66.2967 681.122 66.7998 677.865 66.7998V70.7998ZM687.665 69.0998L689.136 72.8196C692.235 71.5945 694.939 70.1696 697.165 68.4998L694.765 65.2998L692.365 62.0998C690.858 63.23 688.829 64.3384 686.195 65.38L687.665 69.0998ZM694.765 65.2998L691.155 67.0212L695.255 75.6212L698.865 73.8998L702.476 72.1784L698.376 63.5784L694.765 65.2998ZM717.999 79.2998L714.31 77.752L711.982 83.2998H717.999V79.2998ZM749.599 3.9998V-0.000197411H746.94L745.91 2.45196L749.599 3.9998ZM750.199 3.9998L753.889 2.45612L752.861 -0.000197411H750.199V3.9998ZM781.699 79.2998V83.2998H787.708L785.389 77.7561L781.699 79.2998ZM770.599 79.2998L766.876 80.7618L767.872 83.2998H770.599V79.2998ZM746.999 19.1998L744.814 15.8494L742.085 17.6292L743.276 20.6618L746.999 19.1998ZM753.899 14.6998L757.602 16.213L762.451 4.34689L751.714 11.3494L753.899 14.6998ZM727.499 79.2998V83.2998H730.185L731.202 80.813L727.499 79.2998ZM736.499 51.8998V47.8998H733.616L732.704 50.6349L736.499 51.8998ZM763.399 51.8998L767.137 50.4758L766.155 47.8998H763.399V51.8998ZM766.599 60.2998V64.2998H772.403L770.337 58.8758L766.599 60.2998ZM733.699 60.2998L729.904 59.0349L728.149 64.2998H733.699V60.2998ZM717.999 79.2998L721.687 80.8477L753.287 5.54765L749.599 3.9998L745.91 2.45196L714.31 77.752L717.999 79.2998ZM749.599 3.9998V7.9998H750.199V3.9998V-0.000197411H749.599V3.9998ZM750.199 3.9998L746.509 5.54348L778.009 80.8435L781.699 79.2998L785.389 77.7561L753.889 2.45612L750.199 3.9998ZM781.699 79.2998V75.2998H770.599V79.2998V83.2998H781.699V79.2998ZM770.599 79.2998L774.322 77.8378L750.722 17.7378L746.999 19.1998L743.276 20.6618L766.876 80.7618L770.599 79.2998ZM746.999 19.1998L749.184 22.5502L756.084 18.0502L753.899 14.6998L751.714 11.3494L744.814 15.8494L746.999 19.1998ZM753.899 14.6998L750.196 13.1866L723.796 77.7866L727.499 79.2998L731.202 80.813L757.602 16.213L753.899 14.6998ZM727.499 79.2998V75.2998H717.999V79.2998V83.2998H727.499V79.2998ZM736.499 51.8998V55.8998H763.399V51.8998V47.8998H736.499V51.8998ZM763.399 51.8998L759.661 53.3238L762.861 61.7238L766.599 60.2998L770.337 58.8758L767.137 50.4758L763.399 51.8998ZM766.599 60.2998V56.2998H733.699V60.2998V64.2998H766.599V60.2998ZM733.699 60.2998L737.494 61.5647L740.294 53.1647L736.499 51.8998L732.704 50.6349L729.904 59.0349L733.699 60.2998ZM817.616 81.1998L814.109 79.2765L814.097 79.2984L814.085 79.3204L817.616 81.1998ZM808.516 90.5998L806.584 87.0975L806.561 87.1102L806.538 87.1232L808.516 90.5998ZM795.216 94.1998H791.216V98.363L795.376 98.1966L795.216 94.1998ZM795.216 84.7998L794.988 80.8063L791.216 81.0219V84.7998H795.216ZM806.716 79.7998L803.919 76.9405L803.887 76.9712L803.857 77.0026L806.716 79.7998ZM811.316 6.9998V2.9998H807.316V6.9998H811.316ZM821.016 6.9998H825.016V2.9998H821.016V6.9998ZM821.016 66.1998H817.016C817.016 71.5561 815.982 75.86 814.109 79.2765L817.616 81.1998L821.123 83.1231C823.783 78.273 825.016 72.5768 825.016 66.1998H821.016ZM817.616 81.1998L814.085 79.3204C812.226 82.8126 809.73 85.3618 806.584 87.0975L808.516 90.5998L810.448 94.1021C815.036 91.5712 818.606 87.8537 821.147 83.0792L817.616 81.1998ZM808.516 90.5998L806.538 87.1232C803.293 88.9693 799.498 90.0253 795.056 90.203L795.216 94.1998L795.376 98.1966C800.934 97.9743 806.005 96.6303 810.494 94.0765L808.516 90.5998ZM795.216 94.1998H799.216V84.7998H795.216H791.216V94.1998H795.216ZM795.216 84.7998L795.444 88.7933C801.01 88.4753 805.813 86.4429 809.575 82.597L806.716 79.7998L803.857 77.0026C801.619 79.2901 798.756 80.591 794.988 80.8063L795.216 84.7998ZM806.716 79.7998L809.513 82.6591C813.644 78.6186 815.316 72.7458 815.316 65.8998H811.316H807.316C807.316 71.5872 805.922 74.981 803.919 76.9405L806.716 79.7998ZM811.316 65.8998H815.316V6.9998H811.316H807.316V65.8998H811.316ZM811.316 6.9998V10.9998H821.016V6.9998V2.9998H811.316V6.9998ZM821.016 6.9998H817.016V66.1998H821.016H825.016V6.9998H821.016ZM843.37 79.2998L839.682 77.752L837.353 83.2998H843.37V79.2998ZM874.97 3.9998V-0.000197411H872.311L871.282 2.45196L874.97 3.9998ZM875.57 3.9998L879.26 2.45612L878.233 -0.000197411H875.57V3.9998ZM907.07 79.2998V83.2998H913.079L910.76 77.7561L907.07 79.2998ZM895.97 79.2998L892.247 80.7618L893.243 83.2998H895.97V79.2998ZM872.37 19.1998L870.185 15.8494L867.456 17.6292L868.647 20.6618L872.37 19.1998ZM879.27 14.6998L882.973 16.213L887.822 4.34689L877.085 11.3494L879.27 14.6998ZM852.87 79.2998V83.2998H855.556L856.573 80.813L852.87 79.2998ZM861.87 51.8998V47.8998H858.987L858.075 50.6349L861.87 51.8998ZM888.77 51.8998L892.508 50.4758L891.527 47.8998H888.77V51.8998ZM891.97 60.2998V64.2998H897.774L895.708 58.8758L891.97 60.2998ZM859.07 60.2998L855.275 59.0349L853.52 64.2998H859.07V60.2998ZM843.37 79.2998L847.058 80.8477L878.658 5.54765L874.97 3.9998L871.282 2.45196L839.682 77.752L843.37 79.2998ZM874.97 3.9998V7.9998H875.57V3.9998V-0.000197411H874.97V3.9998ZM875.57 3.9998L871.88 5.54348L903.38 80.8435L907.07 79.2998L910.76 77.7561L879.26 2.45612L875.57 3.9998ZM907.07 79.2998V75.2998H895.97V79.2998V83.2998H907.07V79.2998ZM895.97 79.2998L899.693 77.8378L876.093 17.7378L872.37 19.1998L868.647 20.6618L892.247 80.7618L895.97 79.2998ZM872.37 19.1998L874.555 22.5502L881.455 18.0502L879.27 14.6998L877.085 11.3494L870.185 15.8494L872.37 19.1998ZM879.27 14.6998L875.567 13.1866L849.167 77.7866L852.87 79.2998L856.573 80.813L882.973 16.213L879.27 14.6998ZM852.87 79.2998V75.2998H843.37V79.2998V83.2998H852.87V79.2998ZM861.87 51.8998V55.8998H888.77V51.8998V47.8998H861.87V51.8998ZM888.77 51.8998L885.032 53.3238L888.232 61.7238L891.97 60.2998L895.708 58.8758L892.508 50.4758L888.77 51.8998ZM891.97 60.2998V56.2998H859.07V60.2998V64.2998H891.97V60.2998ZM859.07 60.2998L862.865 61.5647L865.665 53.1647L861.87 51.8998L858.075 50.6349L855.275 59.0349L859.07 60.2998Z" fill="#12274B" mask="url(#path-1-outside-1_188_435)"/>
</svg>
