<svg width="900" height="91" viewBox="0 0 900 91" fill="none" xmlns="http://www.w3.org/2000/svg">
<mask id="path-1-outside-1_140_525" maskUnits="userSpaceOnUse" x="-0.587891" y="-0.900391" width="901" height="92" fill="black">
<rect fill="white" x="-0.587891" y="-0.900391" width="901" height="92"/>
<path d="M23.2996 4.7996C28.5663 4.7996 33.0663 5.6996 36.7996 7.49961C40.5329 9.23294 43.3996 11.7663 45.3996 15.0996C47.4663 18.4329 48.4996 22.4663 48.4996 27.1996C48.4996 30.0663 48.0663 32.8996 47.1996 35.6996C46.3329 38.4329 44.9329 40.9329 42.9996 43.1996C41.1329 45.3996 38.6663 47.1663 35.5996 48.4996C32.5329 49.8329 28.7996 50.4996 24.3996 50.4996H13.6996V77.0996H3.99961V4.7996H23.2996ZM24.2996 41.1996C27.1663 41.1996 29.5329 40.7329 31.3996 39.7996C33.2663 38.8663 34.7329 37.6996 35.7996 36.2996C36.8663 34.8329 37.6329 33.2996 38.0996 31.6996C38.5663 30.0996 38.7996 28.6663 38.7996 27.3996C38.7996 25.9329 38.5663 24.4329 38.0996 22.8996C37.6329 21.2996 36.8329 19.8663 35.6996 18.5996C34.6329 17.2663 33.1996 16.1996 31.3996 15.3996C29.6663 14.5329 27.4996 14.0996 24.8996 14.0996H13.6996V41.1996H24.2996ZM97.6723 4.7996C101.339 4.7996 104.706 5.29961 107.772 6.29961C110.906 7.23294 113.606 8.66627 115.872 10.5996C118.206 12.4663 120.006 14.7996 121.272 17.5996C122.606 20.3329 123.272 23.5329 123.272 27.1996C123.272 30.0663 122.839 32.8663 121.972 35.5996C121.172 38.3329 119.806 40.8329 117.872 43.0996C115.939 45.2996 113.406 47.0996 110.272 48.4996C107.206 49.8329 103.406 50.4996 98.8723 50.4996H88.1723V77.0996H78.4723V4.7996H97.6723ZM98.6723 41.1996C101.539 41.1996 103.906 40.7663 105.772 39.8996C107.706 39.0329 109.206 37.9329 110.272 36.5996C111.339 35.1996 112.106 33.6996 112.572 32.0996C113.039 30.4996 113.272 28.9996 113.272 27.5996C113.272 26.1329 113.006 24.6329 112.472 23.0996C112.006 21.4996 111.206 20.0329 110.072 18.6996C109.006 17.3663 107.572 16.2663 105.772 15.3996C104.039 14.5329 101.906 14.0996 99.3723 14.0996H88.1723V41.1996H98.6723ZM110.572 46.6996L129.472 77.0996H118.272L99.0723 46.9996L110.572 46.6996ZM153.328 40.9996C153.328 35.9996 154.261 31.2996 156.128 26.8996C158.061 22.4329 160.728 18.4996 164.128 15.0996C167.528 11.6329 171.428 8.93294 175.828 6.99961C180.294 4.99961 185.094 3.99961 190.228 3.99961C195.294 3.99961 200.028 4.99961 204.428 6.99961C208.894 8.93294 212.828 11.6329 216.228 15.0996C219.694 18.4996 222.394 22.4329 224.328 26.8996C226.261 31.2996 227.228 35.9996 227.228 40.9996C227.228 46.1329 226.261 50.9329 224.328 55.3996C222.394 59.8663 219.694 63.7996 216.228 67.1996C212.828 70.5329 208.894 73.1663 204.428 75.0996C200.028 76.9663 195.294 77.8996 190.228 77.8996C185.094 77.8996 180.294 76.9663 175.828 75.0996C171.428 73.2329 167.528 70.6329 164.128 67.2996C160.728 63.9663 158.061 60.0663 156.128 55.5996C154.261 51.1329 153.328 46.2663 153.328 40.9996ZM163.328 41.0996C163.328 44.8996 164.028 48.4663 165.428 51.7996C166.828 55.0663 168.761 57.9663 171.228 60.4996C173.694 63.0329 176.561 65.0329 179.828 66.4996C183.094 67.8996 186.628 68.5996 190.428 68.5996C194.161 68.5996 197.661 67.8996 200.928 66.4996C204.194 65.0329 207.028 63.0329 209.428 60.4996C211.828 57.9663 213.728 55.0663 215.128 51.7996C216.528 48.4663 217.228 44.8663 217.228 40.9996C217.228 37.1996 216.528 33.6329 215.128 30.2996C213.728 26.8996 211.794 23.9329 209.328 21.3996C206.861 18.8663 203.994 16.8996 200.728 15.4996C197.461 14.0329 193.961 13.2996 190.228 13.2996C186.428 13.2996 182.894 14.0329 179.628 15.4996C176.361 16.9663 173.494 18.9663 171.028 21.4996C168.561 24.0329 166.661 26.9996 165.328 30.3996C163.994 33.7329 163.328 37.2996 163.328 41.0996ZM259.278 4.7996L283.078 64.5996L277.578 63.4996L300.178 4.7996H311.478L279.578 80.3996L247.778 4.7996H259.278ZM340.953 4.7996H387.953V14.0996H350.653V36.0996H383.953V45.3996H350.653V67.7996H389.353V77.0996H340.953V4.7996ZM421.187 4.7996H468.187V14.0996H430.887V36.0996H464.187V45.3996H430.887V67.7996H469.587V77.0996H421.187V4.7996ZM501.421 77.0996V4.7996H521.121C528.255 4.7996 534.321 5.8996 539.321 8.0996C544.388 10.2996 548.455 13.1996 551.521 16.7996C554.588 20.3996 556.821 24.3996 558.221 28.7996C559.688 33.1329 560.421 37.4663 560.421 41.7996C560.421 47.2663 559.455 52.1663 557.521 56.4996C555.655 60.8329 553.055 64.5329 549.721 67.5996C546.388 70.6663 542.555 73.0329 538.221 74.6996C533.955 76.2996 529.421 77.0996 524.621 77.0996H501.421ZM511.121 67.7996H522.721C526.721 67.7996 530.388 67.1996 533.721 65.9996C537.121 64.7996 540.055 63.0663 542.521 60.7996C545.055 58.5329 547.021 55.7663 548.421 52.4996C549.821 49.1663 550.521 45.3996 550.521 41.1996C550.521 36.7329 549.788 32.8329 548.321 29.4996C546.855 26.0996 544.855 23.2663 542.321 20.9996C539.788 18.7329 536.921 17.0329 533.721 15.8996C530.521 14.6996 527.155 14.0996 523.621 14.0996H511.121V67.7996ZM587.214 40.9996C587.214 35.9996 588.148 31.2996 590.014 26.8996C591.948 22.4329 594.614 18.4996 598.014 15.0996C601.414 11.6329 605.314 8.93294 609.714 6.99961C614.181 4.99961 618.981 3.99961 624.114 3.99961C629.181 3.99961 633.914 4.99961 638.314 6.99961C642.781 8.93294 646.714 11.6329 650.114 15.0996C653.581 18.4996 656.281 22.4329 658.214 26.8996C660.148 31.2996 661.114 35.9996 661.114 40.9996C661.114 46.1329 660.148 50.9329 658.214 55.3996C656.281 59.8663 653.581 63.7996 650.114 67.1996C646.714 70.5329 642.781 73.1663 638.314 75.0996C633.914 76.9663 629.181 77.8996 624.114 77.8996C618.981 77.8996 614.181 76.9663 609.714 75.0996C605.314 73.2329 601.414 70.6329 598.014 67.2996C594.614 63.9663 591.948 60.0663 590.014 55.5996C588.148 51.1329 587.214 46.2663 587.214 40.9996ZM597.214 41.0996C597.214 44.8996 597.914 48.4663 599.314 51.7996C600.714 55.0663 602.648 57.9663 605.114 60.4996C607.581 63.0329 610.448 65.0329 613.714 66.4996C616.981 67.8996 620.514 68.5996 624.314 68.5996C628.048 68.5996 631.548 67.8996 634.814 66.4996C638.081 65.0329 640.914 63.0329 643.314 60.4996C645.714 57.9663 647.614 55.0663 649.014 51.7996C650.414 48.4663 651.114 44.8663 651.114 40.9996C651.114 37.1996 650.414 33.6329 649.014 30.2996C647.614 26.8996 645.681 23.9329 643.214 21.3996C640.748 18.8663 637.881 16.8996 634.614 15.4996C631.348 14.0329 627.848 13.2996 624.114 13.2996C620.314 13.2996 616.781 14.0329 613.514 15.4996C610.248 16.9663 607.381 18.9663 604.914 21.4996C602.448 24.0329 600.548 26.9996 599.214 30.3996C597.881 33.7329 597.214 37.2996 597.214 41.0996ZM711.657 4.7996C715.323 4.7996 718.69 5.29961 721.757 6.29961C724.89 7.23294 727.59 8.66627 729.857 10.5996C732.19 12.4663 733.99 14.7996 735.257 17.5996C736.59 20.3329 737.257 23.5329 737.257 27.1996C737.257 30.0663 736.823 32.8663 735.957 35.5996C735.157 38.3329 733.79 40.8329 731.857 43.0996C729.923 45.2996 727.39 47.0996 724.257 48.4996C721.19 49.8329 717.39 50.4996 712.857 50.4996H702.157V77.0996H692.457V4.7996H711.657ZM712.657 41.1996C715.523 41.1996 717.89 40.7663 719.757 39.8996C721.69 39.0329 723.19 37.9329 724.257 36.5996C725.323 35.1996 726.09 33.6996 726.557 32.0996C727.023 30.4996 727.257 28.9996 727.257 27.5996C727.257 26.1329 726.99 24.6329 726.457 23.0996C725.99 21.4996 725.19 20.0329 724.057 18.6996C722.99 17.3663 721.557 16.2663 719.757 15.3996C718.023 14.5329 715.89 14.0996 713.357 14.0996H702.157V41.1996H712.657ZM724.557 46.6996L743.457 77.0996H732.257L713.057 46.9996L724.557 46.6996ZM773.375 4.7996H820.375V14.0996H783.075V36.0996H816.375V45.3996H783.075V67.7996H821.775V77.0996H773.375V4.7996ZM891.009 17.6996C888.542 16.4329 885.842 15.3329 882.909 14.3996C879.976 13.4663 877.109 12.9996 874.309 12.9996C870.442 12.9996 867.342 13.8996 865.009 15.6996C862.742 17.4996 861.609 19.8996 861.609 22.8996C861.609 25.1663 862.342 27.0996 863.809 28.6996C865.276 30.2329 867.209 31.5663 869.609 32.6996C872.009 33.8329 874.509 34.8996 877.109 35.8996C879.376 36.7663 881.609 37.7329 883.809 38.7996C886.009 39.8663 887.976 41.1996 889.709 42.7996C891.509 44.3996 892.909 46.3663 893.909 48.6996C894.976 51.0329 895.509 53.9329 895.509 57.3996C895.509 61.1996 894.542 64.6663 892.609 67.7996C890.742 70.9329 888.042 73.3996 884.509 75.1996C880.976 76.9996 876.776 77.8996 871.909 77.8996C868.709 77.8996 865.642 77.5329 862.709 76.7996C859.842 76.0663 857.176 75.1329 854.709 73.9996C852.242 72.7996 850.042 71.5663 848.109 70.2996L852.409 62.6996C854.009 63.8329 855.842 64.9329 857.909 65.9996C859.976 66.9996 862.142 67.8329 864.409 68.4996C866.676 69.0996 868.876 69.3996 871.009 69.3996C873.276 69.3996 875.509 68.9996 877.709 68.1996C879.976 67.3329 881.842 66.0329 883.309 64.2996C884.776 62.5663 885.509 60.2663 885.509 57.3996C885.509 54.9329 884.842 52.8996 883.509 51.2996C882.242 49.6329 880.542 48.2329 878.409 47.0996C876.276 45.8996 874.009 44.8329 871.609 43.8996C869.342 43.0329 867.042 42.0996 864.709 41.0996C862.376 40.0329 860.209 38.7663 858.209 37.2996C856.209 35.7663 854.609 33.8996 853.409 31.6996C852.209 29.4996 851.609 26.8329 851.609 23.6996C851.609 19.8996 852.509 16.5996 854.309 13.7996C856.176 10.9329 858.709 8.6996 861.909 7.0996C865.109 5.43294 868.776 4.53294 872.909 4.3996C877.576 4.3996 881.676 4.96627 885.209 6.09961C888.809 7.23294 891.976 8.63294 894.709 10.2996L891.009 17.6996Z"/>
</mask>
<path d="M23.2996 4.7996C28.5663 4.7996 33.0663 5.6996 36.7996 7.49961C40.5329 9.23294 43.3996 11.7663 45.3996 15.0996C47.4663 18.4329 48.4996 22.4663 48.4996 27.1996C48.4996 30.0663 48.0663 32.8996 47.1996 35.6996C46.3329 38.4329 44.9329 40.9329 42.9996 43.1996C41.1329 45.3996 38.6663 47.1663 35.5996 48.4996C32.5329 49.8329 28.7996 50.4996 24.3996 50.4996H13.6996V77.0996H3.99961V4.7996H23.2996ZM24.2996 41.1996C27.1663 41.1996 29.5329 40.7329 31.3996 39.7996C33.2663 38.8663 34.7329 37.6996 35.7996 36.2996C36.8663 34.8329 37.6329 33.2996 38.0996 31.6996C38.5663 30.0996 38.7996 28.6663 38.7996 27.3996C38.7996 25.9329 38.5663 24.4329 38.0996 22.8996C37.6329 21.2996 36.8329 19.8663 35.6996 18.5996C34.6329 17.2663 33.1996 16.1996 31.3996 15.3996C29.6663 14.5329 27.4996 14.0996 24.8996 14.0996H13.6996V41.1996H24.2996ZM97.6723 4.7996C101.339 4.7996 104.706 5.29961 107.772 6.29961C110.906 7.23294 113.606 8.66627 115.872 10.5996C118.206 12.4663 120.006 14.7996 121.272 17.5996C122.606 20.3329 123.272 23.5329 123.272 27.1996C123.272 30.0663 122.839 32.8663 121.972 35.5996C121.172 38.3329 119.806 40.8329 117.872 43.0996C115.939 45.2996 113.406 47.0996 110.272 48.4996C107.206 49.8329 103.406 50.4996 98.8723 50.4996H88.1723V77.0996H78.4723V4.7996H97.6723ZM98.6723 41.1996C101.539 41.1996 103.906 40.7663 105.772 39.8996C107.706 39.0329 109.206 37.9329 110.272 36.5996C111.339 35.1996 112.106 33.6996 112.572 32.0996C113.039 30.4996 113.272 28.9996 113.272 27.5996C113.272 26.1329 113.006 24.6329 112.472 23.0996C112.006 21.4996 111.206 20.0329 110.072 18.6996C109.006 17.3663 107.572 16.2663 105.772 15.3996C104.039 14.5329 101.906 14.0996 99.3723 14.0996H88.1723V41.1996H98.6723ZM110.572 46.6996L129.472 77.0996H118.272L99.0723 46.9996L110.572 46.6996ZM153.328 40.9996C153.328 35.9996 154.261 31.2996 156.128 26.8996C158.061 22.4329 160.728 18.4996 164.128 15.0996C167.528 11.6329 171.428 8.93294 175.828 6.99961C180.294 4.99961 185.094 3.99961 190.228 3.99961C195.294 3.99961 200.028 4.99961 204.428 6.99961C208.894 8.93294 212.828 11.6329 216.228 15.0996C219.694 18.4996 222.394 22.4329 224.328 26.8996C226.261 31.2996 227.228 35.9996 227.228 40.9996C227.228 46.1329 226.261 50.9329 224.328 55.3996C222.394 59.8663 219.694 63.7996 216.228 67.1996C212.828 70.5329 208.894 73.1663 204.428 75.0996C200.028 76.9663 195.294 77.8996 190.228 77.8996C185.094 77.8996 180.294 76.9663 175.828 75.0996C171.428 73.2329 167.528 70.6329 164.128 67.2996C160.728 63.9663 158.061 60.0663 156.128 55.5996C154.261 51.1329 153.328 46.2663 153.328 40.9996ZM163.328 41.0996C163.328 44.8996 164.028 48.4663 165.428 51.7996C166.828 55.0663 168.761 57.9663 171.228 60.4996C173.694 63.0329 176.561 65.0329 179.828 66.4996C183.094 67.8996 186.628 68.5996 190.428 68.5996C194.161 68.5996 197.661 67.8996 200.928 66.4996C204.194 65.0329 207.028 63.0329 209.428 60.4996C211.828 57.9663 213.728 55.0663 215.128 51.7996C216.528 48.4663 217.228 44.8663 217.228 40.9996C217.228 37.1996 216.528 33.6329 215.128 30.2996C213.728 26.8996 211.794 23.9329 209.328 21.3996C206.861 18.8663 203.994 16.8996 200.728 15.4996C197.461 14.0329 193.961 13.2996 190.228 13.2996C186.428 13.2996 182.894 14.0329 179.628 15.4996C176.361 16.9663 173.494 18.9663 171.028 21.4996C168.561 24.0329 166.661 26.9996 165.328 30.3996C163.994 33.7329 163.328 37.2996 163.328 41.0996ZM259.278 4.7996L283.078 64.5996L277.578 63.4996L300.178 4.7996H311.478L279.578 80.3996L247.778 4.7996H259.278ZM340.953 4.7996H387.953V14.0996H350.653V36.0996H383.953V45.3996H350.653V67.7996H389.353V77.0996H340.953V4.7996ZM421.187 4.7996H468.187V14.0996H430.887V36.0996H464.187V45.3996H430.887V67.7996H469.587V77.0996H421.187V4.7996ZM501.421 77.0996V4.7996H521.121C528.255 4.7996 534.321 5.8996 539.321 8.0996C544.388 10.2996 548.455 13.1996 551.521 16.7996C554.588 20.3996 556.821 24.3996 558.221 28.7996C559.688 33.1329 560.421 37.4663 560.421 41.7996C560.421 47.2663 559.455 52.1663 557.521 56.4996C555.655 60.8329 553.055 64.5329 549.721 67.5996C546.388 70.6663 542.555 73.0329 538.221 74.6996C533.955 76.2996 529.421 77.0996 524.621 77.0996H501.421ZM511.121 67.7996H522.721C526.721 67.7996 530.388 67.1996 533.721 65.9996C537.121 64.7996 540.055 63.0663 542.521 60.7996C545.055 58.5329 547.021 55.7663 548.421 52.4996C549.821 49.1663 550.521 45.3996 550.521 41.1996C550.521 36.7329 549.788 32.8329 548.321 29.4996C546.855 26.0996 544.855 23.2663 542.321 20.9996C539.788 18.7329 536.921 17.0329 533.721 15.8996C530.521 14.6996 527.155 14.0996 523.621 14.0996H511.121V67.7996ZM587.214 40.9996C587.214 35.9996 588.148 31.2996 590.014 26.8996C591.948 22.4329 594.614 18.4996 598.014 15.0996C601.414 11.6329 605.314 8.93294 609.714 6.99961C614.181 4.99961 618.981 3.99961 624.114 3.99961C629.181 3.99961 633.914 4.99961 638.314 6.99961C642.781 8.93294 646.714 11.6329 650.114 15.0996C653.581 18.4996 656.281 22.4329 658.214 26.8996C660.148 31.2996 661.114 35.9996 661.114 40.9996C661.114 46.1329 660.148 50.9329 658.214 55.3996C656.281 59.8663 653.581 63.7996 650.114 67.1996C646.714 70.5329 642.781 73.1663 638.314 75.0996C633.914 76.9663 629.181 77.8996 624.114 77.8996C618.981 77.8996 614.181 76.9663 609.714 75.0996C605.314 73.2329 601.414 70.6329 598.014 67.2996C594.614 63.9663 591.948 60.0663 590.014 55.5996C588.148 51.1329 587.214 46.2663 587.214 40.9996ZM597.214 41.0996C597.214 44.8996 597.914 48.4663 599.314 51.7996C600.714 55.0663 602.648 57.9663 605.114 60.4996C607.581 63.0329 610.448 65.0329 613.714 66.4996C616.981 67.8996 620.514 68.5996 624.314 68.5996C628.048 68.5996 631.548 67.8996 634.814 66.4996C638.081 65.0329 640.914 63.0329 643.314 60.4996C645.714 57.9663 647.614 55.0663 649.014 51.7996C650.414 48.4663 651.114 44.8663 651.114 40.9996C651.114 37.1996 650.414 33.6329 649.014 30.2996C647.614 26.8996 645.681 23.9329 643.214 21.3996C640.748 18.8663 637.881 16.8996 634.614 15.4996C631.348 14.0329 627.848 13.2996 624.114 13.2996C620.314 13.2996 616.781 14.0329 613.514 15.4996C610.248 16.9663 607.381 18.9663 604.914 21.4996C602.448 24.0329 600.548 26.9996 599.214 30.3996C597.881 33.7329 597.214 37.2996 597.214 41.0996ZM711.657 4.7996C715.323 4.7996 718.69 5.29961 721.757 6.29961C724.89 7.23294 727.59 8.66627 729.857 10.5996C732.19 12.4663 733.99 14.7996 735.257 17.5996C736.59 20.3329 737.257 23.5329 737.257 27.1996C737.257 30.0663 736.823 32.8663 735.957 35.5996C735.157 38.3329 733.79 40.8329 731.857 43.0996C729.923 45.2996 727.39 47.0996 724.257 48.4996C721.19 49.8329 717.39 50.4996 712.857 50.4996H702.157V77.0996H692.457V4.7996H711.657ZM712.657 41.1996C715.523 41.1996 717.89 40.7663 719.757 39.8996C721.69 39.0329 723.19 37.9329 724.257 36.5996C725.323 35.1996 726.09 33.6996 726.557 32.0996C727.023 30.4996 727.257 28.9996 727.257 27.5996C727.257 26.1329 726.99 24.6329 726.457 23.0996C725.99 21.4996 725.19 20.0329 724.057 18.6996C722.99 17.3663 721.557 16.2663 719.757 15.3996C718.023 14.5329 715.89 14.0996 713.357 14.0996H702.157V41.1996H712.657ZM724.557 46.6996L743.457 77.0996H732.257L713.057 46.9996L724.557 46.6996ZM773.375 4.7996H820.375V14.0996H783.075V36.0996H816.375V45.3996H783.075V67.7996H821.775V77.0996H773.375V4.7996ZM891.009 17.6996C888.542 16.4329 885.842 15.3329 882.909 14.3996C879.976 13.4663 877.109 12.9996 874.309 12.9996C870.442 12.9996 867.342 13.8996 865.009 15.6996C862.742 17.4996 861.609 19.8996 861.609 22.8996C861.609 25.1663 862.342 27.0996 863.809 28.6996C865.276 30.2329 867.209 31.5663 869.609 32.6996C872.009 33.8329 874.509 34.8996 877.109 35.8996C879.376 36.7663 881.609 37.7329 883.809 38.7996C886.009 39.8663 887.976 41.1996 889.709 42.7996C891.509 44.3996 892.909 46.3663 893.909 48.6996C894.976 51.0329 895.509 53.9329 895.509 57.3996C895.509 61.1996 894.542 64.6663 892.609 67.7996C890.742 70.9329 888.042 73.3996 884.509 75.1996C880.976 76.9996 876.776 77.8996 871.909 77.8996C868.709 77.8996 865.642 77.5329 862.709 76.7996C859.842 76.0663 857.176 75.1329 854.709 73.9996C852.242 72.7996 850.042 71.5663 848.109 70.2996L852.409 62.6996C854.009 63.8329 855.842 64.9329 857.909 65.9996C859.976 66.9996 862.142 67.8329 864.409 68.4996C866.676 69.0996 868.876 69.3996 871.009 69.3996C873.276 69.3996 875.509 68.9996 877.709 68.1996C879.976 67.3329 881.842 66.0329 883.309 64.2996C884.776 62.5663 885.509 60.2663 885.509 57.3996C885.509 54.9329 884.842 52.8996 883.509 51.2996C882.242 49.6329 880.542 48.2329 878.409 47.0996C876.276 45.8996 874.009 44.8329 871.609 43.8996C869.342 43.0329 867.042 42.0996 864.709 41.0996C862.376 40.0329 860.209 38.7663 858.209 37.2996C856.209 35.7663 854.609 33.8996 853.409 31.6996C852.209 29.4996 851.609 26.8329 851.609 23.6996C851.609 19.8996 852.509 16.5996 854.309 13.7996C856.176 10.9329 858.709 8.6996 861.909 7.0996C865.109 5.43294 868.776 4.53294 872.909 4.3996C877.576 4.3996 881.676 4.96627 885.209 6.09961C888.809 7.23294 891.976 8.63294 894.709 10.2996L891.009 17.6996Z" fill="#12274B"/>
<path d="M36.7996 7.49961L35.0624 11.1027L35.0887 11.1154L35.1152 11.1276L36.7996 7.49961ZM45.3996 15.0996L41.9696 17.1576L41.9846 17.1826L42 17.2074L45.3996 15.0996ZM47.1996 35.6996L51.0125 36.9086L51.0167 36.8955L51.0208 36.8823L47.1996 35.6996ZM42.9996 43.1996L39.9563 40.6038L39.9496 40.6117L42.9996 43.1996ZM13.6996 50.4996V46.4996H9.69961V50.4996H13.6996ZM13.6996 77.0996V81.0996H17.6996V77.0996H13.6996ZM3.99961 77.0996H-0.00039041V81.0996H3.99961V77.0996ZM3.99961 4.7996V0.799604H-0.00039041V4.7996H3.99961ZM35.7996 36.2996L38.9813 38.7238L39.0083 38.6883L39.0346 38.6523L35.7996 36.2996ZM38.0996 31.6996L34.2596 30.5796L34.2596 30.5796L38.0996 31.6996ZM38.0996 22.8996L34.2596 24.0196L34.2661 24.042L34.2729 24.0643L38.0996 22.8996ZM35.6996 18.5996L32.5761 21.0984L32.6451 21.1846L32.7186 21.2668L35.6996 18.5996ZM31.3996 15.3996L29.6108 18.9773L29.692 19.0179L29.7751 19.0549L31.3996 15.3996ZM13.6996 14.0996V10.0996H9.69961V14.0996H13.6996ZM13.6996 41.1996H9.69961V45.1996H13.6996V41.1996ZM23.2996 4.7996V8.7996C28.1226 8.7996 31.9971 9.62477 35.0624 11.1027L36.7996 7.49961L38.5368 3.89653C34.1354 1.77444 29.01 0.799604 23.2996 0.799604V4.7996ZM36.7996 7.49961L35.1152 11.1276C38.1678 12.5449 40.4062 14.5518 41.9696 17.1576L45.3996 15.0996L48.8296 13.0416C46.3931 8.98075 42.8981 5.92097 38.4841 3.87157L36.7996 7.49961ZM45.3996 15.0996L42 17.2074C43.5999 19.7878 44.4996 23.0561 44.4996 27.1996H48.4996H52.4996C52.4996 21.8764 51.3327 17.0781 48.7992 12.9918L45.3996 15.0996ZM48.4996 27.1996H44.4996C44.4996 29.6563 44.1293 32.0912 43.3785 34.5169L47.1996 35.6996L51.0208 36.8823C52.0033 33.708 52.4996 30.4763 52.4996 27.1996H48.4996ZM47.1996 35.6996L43.3867 34.4906C42.6877 36.6951 41.5569 38.7273 39.9563 40.6038L42.9996 43.1996L46.0429 45.7954C48.309 43.1386 49.9782 40.1708 51.0125 36.9086L47.1996 35.6996ZM42.9996 43.1996L39.9496 40.6117C38.5373 42.2761 36.5992 43.7033 34.0047 44.8313L35.5996 48.4996L37.1945 52.1679C40.7333 50.6293 43.7285 48.5231 46.0496 45.7875L42.9996 43.1996ZM35.5996 48.4996L34.0047 44.8313C31.5733 45.8885 28.4158 46.4996 24.3996 46.4996V50.4996V54.4996C29.1834 54.4996 33.4926 53.7774 37.1945 52.1679L35.5996 48.4996ZM24.3996 50.4996V46.4996H13.6996V50.4996V54.4996H24.3996V50.4996ZM13.6996 50.4996H9.69961V77.0996H13.6996H17.6996V50.4996H13.6996ZM13.6996 77.0996V73.0996H3.99961V77.0996V81.0996H13.6996V77.0996ZM3.99961 77.0996H7.99961V4.7996H3.99961H-0.00039041V77.0996H3.99961ZM3.99961 4.7996V8.7996H23.2996V4.7996V0.799604H3.99961V4.7996ZM24.2996 41.1996V45.1996C27.5678 45.1996 30.5987 44.6722 33.1885 43.3773L31.3996 39.7996L29.6108 36.2219C28.4672 36.7937 26.7648 37.1996 24.2996 37.1996V41.1996ZM31.3996 39.7996L33.1885 43.3773C35.5007 42.2212 37.4819 40.6918 38.9813 38.7238L35.7996 36.2996L32.6179 33.8754C31.984 34.7074 31.0318 35.5114 29.6108 36.2219L31.3996 39.7996ZM35.7996 36.2996L39.0346 38.6523C40.3486 36.8456 41.3329 34.8997 41.9396 32.8196L38.0996 31.6996L34.2596 30.5796C33.933 31.6995 33.384 32.8203 32.5647 33.9469L35.7996 36.2996ZM38.0996 31.6996L41.9396 32.8196C42.481 30.9633 42.7996 29.1431 42.7996 27.3996H38.7996H34.7996C34.7996 28.1895 34.6515 29.2359 34.2596 30.5796L38.0996 31.6996ZM38.7996 27.3996H42.7996C42.7996 25.5035 42.4973 23.611 41.9263 21.735L38.0996 22.8996L34.2729 24.0643C34.6353 25.2548 34.7996 26.3624 34.7996 27.3996H38.7996ZM38.0996 22.8996L41.9396 21.7796C41.3023 19.5946 40.204 17.6351 38.6806 15.9324L35.6996 18.5996L32.7186 21.2668C33.4619 22.0974 33.9636 23.0046 34.2596 24.0196L38.0996 22.8996ZM35.6996 18.5996L38.8231 16.1008C37.2991 14.1958 35.3189 12.7642 33.0242 11.7444L31.3996 15.3996L29.7751 19.0549C31.0803 19.635 31.9668 20.3367 32.5761 21.0984L35.6996 18.5996ZM31.3996 15.3996L33.1885 11.8219C30.7433 10.5993 27.9182 10.0996 24.8996 10.0996V14.0996V18.0996C27.081 18.0996 28.5893 18.4666 29.6108 18.9773L31.3996 15.3996ZM24.8996 14.0996V10.0996H13.6996V14.0996V18.0996H24.8996V14.0996ZM13.6996 14.0996H9.69961V41.1996H13.6996H17.6996V14.0996H13.6996ZM13.6996 41.1996V45.1996H24.2996V41.1996V37.1996H13.6996V41.1996ZM107.772 6.29961L106.532 10.1025L106.581 10.1185L106.63 10.1332L107.772 6.29961ZM115.872 10.5996L113.276 13.6429L113.324 13.6838L113.373 13.7231L115.872 10.5996ZM121.272 17.5996L117.628 19.2483L117.652 19.3011L117.677 19.3533L121.272 17.5996ZM121.972 35.5996L118.159 34.3906L118.146 34.4332L118.133 34.476L121.972 35.5996ZM117.872 43.0996L120.877 45.7401L120.896 45.7179L120.916 45.6954L117.872 43.0996ZM110.272 48.4996L111.867 52.1679L111.886 52.1599L111.904 52.1516L110.272 48.4996ZM88.1723 50.4996V46.4996H84.1723V50.4996H88.1723ZM88.1723 77.0996V81.0996H92.1723V77.0996H88.1723ZM78.4723 77.0996H74.4723V81.0996H78.4723V77.0996ZM78.4723 4.7996V0.799604H74.4723V4.7996H78.4723ZM105.772 39.8996L104.136 36.2496L104.112 36.2604L104.088 36.2716L105.772 39.8996ZM110.272 36.5996L113.396 39.0984L113.425 39.0614L113.454 39.0238L110.272 36.5996ZM112.572 32.0996L116.412 33.2196L116.412 33.2196L112.572 32.0996ZM112.472 23.0996L108.632 24.2196L108.661 24.3174L108.694 24.4137L112.472 23.0996ZM110.072 18.6996L106.949 21.1984L106.986 21.2449L107.025 21.2902L110.072 18.6996ZM105.772 15.3996L103.983 18.9773L104.01 18.9907L104.037 19.0036L105.772 15.3996ZM88.1723 14.0996V10.0996H84.1723V14.0996H88.1723ZM88.1723 41.1996H84.1723V45.1996H88.1723V41.1996ZM110.572 46.6996L113.969 44.5877L112.759 42.6412L110.468 42.701L110.572 46.6996ZM129.472 77.0996V81.0996H136.669L132.869 74.9877L129.472 77.0996ZM118.272 77.0996L114.9 79.2507L116.079 81.0996H118.272V77.0996ZM99.0723 46.9996L98.968 43.001L91.8949 43.1855L95.6999 49.1507L99.0723 46.9996ZM97.6723 4.7996V8.7996C100.974 8.7996 103.916 9.24957 106.532 10.1025L107.772 6.29961L109.012 2.49669C105.495 1.34964 101.703 0.799604 97.6723 0.799604V4.7996ZM107.772 6.29961L106.63 10.1332C109.282 10.9229 111.474 12.1054 113.276 13.6429L115.872 10.5996L118.468 7.55627C115.737 5.22715 112.529 3.54295 108.914 2.46607L107.772 6.29961ZM115.872 10.5996L113.373 13.7231C115.2 15.184 116.614 17.0064 117.628 19.2483L121.272 17.5996L124.917 15.9509C123.398 12.5928 121.212 9.74858 118.371 7.47613L115.872 10.5996ZM121.272 17.5996L117.677 19.3533C118.695 21.4395 119.272 24.0174 119.272 27.1996H123.272H127.272C127.272 23.0485 126.516 19.2264 124.867 15.8459L121.272 17.5996ZM123.272 27.1996H119.272C119.272 29.656 118.902 32.0482 118.159 34.3906L121.972 35.5996L125.785 36.8086C126.776 33.6843 127.272 30.4766 127.272 27.1996H123.272ZM121.972 35.5996L118.133 34.476C117.499 36.6431 116.413 38.6461 114.829 40.5038L117.872 43.0996L120.916 45.6954C123.198 43.0198 124.845 40.0228 125.811 36.7232L121.972 35.5996ZM117.872 43.0996L114.868 40.4591C113.374 42.1592 111.338 43.6422 108.641 44.8476L110.272 48.4996L111.904 52.1516C115.473 50.557 118.504 48.44 120.877 45.7401L117.872 43.0996ZM110.272 48.4996L108.677 44.8313C106.259 45.8828 103.041 46.4996 98.8723 46.4996V50.4996V54.4996C103.77 54.4996 108.152 53.7831 111.867 52.1679L110.272 48.4996ZM98.8723 50.4996V46.4996H88.1723V50.4996V54.4996H98.8723V50.4996ZM88.1723 50.4996H84.1723V77.0996H88.1723H92.1723V50.4996H88.1723ZM88.1723 77.0996V73.0996H78.4723V77.0996V81.0996H88.1723V77.0996ZM78.4723 77.0996H82.4723V4.7996H78.4723H74.4723V77.0996H78.4723ZM78.4723 4.7996V8.7996H97.6723V4.7996V0.799604H78.4723V4.7996ZM98.6723 41.1996V45.1996C101.907 45.1996 104.898 44.7158 107.457 43.5276L105.772 39.8996L104.088 36.2716C102.914 36.8167 101.171 37.1996 98.6723 37.1996V41.1996ZM105.772 39.8996L107.408 43.5496C109.785 42.4843 111.848 41.0336 113.396 39.0984L110.272 36.5996L107.149 34.1008C106.564 34.8323 105.626 35.5815 104.136 36.2496L105.772 39.8996ZM110.272 36.5996L113.454 39.0238C114.801 37.2553 115.801 35.3171 116.412 33.2196L112.572 32.0996L108.732 30.9796C108.411 32.0822 107.876 33.1439 107.091 34.1754L110.272 36.5996ZM112.572 32.0996L116.412 33.2196C116.966 31.3228 117.272 29.4426 117.272 27.5996H113.272H109.272C109.272 28.5566 109.112 29.6764 108.732 30.9796L112.572 32.0996ZM113.272 27.5996H117.272C117.272 25.6404 116.915 23.6965 116.25 21.7855L112.472 23.0996L108.694 24.4137C109.096 25.5694 109.272 26.6255 109.272 27.5996H113.272ZM112.472 23.0996L116.312 21.9796C115.68 19.8122 114.599 17.8494 113.12 16.109L110.072 18.6996L107.025 21.2902C107.812 22.2164 108.331 23.187 108.632 24.2196L112.472 23.0996ZM110.072 18.6996L113.196 16.2008C111.696 14.3267 109.756 12.8782 107.508 11.7956L105.772 15.3996L104.037 19.0036C105.389 19.6544 106.315 20.4059 106.949 21.1984L110.072 18.6996ZM105.772 15.3996L107.561 11.8219C105.129 10.6056 102.343 10.0996 99.3723 10.0996V14.0996V18.0996C101.468 18.0996 102.949 18.4602 103.983 18.9773L105.772 15.3996ZM99.3723 14.0996V10.0996H88.1723V14.0996V18.0996H99.3723V14.0996ZM88.1723 14.0996H84.1723V41.1996H88.1723H92.1723V14.0996H88.1723ZM88.1723 41.1996V45.1996H98.6723V41.1996V37.1996H88.1723V41.1996ZM110.572 46.6996L107.175 48.8116L126.075 79.2116L129.472 77.0996L132.869 74.9877L113.969 44.5877L110.572 46.6996ZM129.472 77.0996V73.0996H118.272V77.0996V81.0996H129.472V77.0996ZM118.272 77.0996L121.645 74.9485L102.445 44.8485L99.0723 46.9996L95.6999 49.1507L114.9 79.2507L118.272 77.0996ZM99.0723 46.9996L99.1766 50.9982L110.677 50.6982L110.572 46.6996L110.468 42.701L98.968 43.001L99.0723 46.9996ZM156.128 26.8996L152.457 25.3107L152.451 25.324L152.445 25.3374L156.128 26.8996ZM164.128 15.0996L166.956 17.928L166.97 17.9143L166.983 17.9004L164.128 15.0996ZM175.828 6.99961L177.437 10.6617L177.45 10.6561L177.462 10.6503L175.828 6.99961ZM204.428 6.99961L202.773 10.6411L202.806 10.6561L202.839 10.6705L204.428 6.99961ZM216.228 15.0996L213.372 17.9004L213.399 17.9282L213.427 17.9554L216.228 15.0996ZM224.328 26.8996L220.657 28.4885L220.661 28.4986L220.666 28.5087L224.328 26.8996ZM224.328 55.3996L227.999 56.9885L227.999 56.9885L224.328 55.3996ZM216.228 67.1996L219.028 70.0559L219.029 70.0554L216.228 67.1996ZM204.428 75.0996L205.99 78.7819L206.003 78.7763L206.017 78.7705L204.428 75.0996ZM175.828 75.0996L174.266 78.7819L174.275 78.7861L174.285 78.7903L175.828 75.0996ZM164.128 67.2996L166.928 64.4433L166.928 64.4433L164.128 67.2996ZM156.128 55.5996L152.437 57.142L152.447 57.1653L152.457 57.1885L156.128 55.5996ZM165.428 51.7996L161.74 53.3485L161.745 53.3619L161.751 53.3753L165.428 51.7996ZM171.228 60.4996L168.362 63.2901L171.228 60.4996ZM179.828 66.4996L178.189 70.1487L178.221 70.1627L178.252 70.1762L179.828 66.4996ZM200.928 66.4996L202.503 70.1762L202.535 70.1627L202.566 70.1487L200.928 66.4996ZM209.428 60.4996L206.524 57.7486L206.524 57.7486L209.428 60.4996ZM215.128 51.7996L218.804 53.3753L218.81 53.3619L218.816 53.3485L215.128 51.7996ZM215.128 30.2996L211.429 31.8226L211.434 31.8356L211.44 31.8485L215.128 30.2996ZM200.728 15.4996L199.089 19.1487L199.121 19.1627L199.152 19.1762L200.728 15.4996ZM179.628 15.4996L177.989 11.8505L177.989 11.8505L179.628 15.4996ZM171.028 21.4996L168.162 18.7091L168.162 18.7091L171.028 21.4996ZM165.328 30.3996L169.042 31.8852L169.047 31.8726L169.052 31.86L165.328 30.3996ZM153.328 40.9996H157.328C157.328 36.5112 158.163 32.345 159.81 28.4618L156.128 26.8996L152.445 25.3374C150.359 30.2543 149.328 35.4881 149.328 40.9996H153.328ZM156.128 26.8996L159.799 28.4885C161.534 24.4786 163.917 20.9672 166.956 17.928L164.128 15.0996L161.299 12.2712C157.538 16.032 154.588 20.3873 152.457 25.3107L156.128 26.8996ZM164.128 15.0996L166.983 17.9004C170.03 14.7938 173.508 12.3878 177.437 10.6617L175.828 6.99961L174.219 3.33753C169.347 5.47806 165.025 8.47208 161.272 12.2988L164.128 15.0996ZM175.828 6.99961L177.462 10.6503C181.39 8.89182 185.63 7.99961 190.228 7.99961V3.99961V-0.000391245C184.559 -0.000391245 179.199 1.1074 174.193 3.34887L175.828 6.99961ZM190.228 3.99961V7.99961C194.752 7.99961 198.917 8.88875 202.773 10.6411L204.428 6.99961L206.083 3.35814C201.138 1.11046 195.837 -0.000391245 190.228 -0.000391245V3.99961ZM204.428 6.99961L202.839 10.6705C206.832 12.3989 210.335 14.8038 213.372 17.9004L216.228 15.0996L219.083 12.2988C215.321 8.46203 210.957 5.46696 206.017 3.32872L204.428 6.99961ZM216.228 15.0996L213.427 17.9554C216.523 20.9924 218.928 24.4952 220.657 28.4885L224.328 26.8996L227.999 25.3107C225.86 20.3706 222.865 16.0068 219.029 12.2439L216.228 15.0996ZM224.328 26.8996L220.666 28.5087C222.367 32.381 223.228 36.5307 223.228 40.9996H227.228H231.228C231.228 35.4685 230.155 30.2182 227.99 25.2905L224.328 26.8996ZM227.228 40.9996H223.228C223.228 45.6168 222.361 49.8728 220.657 53.8107L224.328 55.3996L227.999 56.9885C230.161 51.9931 231.228 46.6491 231.228 40.9996H227.228ZM224.328 55.3996L220.657 53.8107C218.928 57.804 216.523 61.3068 213.427 64.3439L216.228 67.1996L219.029 70.0554C222.865 66.2924 225.86 61.9286 227.999 56.9885L224.328 55.3996ZM216.228 67.1996L213.427 64.3433C210.386 67.3254 206.865 69.6859 202.839 71.4287L204.428 75.0996L206.017 78.7705C210.923 76.6467 215.27 73.7405 219.028 70.0559L216.228 67.1996ZM204.428 75.0996L202.866 71.4173C198.989 73.0619 194.79 73.8996 190.228 73.8996V77.8996V81.8996C195.798 81.8996 201.067 80.8707 205.99 78.7819L204.428 75.0996ZM190.228 77.8996V73.8996C185.591 73.8996 181.319 73.0593 177.37 71.4089L175.828 75.0996L174.285 78.7903C179.27 80.8733 184.597 81.8996 190.228 81.8996V77.8996ZM175.828 75.0996L177.39 71.4173C173.449 69.7453 169.969 67.4249 166.928 64.4433L164.128 67.2996L161.327 70.1559C165.086 73.841 169.407 76.7206 174.266 78.7819L175.828 75.0996ZM164.128 67.2996L166.928 64.4433C163.906 61.4803 161.531 58.0134 159.799 54.0107L156.128 55.5996L152.457 57.1885C154.591 62.1192 157.55 66.4522 161.327 70.1559L164.128 67.2996ZM156.128 55.5996L159.818 54.0572C158.173 50.1206 157.328 45.7836 157.328 40.9996H153.328H149.328C149.328 46.7489 150.349 52.1452 152.437 57.142L156.128 55.5996ZM163.328 41.0996H159.328C159.328 45.4039 160.123 49.4999 161.74 53.3485L165.428 51.7996L169.116 50.2507C167.932 47.4326 167.328 44.3953 167.328 41.0996H163.328ZM165.428 51.7996L161.751 53.3753C163.344 57.0908 165.551 60.4031 168.362 63.2901L171.228 60.4996L174.094 57.7091C171.971 55.5294 170.312 53.0417 169.104 50.2239L165.428 51.7996ZM171.228 60.4996L168.362 63.2901C171.185 66.189 174.469 68.4784 178.189 70.1487L179.828 66.4996L181.466 62.8505C178.653 61.5875 176.204 59.8769 174.094 57.7091L171.228 60.4996ZM179.828 66.4996L178.252 70.1762C182.05 71.8041 186.124 72.5996 190.428 72.5996V68.5996V64.5996C187.131 64.5996 184.138 63.9952 181.403 62.823L179.828 66.4996ZM190.428 68.5996V72.5996C194.675 72.5996 198.714 71.8003 202.503 70.1762L200.928 66.4996L199.352 62.823C196.608 63.9989 193.647 64.5996 190.428 64.5996V68.5996ZM200.928 66.4996L202.566 70.1487C206.296 68.4738 209.563 66.173 212.332 63.2506L209.428 60.4996L206.524 57.7486C204.493 59.8929 202.092 61.592 199.289 62.8505L200.928 66.4996ZM209.428 60.4996L212.332 63.2506C215.063 60.3678 217.222 57.0681 218.804 53.3753L215.128 51.7996L211.451 50.2239C210.234 53.0644 208.593 55.5647 206.524 57.7486L209.428 60.4996ZM215.128 51.7996L218.816 53.3485C220.436 49.4914 221.228 45.3608 221.228 40.9996H217.228H213.228C213.228 44.3718 212.62 47.4411 211.44 50.2507L215.128 51.7996ZM217.228 40.9996H221.228C221.228 36.6953 220.432 32.5993 218.816 28.7507L215.128 30.2996L211.44 31.8485C212.623 34.6666 213.228 37.7039 213.228 40.9996H217.228ZM215.128 30.2996L218.826 28.7766C217.24 24.924 215.03 21.5225 212.194 18.6091L209.328 21.3996L206.462 24.1901C208.558 26.3433 210.215 28.8752 211.429 31.8226L215.128 30.2996ZM209.328 21.3996L212.194 18.6091C209.357 15.6964 206.052 13.4295 202.303 11.823L200.728 15.4996L199.152 19.1762C201.937 20.3698 204.365 22.0362 206.462 24.1901L209.328 21.3996ZM200.728 15.4996L202.366 11.8505C198.562 10.1427 194.501 9.29961 190.228 9.29961V13.2996V17.2996C193.421 17.2996 196.36 17.9232 199.089 19.1487L200.728 15.4996ZM190.228 13.2996V9.29961C185.898 9.29961 181.802 10.1385 177.989 11.8505L179.628 15.4996L181.266 19.1487C183.986 17.9273 186.957 17.2996 190.228 17.2996V13.2996ZM179.628 15.4996L177.989 11.8505C174.269 13.5209 170.985 15.8102 168.162 18.7091L171.028 21.4996L173.894 24.2901C176.004 22.1224 178.453 20.4117 181.266 19.1487L179.628 15.4996ZM171.028 21.4996L168.162 18.7091C165.311 21.6369 163.125 25.0598 161.604 28.9393L165.328 30.3996L169.052 31.86C170.197 28.9394 171.811 26.429 173.894 24.2901L171.028 21.4996ZM165.328 30.3996L161.614 28.914C160.081 32.747 159.328 36.8209 159.328 41.0996H163.328H167.328C167.328 37.7784 167.908 34.7188 169.042 31.8852L165.328 30.3996ZM259.278 4.7996L262.994 3.32047L261.991 0.799604H259.278V4.7996ZM283.078 64.5996L282.293 68.5219L289.519 69.9671L286.794 63.1205L283.078 64.5996ZM277.578 63.4996L273.845 62.0624L272.14 66.4912L276.793 67.4219L277.578 63.4996ZM300.178 4.7996V0.799604H297.432L296.445 3.36241L300.178 4.7996ZM311.478 4.7996L315.163 6.35467L317.507 0.799604H311.478V4.7996ZM279.578 80.3996L275.891 81.9505L279.572 90.7023L283.263 81.9547L279.578 80.3996ZM247.778 4.7996V0.799604H241.756L244.091 6.35052L247.778 4.7996ZM259.278 4.7996L255.561 6.27874L279.361 66.0787L283.078 64.5996L286.794 63.1205L262.994 3.32047L259.278 4.7996ZM283.078 64.5996L283.862 60.6773L278.362 59.5773L277.578 63.4996L276.793 67.4219L282.293 68.5219L283.078 64.5996ZM277.578 63.4996L281.311 64.9368L303.911 6.2368L300.178 4.7996L296.445 3.36241L273.845 62.0624L277.578 63.4996ZM300.178 4.7996V8.7996H311.478V4.7996V0.799604H300.178V4.7996ZM311.478 4.7996L307.792 3.24454L275.892 78.8445L279.578 80.3996L283.263 81.9547L315.163 6.35467L311.478 4.7996ZM279.578 80.3996L283.265 78.8487L251.465 3.24868L247.778 4.7996L244.091 6.35052L275.891 81.9505L279.578 80.3996ZM247.778 4.7996V8.7996H259.278V4.7996V0.799604H247.778V4.7996ZM340.953 4.7996V0.799604H336.953V4.7996H340.953ZM387.953 4.7996H391.953V0.799604H387.953V4.7996ZM387.953 14.0996V18.0996H391.953V14.0996H387.953ZM350.653 14.0996V10.0996H346.653V14.0996H350.653ZM350.653 36.0996H346.653V40.0996H350.653V36.0996ZM383.953 36.0996H387.953V32.0996H383.953V36.0996ZM383.953 45.3996V49.3996H387.953V45.3996H383.953ZM350.653 45.3996V41.3996H346.653V45.3996H350.653ZM350.653 67.7996H346.653V71.7996H350.653V67.7996ZM389.353 67.7996H393.353V63.7996H389.353V67.7996ZM389.353 77.0996V81.0996H393.353V77.0996H389.353ZM340.953 77.0996H336.953V81.0996H340.953V77.0996ZM340.953 4.7996V8.7996H387.953V4.7996V0.799604H340.953V4.7996ZM387.953 4.7996H383.953V14.0996H387.953H391.953V4.7996H387.953ZM387.953 14.0996V10.0996H350.653V14.0996V18.0996H387.953V14.0996ZM350.653 14.0996H346.653V36.0996H350.653H354.653V14.0996H350.653ZM350.653 36.0996V40.0996H383.953V36.0996V32.0996H350.653V36.0996ZM383.953 36.0996H379.953V45.3996H383.953H387.953V36.0996H383.953ZM383.953 45.3996V41.3996H350.653V45.3996V49.3996H383.953V45.3996ZM350.653 45.3996H346.653V67.7996H350.653H354.653V45.3996H350.653ZM350.653 67.7996V71.7996H389.353V67.7996V63.7996H350.653V67.7996ZM389.353 67.7996H385.353V77.0996H389.353H393.353V67.7996H389.353ZM389.353 77.0996V73.0996H340.953V77.0996V81.0996H389.353V77.0996ZM340.953 77.0996H344.953V4.7996H340.953H336.953V77.0996H340.953ZM421.187 4.7996V0.799604H417.187V4.7996H421.187ZM468.187 4.7996H472.187V0.799604H468.187V4.7996ZM468.187 14.0996V18.0996H472.187V14.0996H468.187ZM430.887 14.0996V10.0996H426.887V14.0996H430.887ZM430.887 36.0996H426.887V40.0996H430.887V36.0996ZM464.187 36.0996H468.187V32.0996H464.187V36.0996ZM464.187 45.3996V49.3996H468.187V45.3996H464.187ZM430.887 45.3996V41.3996H426.887V45.3996H430.887ZM430.887 67.7996H426.887V71.7996H430.887V67.7996ZM469.587 67.7996H473.587V63.7996H469.587V67.7996ZM469.587 77.0996V81.0996H473.587V77.0996H469.587ZM421.187 77.0996H417.187V81.0996H421.187V77.0996ZM421.187 4.7996V8.7996H468.187V4.7996V0.799604H421.187V4.7996ZM468.187 4.7996H464.187V14.0996H468.187H472.187V4.7996H468.187ZM468.187 14.0996V10.0996H430.887V14.0996V18.0996H468.187V14.0996ZM430.887 14.0996H426.887V36.0996H430.887H434.887V14.0996H430.887ZM430.887 36.0996V40.0996H464.187V36.0996V32.0996H430.887V36.0996ZM464.187 36.0996H460.187V45.3996H464.187H468.187V36.0996H464.187ZM464.187 45.3996V41.3996H430.887V45.3996V49.3996H464.187V45.3996ZM430.887 45.3996H426.887V67.7996H430.887H434.887V45.3996H430.887ZM430.887 67.7996V71.7996H469.587V67.7996V63.7996H430.887V67.7996ZM469.587 67.7996H465.587V77.0996H469.587H473.587V67.7996H469.587ZM469.587 77.0996V73.0996H421.187V77.0996V81.0996H469.587V77.0996ZM421.187 77.0996H425.187V4.7996H421.187H417.187V77.0996H421.187ZM501.421 77.0996H497.421V81.0996H501.421V77.0996ZM501.421 4.7996V0.799604H497.421V4.7996H501.421ZM539.321 8.0996L537.711 11.7609L537.719 11.7648L537.728 11.7687L539.321 8.0996ZM551.521 16.7996L554.566 14.2057L554.566 14.2057L551.521 16.7996ZM558.221 28.7996L554.41 30.0124L554.421 30.0473L554.433 30.082L558.221 28.7996ZM557.521 56.4996L553.869 54.8698L553.858 54.8934L553.848 54.9171L557.521 56.4996ZM549.721 67.5996L547.013 64.6559L547.013 64.6559L549.721 67.5996ZM538.221 74.6996L539.626 78.4449L539.642 78.439L539.657 78.433L538.221 74.6996ZM511.121 67.7996H507.121V71.7996H511.121V67.7996ZM533.721 65.9996L532.39 62.2276L532.378 62.2318L532.367 62.2361L533.721 65.9996ZM542.521 60.7996L539.854 57.8186L539.835 57.8363L539.815 57.8543L542.521 60.7996ZM548.421 52.4996L552.098 54.0753L552.104 54.0619L552.109 54.0485L548.421 52.4996ZM548.321 29.4996L544.649 31.084L544.654 31.0973L544.66 31.1106L548.321 29.4996ZM542.321 20.9996L544.989 18.0186L544.989 18.0186L542.321 20.9996ZM533.721 15.8996L532.317 19.6449L532.351 19.6578L532.386 19.6701L533.721 15.8996ZM511.121 14.0996V10.0996H507.121V14.0996H511.121ZM501.421 77.0996H505.421V4.7996H501.421H497.421V77.0996H501.421ZM501.421 4.7996V8.7996H521.121V4.7996V0.799604H501.421V4.7996ZM521.121 4.7996V8.7996C527.862 8.7996 533.348 9.84138 537.711 11.7609L539.321 8.0996L540.932 4.43834C535.295 1.95782 528.647 0.799604 521.121 0.799604V4.7996ZM539.321 8.0996L537.728 11.7687C542.329 13.7664 545.867 16.3299 548.477 19.3935L551.521 16.7996L554.566 14.2057C551.043 10.0694 546.447 6.83286 540.915 4.43056L539.321 8.0996ZM551.521 16.7996L548.477 19.3935C551.207 22.5987 553.175 26.1316 554.41 30.0124L558.221 28.7996L562.033 27.5868C560.468 22.6676 557.969 18.2005 554.566 14.2057L551.521 16.7996ZM558.221 28.7996L554.433 30.082C555.767 34.0254 556.421 37.9262 556.421 41.7996H560.421H564.421C564.421 37.0064 563.609 32.2405 562.01 27.5172L558.221 28.7996ZM560.421 41.7996H556.421C556.421 46.7896 555.541 51.1217 553.869 54.8698L557.521 56.4996L561.174 58.1294C563.369 53.2109 564.421 47.7429 564.421 41.7996H560.421ZM557.521 56.4996L553.848 54.9171C552.194 58.7559 549.915 61.986 547.013 64.6559L549.721 67.5996L552.43 70.5433C556.194 67.0799 559.115 62.91 561.195 58.0821L557.521 56.4996ZM549.721 67.5996L547.013 64.6559C544.06 67.373 540.661 69.4757 536.786 70.9662L538.221 74.6996L539.657 78.433C544.449 76.5902 548.716 73.9596 552.43 70.5433L549.721 67.5996ZM538.221 74.6996L536.817 70.9543C533.023 72.377 528.968 73.0996 524.621 73.0996V77.0996V81.0996C529.875 81.0996 534.887 80.2222 539.626 78.4449L538.221 74.6996ZM524.621 77.0996V73.0996H501.421V77.0996V81.0996H524.621V77.0996ZM511.121 67.7996V71.7996H522.721V67.7996V63.7996H511.121V67.7996ZM522.721 67.7996V71.7996C527.124 71.7996 531.256 71.1384 535.076 69.7632L533.721 65.9996L532.367 62.2361C529.52 63.2608 526.319 63.7996 522.721 63.7996V67.7996ZM533.721 65.9996L535.053 69.7716C538.923 68.4056 542.334 66.4044 545.228 63.7449L542.521 60.7996L539.815 57.8543C537.776 59.7282 535.32 61.1936 532.39 62.2276L533.721 65.9996ZM542.521 60.7996L545.189 63.7806C548.177 61.107 550.479 57.8534 552.098 54.0753L548.421 52.4996L544.745 50.9239C543.564 53.6792 541.933 55.9589 539.854 57.8186L542.521 60.7996ZM548.421 52.4996L552.109 54.0485C553.746 50.152 554.521 45.8465 554.521 41.1996H550.521H546.521C546.521 44.9527 545.897 48.1805 544.734 50.9507L548.421 52.4996ZM550.521 41.1996H554.521C554.521 36.3008 553.717 31.8309 551.983 27.8887L548.321 29.4996L544.66 31.1106C545.859 33.8349 546.521 37.1651 546.521 41.1996H550.521ZM548.321 29.4996L551.994 27.9152C550.319 24.0305 547.992 20.7059 544.989 18.0186L542.321 20.9996L539.654 23.9806C541.718 25.8266 543.391 28.1687 544.649 31.084L548.321 29.4996ZM542.321 20.9996L544.989 18.0186C542.068 15.4051 538.749 13.4366 535.057 12.1291L533.721 15.8996L532.386 19.6701C535.094 20.6293 537.509 22.0608 539.654 23.9806L542.321 20.9996ZM533.721 15.8996L535.126 12.1543C531.462 10.7802 527.618 10.0996 523.621 10.0996V14.0996V18.0996C526.692 18.0996 529.581 18.619 532.317 19.6449L533.721 15.8996ZM523.621 14.0996V10.0996H511.121V14.0996V18.0996H523.621V14.0996ZM511.121 14.0996H507.121V67.7996H511.121H515.121V14.0996H511.121ZM590.014 26.8996L586.344 25.3107L586.338 25.324L586.332 25.3374L590.014 26.8996ZM598.014 15.0996L600.843 17.928L600.857 17.9143L600.87 17.9004L598.014 15.0996ZM609.714 6.99961L611.324 10.6617L611.336 10.6561L611.349 10.6503L609.714 6.99961ZM638.314 6.99961L636.659 10.6411L636.692 10.6561L636.726 10.6705L638.314 6.99961ZM650.114 15.0996L647.259 17.9004L647.286 17.9282L647.314 17.9554L650.114 15.0996ZM658.214 26.8996L654.544 28.4885L654.548 28.4986L654.552 28.5087L658.214 26.8996ZM658.214 55.3996L661.885 56.9885L661.885 56.9885L658.214 55.3996ZM650.114 67.1996L652.915 70.0559L652.915 70.0554L650.114 67.1996ZM638.314 75.0996L639.877 78.7819L639.89 78.7763L639.903 78.7705L638.314 75.0996ZM609.714 75.0996L608.152 78.7819L608.162 78.7861L608.172 78.7903L609.714 75.0996ZM598.014 67.2996L600.815 64.4433L600.815 64.4433L598.014 67.2996ZM590.014 55.5996L586.324 57.142L586.334 57.1653L586.344 57.1885L590.014 55.5996ZM599.314 51.7996L595.627 53.3485L595.632 53.3619L595.638 53.3753L599.314 51.7996ZM605.114 60.4996L602.249 63.2901L605.114 60.4996ZM613.714 66.4996L612.076 70.1487L612.107 70.1627L612.139 70.1762L613.714 66.4996ZM634.814 66.4996L636.39 70.1762L636.422 70.1627L636.453 70.1487L634.814 66.4996ZM643.314 60.4996L640.411 57.7486L640.411 57.7486L643.314 60.4996ZM649.014 51.7996L652.691 53.3753L652.697 53.3619L652.702 53.3485L649.014 51.7996ZM649.014 30.2996L645.316 31.8226L645.321 31.8356L645.327 31.8485L649.014 30.2996ZM634.614 15.4996L632.976 19.1487L633.007 19.1627L633.039 19.1762L634.614 15.4996ZM613.514 15.4996L611.876 11.8505L611.876 11.8505L613.514 15.4996ZM604.914 21.4996L602.049 18.7091L602.049 18.7091L604.914 21.4996ZM599.214 30.3996L602.928 31.8852L602.933 31.8726L602.938 31.86L599.214 30.3996ZM587.214 40.9996H591.214C591.214 36.5112 592.049 32.345 593.697 28.4618L590.014 26.8996L586.332 25.3374C584.246 30.2543 583.214 35.4881 583.214 40.9996H587.214ZM590.014 26.8996L593.685 28.4885C595.421 24.4786 597.804 20.9672 600.843 17.928L598.014 15.0996L595.186 12.2712C591.425 16.032 588.475 20.3873 586.344 25.3107L590.014 26.8996ZM598.014 15.0996L600.87 17.9004C603.917 14.7938 607.395 12.3878 611.324 10.6617L609.714 6.99961L608.105 3.33753C603.234 5.47806 598.912 8.47208 595.159 12.2988L598.014 15.0996ZM609.714 6.99961L611.349 10.6503C615.276 8.89182 619.516 7.99961 624.114 7.99961V3.99961V-0.000391245C618.446 -0.000391245 613.086 1.1074 608.08 3.34887L609.714 6.99961ZM624.114 3.99961V7.99961C628.638 7.99961 632.804 8.88875 636.659 10.6411L638.314 6.99961L639.97 3.35814C635.025 1.11046 629.724 -0.000391245 624.114 -0.000391245V3.99961ZM638.314 6.99961L636.726 10.6705C640.719 12.3989 644.222 14.8038 647.259 17.9004L650.114 15.0996L652.97 12.2988C649.207 8.46203 644.843 5.46696 639.903 3.32872L638.314 6.99961ZM650.114 15.0996L647.314 17.9554C650.41 20.9924 652.815 24.4952 654.544 28.4885L658.214 26.8996L661.885 25.3107C659.747 20.3706 656.752 16.0068 652.915 12.2439L650.114 15.0996ZM658.214 26.8996L654.552 28.5087C656.254 32.381 657.114 36.5307 657.114 40.9996H661.114H665.114C665.114 35.4685 664.042 30.2182 661.877 25.2905L658.214 26.8996ZM661.114 40.9996H657.114C657.114 45.6168 656.248 49.8728 654.544 53.8107L658.214 55.3996L661.885 56.9885C664.048 51.9931 665.114 46.6491 665.114 40.9996H661.114ZM658.214 55.3996L654.544 53.8107C652.815 57.804 650.41 61.3068 647.314 64.3439L650.114 67.1996L652.915 70.0554C656.752 66.2924 659.747 61.9286 661.885 56.9885L658.214 55.3996ZM650.114 67.1996L647.314 64.3433C644.272 67.3254 640.752 69.6859 636.726 71.4287L638.314 75.0996L639.903 78.7705C644.81 76.6467 649.156 73.7405 652.915 70.0559L650.114 67.1996ZM638.314 75.0996L636.752 71.4173C632.876 73.0619 628.677 73.8996 624.114 73.8996V77.8996V81.8996C629.685 81.8996 634.953 80.8707 639.877 78.7819L638.314 75.0996ZM624.114 77.8996V73.8996C619.478 73.8996 615.206 73.0593 611.257 71.4089L609.714 75.0996L608.172 78.7903C613.156 80.8733 618.484 81.8996 624.114 81.8996V77.8996ZM609.714 75.0996L611.277 71.4173C607.336 69.7453 603.856 67.4249 600.815 64.4433L598.014 67.2996L595.214 70.1559C598.973 73.841 603.293 76.7206 608.152 78.7819L609.714 75.0996ZM598.014 67.2996L600.815 64.4433C597.792 61.4803 595.418 58.0134 593.685 54.0107L590.014 55.5996L586.344 57.1885C588.478 62.1192 591.436 66.4522 595.214 70.1559L598.014 67.2996ZM590.014 55.5996L593.705 54.0572C592.06 50.1206 591.214 45.7836 591.214 40.9996H587.214H583.214C583.214 46.7489 584.236 52.1452 586.324 57.142L590.014 55.5996ZM597.214 41.0996H593.214C593.214 45.4039 594.01 49.4999 595.627 53.3485L599.314 51.7996L603.002 50.2507C601.819 47.4326 601.214 44.3953 601.214 41.0996H597.214ZM599.314 51.7996L595.638 53.3753C597.23 57.0908 599.438 60.4031 602.249 63.2901L605.114 60.4996L607.98 57.7091C605.858 55.5294 604.199 53.0417 602.991 50.2239L599.314 51.7996ZM605.114 60.4996L602.249 63.2901C605.071 66.189 608.356 68.4784 612.076 70.1487L613.714 66.4996L615.353 62.8505C612.54 61.5875 610.091 59.8769 607.98 57.7091L605.114 60.4996ZM613.714 66.4996L612.139 70.1762C615.937 71.8041 620.011 72.5996 624.314 72.5996V68.5996V64.5996C621.018 64.5996 618.025 63.9952 615.29 62.823L613.714 66.4996ZM624.314 68.5996V72.5996C628.562 72.5996 632.601 71.8003 636.39 70.1762L634.814 66.4996L633.239 62.823C630.495 63.9989 627.534 64.5996 624.314 64.5996V68.5996ZM634.814 66.4996L636.453 70.1487C640.183 68.4738 643.45 66.173 646.218 63.2506L643.314 60.4996L640.411 57.7486C638.379 59.8929 635.979 61.592 633.176 62.8505L634.814 66.4996ZM643.314 60.4996L646.218 63.2506C648.949 60.3678 651.108 57.0681 652.691 53.3753L649.014 51.7996L645.338 50.2239C644.121 53.0644 642.48 55.5647 640.411 57.7486L643.314 60.4996ZM649.014 51.7996L652.702 53.3485C654.322 49.4914 655.114 45.3608 655.114 40.9996H651.114H647.114C647.114 44.3718 646.507 47.4411 645.327 50.2507L649.014 51.7996ZM651.114 40.9996H655.114C655.114 36.6953 654.319 32.5993 652.702 28.7507L649.014 30.2996L645.327 31.8485C646.51 34.6666 647.114 37.7039 647.114 40.9996H651.114ZM649.014 30.2996L652.713 28.7766C651.127 24.924 648.917 21.5225 646.08 18.6091L643.214 21.3996L640.349 24.1901C642.445 26.3433 644.102 28.8752 645.316 31.8226L649.014 30.2996ZM643.214 21.3996L646.08 18.6091C643.244 15.6964 639.938 13.4295 636.19 11.823L634.614 15.4996L633.039 19.1762C635.824 20.3698 638.251 22.0362 640.349 24.1901L643.214 21.3996ZM634.614 15.4996L636.253 11.8505C632.449 10.1427 628.388 9.29961 624.114 9.29961V13.2996V17.2996C627.308 17.2996 630.247 17.9232 632.976 19.1487L634.614 15.4996ZM624.114 13.2996V9.29961C619.785 9.29961 615.689 10.1385 611.876 11.8505L613.514 15.4996L615.153 19.1487C617.873 17.9273 620.844 17.2996 624.114 17.2996V13.2996ZM613.514 15.4996L611.876 11.8505C608.156 13.5209 604.871 15.8102 602.049 18.7091L604.914 21.4996L607.78 24.2901C609.891 22.1224 612.34 20.4117 615.153 19.1487L613.514 15.4996ZM604.914 21.4996L602.049 18.7091C599.198 21.6369 597.012 25.0598 595.491 28.9393L599.214 30.3996L602.938 31.86C604.084 28.9394 605.698 26.429 607.78 24.2901L604.914 21.4996ZM599.214 30.3996L595.501 28.914C593.967 32.747 593.214 36.8209 593.214 41.0996H597.214H601.214C601.214 37.7784 601.795 34.7188 602.928 31.8852L599.214 30.3996ZM721.757 6.29961L720.517 10.1025L720.565 10.1185L720.615 10.1332L721.757 6.29961ZM729.857 10.5996L727.261 13.6429L727.309 13.6838L727.358 13.7231L729.857 10.5996ZM735.257 17.5996L731.612 19.2483L731.636 19.3011L731.662 19.3533L735.257 17.5996ZM735.957 35.5996L732.144 34.3906L732.13 34.4332L732.118 34.476L735.957 35.5996ZM731.857 43.0996L734.861 45.7401L734.881 45.7179L734.9 45.6954L731.857 43.0996ZM724.257 48.4996L725.852 52.1679L725.87 52.1599L725.888 52.1516L724.257 48.4996ZM702.157 50.4996V46.4996H698.157V50.4996H702.157ZM702.157 77.0996V81.0996H706.157V77.0996H702.157ZM692.457 77.0996H688.457V81.0996H692.457V77.0996ZM692.457 4.7996V0.799604H688.457V4.7996H692.457ZM719.757 39.8996L718.12 36.2496L718.096 36.2604L718.072 36.2716L719.757 39.8996ZM724.257 36.5996L727.38 39.0984L727.41 39.0614L727.438 39.0238L724.257 36.5996ZM726.557 32.0996L730.397 33.2196L730.397 33.2196L726.557 32.0996ZM726.457 23.0996L722.617 24.2196L722.645 24.3174L722.679 24.4137L726.457 23.0996ZM724.057 18.6996L720.933 21.1984L720.97 21.2449L721.009 21.2902L724.057 18.6996ZM719.757 15.3996L717.968 18.9773L717.994 18.9907L718.021 19.0036L719.757 15.3996ZM702.157 14.0996V10.0996H698.157V14.0996H702.157ZM702.157 41.1996H698.157V45.1996H702.157V41.1996ZM724.557 46.6996L727.954 44.5877L726.744 42.6412L724.452 42.701L724.557 46.6996ZM743.457 77.0996V81.0996H750.654L746.854 74.9877L743.457 77.0996ZM732.257 77.0996L728.884 79.2507L730.064 81.0996H732.257V77.0996ZM713.057 46.9996L712.952 43.001L705.879 43.1855L709.684 49.1507L713.057 46.9996ZM711.657 4.7996V8.7996C714.959 8.7996 717.901 9.24957 720.517 10.1025L721.757 6.29961L722.997 2.49669C719.479 1.34964 715.688 0.799604 711.657 0.799604V4.7996ZM721.757 6.29961L720.615 10.1332C723.266 10.9229 725.458 12.1054 727.261 13.6429L729.857 10.5996L732.452 7.55627C729.722 5.22715 726.514 3.54295 722.899 2.46607L721.757 6.29961ZM729.857 10.5996L727.358 13.7231C729.184 15.184 730.598 17.0064 731.612 19.2483L735.257 17.5996L738.901 15.9509C737.382 12.5928 735.196 9.74858 732.355 7.47613L729.857 10.5996ZM735.257 17.5996L731.662 19.3533C732.679 21.4395 733.257 24.0174 733.257 27.1996H737.257H741.257C741.257 23.0485 740.501 19.2264 738.852 15.8459L735.257 17.5996ZM737.257 27.1996H733.257C733.257 29.656 732.886 32.0482 732.144 34.3906L735.957 35.5996L739.77 36.8086C740.76 33.6843 741.257 30.4766 741.257 27.1996H737.257ZM735.957 35.5996L732.118 34.476C731.483 36.6431 730.398 38.6461 728.813 40.5038L731.857 43.0996L734.9 45.6954C737.182 43.0198 738.83 40.0228 739.796 36.7232L735.957 35.5996ZM731.857 43.0996L728.852 40.4591C727.358 42.1592 725.323 43.6422 722.625 44.8476L724.257 48.4996L725.888 52.1516C729.457 50.557 732.489 48.44 734.861 45.7401L731.857 43.0996ZM724.257 48.4996L722.662 44.8313C720.243 45.8828 717.025 46.4996 712.857 46.4996V50.4996V54.4996C717.755 54.4996 722.137 53.7831 725.852 52.1679L724.257 48.4996ZM712.857 50.4996V46.4996H702.157V50.4996V54.4996H712.857V50.4996ZM702.157 50.4996H698.157V77.0996H702.157H706.157V50.4996H702.157ZM702.157 77.0996V73.0996H692.457V77.0996V81.0996H702.157V77.0996ZM692.457 77.0996H696.457V4.7996H692.457H688.457V77.0996H692.457ZM692.457 4.7996V8.7996H711.657V4.7996V0.799604H692.457V4.7996ZM712.657 41.1996V45.1996C715.891 45.1996 718.882 44.7158 721.441 43.5276L719.757 39.8996L718.072 36.2716C716.898 36.8167 715.156 37.1996 712.657 37.1996V41.1996ZM719.757 39.8996L721.393 43.5496C723.769 42.4843 725.832 41.0336 727.38 39.0984L724.257 36.5996L721.133 34.1008C720.548 34.8323 719.611 35.5815 718.12 36.2496L719.757 39.8996ZM724.257 36.5996L727.438 39.0238C728.786 37.2553 729.785 35.3171 730.397 33.2196L726.557 32.0996L722.717 30.9796C722.395 32.0822 721.861 33.1439 721.075 34.1754L724.257 36.5996ZM726.557 32.0996L730.397 33.2196C730.95 31.3228 731.257 29.4426 731.257 27.5996H727.257H723.257C723.257 28.5566 723.097 29.6764 722.717 30.9796L726.557 32.0996ZM727.257 27.5996H731.257C731.257 25.6404 730.899 23.6965 730.235 21.7855L726.457 23.0996L722.679 24.4137C723.081 25.5694 723.257 26.6255 723.257 27.5996H727.257ZM726.457 23.0996L730.297 21.9796C729.664 19.8122 728.584 17.8494 727.104 16.109L724.057 18.6996L721.009 21.2902C721.796 22.2164 722.315 23.187 722.617 24.2196L726.457 23.0996ZM724.057 18.6996L727.18 16.2008C725.681 14.3267 723.74 12.8782 721.492 11.7956L719.757 15.3996L718.021 19.0036C719.373 19.6544 720.299 20.4059 720.933 21.1984L724.057 18.6996ZM719.757 15.3996L721.545 11.8219C719.113 10.6056 716.327 10.0996 713.357 10.0996V14.0996V18.0996C715.453 18.0996 716.934 18.4602 717.968 18.9773L719.757 15.3996ZM713.357 14.0996V10.0996H702.157V14.0996V18.0996H713.357V14.0996ZM702.157 14.0996H698.157V41.1996H702.157H706.157V14.0996H702.157ZM702.157 41.1996V45.1996H712.657V41.1996V37.1996H702.157V41.1996ZM724.557 46.6996L721.16 48.8116L740.06 79.2116L743.457 77.0996L746.854 74.9877L727.954 44.5877L724.557 46.6996ZM743.457 77.0996V73.0996H732.257V77.0996V81.0996H743.457V77.0996ZM732.257 77.0996L735.629 74.9485L716.429 44.8485L713.057 46.9996L709.684 49.1507L728.884 79.2507L732.257 77.0996ZM713.057 46.9996L713.161 50.9982L724.661 50.6982L724.557 46.6996L724.452 42.701L712.952 43.001L713.057 46.9996ZM773.375 4.7996V0.799604H769.375V4.7996H773.375ZM820.375 4.7996H824.375V0.799604H820.375V4.7996ZM820.375 14.0996V18.0996H824.375V14.0996H820.375ZM783.075 14.0996V10.0996H779.075V14.0996H783.075ZM783.075 36.0996H779.075V40.0996H783.075V36.0996ZM816.375 36.0996H820.375V32.0996H816.375V36.0996ZM816.375 45.3996V49.3996H820.375V45.3996H816.375ZM783.075 45.3996V41.3996H779.075V45.3996H783.075ZM783.075 67.7996H779.075V71.7996H783.075V67.7996ZM821.775 67.7996H825.775V63.7996H821.775V67.7996ZM821.775 77.0996V81.0996H825.775V77.0996H821.775ZM773.375 77.0996H769.375V81.0996H773.375V77.0996ZM773.375 4.7996V8.7996H820.375V4.7996V0.799604H773.375V4.7996ZM820.375 4.7996H816.375V14.0996H820.375H824.375V4.7996H820.375ZM820.375 14.0996V10.0996H783.075V14.0996V18.0996H820.375V14.0996ZM783.075 14.0996H779.075V36.0996H783.075H787.075V14.0996H783.075ZM783.075 36.0996V40.0996H816.375V36.0996V32.0996H783.075V36.0996ZM816.375 36.0996H812.375V45.3996H816.375H820.375V36.0996H816.375ZM816.375 45.3996V41.3996H783.075V45.3996V49.3996H816.375V45.3996ZM783.075 45.3996H779.075V67.7996H783.075H787.075V45.3996H783.075ZM783.075 67.7996V71.7996H821.775V67.7996V63.7996H783.075V67.7996ZM821.775 67.7996H817.775V77.0996H821.775H825.775V67.7996H821.775ZM821.775 77.0996V73.0996H773.375V77.0996V81.0996H821.775V77.0996ZM773.375 77.0996H777.375V4.7996H773.375H769.375V77.0996H773.375ZM891.009 17.6996L889.182 21.2579L892.779 23.1048L894.587 19.4885L891.009 17.6996ZM865.009 15.6996L862.566 12.5325L862.543 12.5497L862.521 12.5672L865.009 15.6996ZM863.809 28.6996L860.86 31.4025L860.889 31.4338L860.918 31.4645L863.809 28.6996ZM869.609 32.6996L871.317 29.0826L871.317 29.0826L869.609 32.6996ZM877.109 35.8996L875.673 39.633L875.68 39.6358L877.109 35.8996ZM889.709 42.7996L886.996 45.7388L887.023 45.7643L887.052 45.7892L889.709 42.7996ZM893.909 48.6996L890.232 50.2753L890.251 50.3192L890.271 50.3626L893.909 48.6996ZM892.609 67.7996L889.205 65.6992L889.189 65.7257L889.173 65.7524L892.609 67.7996ZM884.509 75.1996L886.325 78.7638L884.509 75.1996ZM862.709 76.7996L861.718 80.6748L861.728 80.6775L861.739 80.6802L862.709 76.7996ZM854.709 73.9996L852.959 77.5965L852.999 77.6159L853.039 77.6343L854.709 73.9996ZM848.109 70.2996L844.628 68.3299L842.782 71.5916L845.917 73.6455L848.109 70.2996ZM852.409 62.6996L854.721 59.4355L851.108 56.8762L848.928 60.7299L852.409 62.6996ZM857.909 65.9996L856.074 69.5541L856.12 69.5778L856.167 69.6002L857.909 65.9996ZM864.409 68.4996L863.28 72.3371L863.333 72.3525L863.385 72.3664L864.409 68.4996ZM877.709 68.1996L879.076 71.9588L879.107 71.9476L879.138 71.9358L877.709 68.1996ZM883.309 64.2996L886.363 66.8834L886.363 66.8834L883.309 64.2996ZM883.509 51.2996L880.324 53.7199L880.379 53.7914L880.436 53.8603L883.509 51.2996ZM878.409 47.0996L876.448 50.5859L876.49 50.6095L876.532 50.6321L878.409 47.0996ZM871.609 43.8996L873.059 40.1716L873.048 40.1675L873.038 40.1634L871.609 43.8996ZM864.709 41.0996L863.046 44.7375L863.089 44.7574L863.133 44.7762L864.709 41.0996ZM858.209 37.2996L855.775 40.474L855.809 40.5L855.844 40.5252L858.209 37.2996ZM854.309 13.7996L850.957 11.6169L850.951 11.6267L850.944 11.6366L854.309 13.7996ZM861.909 7.0996L863.698 10.6773L863.727 10.6625L863.757 10.6473L861.909 7.0996ZM872.909 4.3996V0.399604H872.844L872.78 0.401683L872.909 4.3996ZM885.209 6.09961L883.987 9.90847L883.998 9.91176L884.008 9.915L885.209 6.09961ZM894.709 10.2996L898.287 12.0885L899.931 8.79904L896.791 6.88442L894.709 10.2996ZM891.009 17.6996L892.836 14.1413C890.152 12.7629 887.244 11.5813 884.122 10.5879L882.909 14.3996L881.696 18.2113C884.441 19.0846 886.933 20.1029 889.182 21.2579L891.009 17.6996ZM882.909 14.3996L884.122 10.5879C880.835 9.5421 877.559 8.99961 874.309 8.99961V12.9996V16.9996C876.659 16.9996 879.116 17.3904 881.696 18.2113L882.909 14.3996ZM874.309 12.9996V8.99961C869.835 8.99961 865.79 10.045 862.566 12.5325L865.009 15.6996L867.452 18.8667C868.894 17.7543 871.05 16.9996 874.309 16.9996V12.9996ZM865.009 15.6996L862.521 12.5672C859.26 15.1575 857.609 18.7311 857.609 22.8996H861.609H865.609C865.609 21.0681 866.225 19.8417 867.497 18.832L865.009 15.6996ZM861.609 22.8996H857.609C857.609 26.1183 858.685 29.0296 860.86 31.4025L863.809 28.6996L866.758 25.9967C865.999 25.1696 865.609 24.2143 865.609 22.8996H861.609ZM863.809 28.6996L860.918 31.4645C862.797 33.4283 865.165 35.0245 867.901 36.3166L869.609 32.6996L871.317 29.0826C869.253 28.108 867.754 27.0376 866.7 25.9347L863.809 28.6996ZM869.609 32.6996L867.901 36.3166C870.394 37.4941 872.985 38.5993 875.673 39.633L877.109 35.8996L878.545 32.1662C876.032 31.1999 873.624 30.1718 871.317 29.0826L869.609 32.6996ZM877.109 35.8996L875.68 39.6358C877.839 40.4611 879.967 41.382 882.064 42.3989L883.809 38.7996L885.554 35.2004C883.251 34.0839 880.912 33.0715 878.538 32.1634L877.109 35.8996ZM883.809 38.7996L882.064 42.3989C883.924 43.3005 885.561 44.4148 886.996 45.7388L889.709 42.7996L892.422 39.8604C890.39 37.9844 888.094 36.432 885.554 35.2004L883.809 38.7996ZM889.709 42.7996L887.052 45.7892C888.388 46.9775 889.451 48.4525 890.232 50.2753L893.909 48.6996L897.586 47.1239C896.367 44.28 894.63 41.8217 892.366 39.81L889.709 42.7996ZM893.909 48.6996L890.271 50.3626C891.031 52.0247 891.509 54.3162 891.509 57.3996H895.509H899.509C899.509 53.5497 898.92 50.0412 897.547 47.0366L893.909 48.6996ZM895.509 57.3996H891.509C891.509 60.4828 890.736 63.2182 889.205 65.6992L892.609 67.7996L896.013 69.9C898.349 66.1144 899.509 61.9164 899.509 57.3996H895.509ZM892.609 67.7996L889.173 65.7524C887.726 68.1809 885.615 70.147 882.693 71.6355L884.509 75.1996L886.325 78.7638C890.47 76.6522 893.759 73.685 896.045 69.8468L892.609 67.7996ZM884.509 75.1996L882.693 71.6355C879.836 73.0911 876.286 73.8996 871.909 73.8996V77.8996V81.8996C877.266 81.8996 882.115 80.9081 886.325 78.7638L884.509 75.1996ZM871.909 77.8996V73.8996C869.017 73.8996 866.277 73.5686 863.679 72.919L862.709 76.7996L861.739 80.6802C865.007 81.4973 868.401 81.8996 871.909 81.8996V77.8996ZM862.709 76.7996L863.7 72.9244C861.046 72.2454 858.609 71.3893 856.379 70.3649L854.709 73.9996L853.039 77.6343C855.743 78.8766 858.639 79.8872 861.718 80.6748L862.709 76.7996ZM854.709 73.9996L856.459 70.4027C854.118 69.2636 852.069 68.1122 850.301 66.9538L848.109 70.2996L845.917 73.6455C848.015 75.0204 850.367 76.3356 852.959 77.5965L854.709 73.9996ZM848.109 70.2996L851.59 72.2693L855.89 64.6693L852.409 62.6996L848.928 60.7299L844.628 68.3299L848.109 70.2996ZM852.409 62.6996L850.097 65.9637C851.874 67.2225 853.872 68.4171 856.074 69.5541L857.909 65.9996L859.744 62.4451C857.813 61.4488 856.144 60.4434 854.721 59.4355L852.409 62.6996ZM857.909 65.9996L856.167 69.6002C858.437 70.6986 860.809 71.6102 863.28 72.3371L864.409 68.4996L865.538 64.6621C863.476 64.0556 861.515 63.3006 859.651 62.399L857.909 65.9996ZM864.409 68.4996L863.385 72.3664C865.953 73.0462 868.498 73.3996 871.009 73.3996V69.3996V65.3996C869.253 65.3996 867.398 65.153 865.433 64.6328L864.409 68.4996ZM871.009 69.3996V73.3996C873.757 73.3996 876.452 72.9128 879.076 71.9588L877.709 68.1996L876.342 64.4404C874.566 65.0864 872.794 65.3996 871.009 65.3996V69.3996ZM877.709 68.1996L879.138 71.9358C881.99 70.8453 884.43 69.1671 886.363 66.8834L883.309 64.2996L880.255 61.7158C879.254 62.8988 877.962 63.8206 876.28 64.4634L877.709 68.1996ZM883.309 64.2996L886.363 66.8834C888.587 64.2544 889.509 60.9572 889.509 57.3996H885.509H881.509C881.509 59.5754 880.964 60.8782 880.255 61.7158L883.309 64.2996ZM885.509 57.3996H889.509C889.509 54.1777 888.62 51.1852 886.582 48.7389L883.509 51.2996L880.436 53.8603C881.064 54.614 881.509 55.6882 881.509 57.3996H885.509ZM883.509 51.2996L886.694 48.8793C885.027 46.6858 882.852 44.9305 880.286 43.5671L878.409 47.0996L876.532 50.6321C878.233 51.5354 879.458 52.5801 880.324 53.7199L883.509 51.2996ZM878.409 47.0996L880.37 43.6133C878.064 42.3161 875.626 41.1698 873.059 40.1716L871.609 43.8996L870.159 47.6276C872.392 48.4961 874.487 49.4831 876.448 50.5859L878.409 47.0996ZM871.609 43.8996L873.038 40.1634C870.823 39.3165 868.572 38.4031 866.285 37.423L864.709 41.0996L863.133 44.7762C865.513 45.7961 867.862 46.7494 870.18 47.6358L871.609 43.8996ZM864.709 41.0996L866.372 37.4617C864.278 36.5043 862.348 35.3742 860.574 34.074L858.209 37.2996L855.844 40.5252C858.07 42.1583 860.474 43.5616 863.046 44.7375L864.709 41.0996ZM858.209 37.2996L860.643 34.1252C859.083 32.9297 857.852 31.491 856.921 29.7842L853.409 31.6996L849.897 33.615C851.366 36.3082 853.335 38.6029 855.775 40.474L858.209 37.2996ZM853.409 31.6996L856.921 29.7842C856.112 28.3011 855.609 26.3284 855.609 23.6996H851.609H847.609C847.609 27.3375 848.306 30.6981 849.897 33.615L853.409 31.6996ZM851.609 23.6996H855.609C855.609 20.5551 856.345 18.0297 857.674 15.9626L854.309 13.7996L850.944 11.6366C848.673 15.1695 847.609 19.2441 847.609 23.6996H851.609ZM854.309 13.7996L857.661 15.9823C859.122 13.7391 861.103 11.9746 863.698 10.6773L861.909 7.0996L860.12 3.5219C856.315 5.42456 853.23 8.12677 850.957 11.6169L854.309 13.7996ZM861.909 7.0996L863.757 10.6473C866.352 9.29551 869.416 8.51435 873.038 8.39752L872.909 4.3996L872.78 0.401683C868.135 0.551526 863.866 1.57037 860.061 3.55195L861.909 7.0996ZM872.909 4.3996V8.3996C877.263 8.3996 880.935 8.92954 883.987 9.90847L885.209 6.09961L886.431 2.29074C882.416 1.003 877.888 0.399604 872.909 0.399604V4.3996ZM885.209 6.09961L884.008 9.915C887.352 10.9679 890.214 12.2436 892.627 13.7148L894.709 10.2996L896.791 6.88442C893.738 5.02233 890.266 3.49797 886.41 2.28421L885.209 6.09961ZM894.709 10.2996L891.131 8.51075L887.431 15.9107L891.009 17.6996L894.587 19.4885L898.287 12.0885L894.709 10.2996Z" fill="#12274B" mask="url(#path-1-outside-1_140_525)"/>
</svg>
