<svg width="1032" height="94" viewBox="0 0 1032 94" fill="none" xmlns="http://www.w3.org/2000/svg">
<mask id="path-1-outside-1_1_110" maskUnits="userSpaceOnUse" x="0" y="0" width="1032" height="94" fill="black">
<rect fill="white" width="1032" height="94"/>
<path d="M23.7 7.7C28.9667 7.7 33.4667 8.6 37.2 10.4C40.9333 12.1333 43.8 14.6667 45.8 18C47.8667 21.3333 48.9 25.3667 48.9 30.1C48.9 32.9667 48.4667 35.8 47.6 38.6C46.7333 41.3333 45.3333 43.8333 43.4 46.1C41.5333 48.3 39.0667 50.0667 36 51.4C32.9333 52.7333 29.2 53.4 24.8 53.4H14.1V80H4.4V7.7H23.7ZM24.7 44.1C27.5667 44.1 29.9333 43.6333 31.8 42.7C33.6667 41.7667 35.1333 40.6 36.2 39.2C37.2667 37.7333 38.0333 36.2 38.5 34.6C38.9667 33 39.2 31.5667 39.2 30.3C39.2 28.8333 38.9667 27.3333 38.5 25.8C38.0333 24.2 37.2333 22.7667 36.1 21.5C35.0333 20.1667 33.6 19.1 31.8 18.3C30.0667 17.4333 27.9 17 25.3 17H14.1V44.1H24.7ZM82.5727 54.4C82.5727 57.6667 83.3393 60.6 84.8727 63.2C86.4727 65.7333 88.5727 67.7333 91.1727 69.2C93.7727 70.6667 96.706 71.4 99.9727 71.4C103.373 71.4 106.406 70.6667 109.073 69.2C111.739 67.7333 113.839 65.7333 115.373 63.2C116.906 60.6 117.673 57.6667 117.673 54.4V7.7H127.173V54.7C127.173 59.9667 125.939 64.5667 123.473 68.5C121.073 72.4333 117.806 75.4667 113.673 77.6C109.606 79.7333 105.039 80.8 99.9727 80.8C94.906 80.8 90.3393 79.7333 86.2727 77.6C82.206 75.4667 78.9727 72.4333 76.5727 68.5C74.1727 64.5667 72.9727 59.9667 72.9727 54.7V7.7H82.5727V54.4ZM219.617 82.3L163.717 25.6L166.517 26.3L166.717 80H157.017V5.49999H157.517L212.817 62.4L210.517 61.9L210.317 7.7H219.917V82.3H219.617ZM245.409 7.7H293.409V17H274.009V80H264.309V17H245.409V7.7ZM311.287 43.9C311.287 38.9 312.22 34.2 314.087 29.8C316.02 25.3333 318.687 21.4 322.087 18C325.487 14.5333 329.387 11.8333 333.787 9.9C338.253 7.9 343.053 6.9 348.187 6.9C353.253 6.9 357.987 7.9 362.387 9.9C366.853 11.8333 370.787 14.5333 374.187 18C377.653 21.4 380.353 25.3333 382.287 29.8C384.22 34.2 385.187 38.9 385.187 43.9C385.187 49.0333 384.22 53.8333 382.287 58.3C380.353 62.7667 377.653 66.7 374.187 70.1C370.787 73.4333 366.853 76.0667 362.387 78C357.987 79.8667 353.253 80.8 348.187 80.8C343.053 80.8 338.253 79.8667 333.787 78C329.387 76.1333 325.487 73.5333 322.087 70.2C318.687 66.8667 316.02 62.9667 314.087 58.5C312.22 54.0333 311.287 49.1667 311.287 43.9ZM321.287 44C321.287 47.8 321.987 51.3667 323.387 54.7C324.787 57.9667 326.72 60.8667 329.187 63.4C331.653 65.9333 334.52 67.9333 337.787 69.4C341.053 70.8 344.587 71.5 348.387 71.5C352.12 71.5 355.62 70.8 358.887 69.4C362.153 67.9333 364.987 65.9333 367.387 63.4C369.787 60.8667 371.687 57.9667 373.087 54.7C374.487 51.3667 375.187 47.7667 375.187 43.9C375.187 40.1 374.487 36.5333 373.087 33.2C371.687 29.8 369.753 26.8333 367.287 24.3C364.82 21.7667 361.953 19.8 358.687 18.4C355.42 16.9333 351.92 16.2 348.187 16.2C344.387 16.2 340.853 16.9333 337.587 18.4C334.32 19.8667 331.453 21.8667 328.987 24.4C326.52 26.9333 324.62 29.9 323.287 33.3C321.953 36.6333 321.287 40.2 321.287 44ZM453.17 80V7.7H472.87C480.003 7.7 486.07 8.79999 491.07 11C496.136 13.2 500.203 16.1 503.27 19.7C506.336 23.3 508.57 27.3 509.97 31.7C511.436 36.0333 512.17 40.3667 512.17 44.7C512.17 50.1667 511.203 55.0667 509.27 59.4C507.403 63.7333 504.803 67.4333 501.47 70.5C498.136 73.5667 494.303 75.9333 489.97 77.6C485.703 79.2 481.17 80 476.37 80H453.17ZM462.87 70.7H474.47C478.47 70.7 482.136 70.1 485.47 68.9C488.87 67.7 491.803 65.9667 494.27 63.7C496.803 61.4333 498.77 58.6667 500.17 55.4C501.57 52.0667 502.27 48.3 502.27 44.1C502.27 39.6333 501.536 35.7333 500.07 32.4C498.603 29 496.603 26.1667 494.07 23.9C491.536 21.6333 488.67 19.9333 485.47 18.8C482.27 17.6 478.903 17 475.37 17H462.87V70.7ZM538.463 7.7H585.463V17H548.163V39H581.463V48.3H548.163V70.7H586.862V80H538.463V7.7ZM660.538 7.7L684.338 67.5L678.838 66.4L701.437 7.7H712.738L680.838 83.3L649.038 7.7H660.538ZM737.213 7.7H784.213V17H746.913V39H780.213V48.3H746.913V70.7H785.612V80H737.213V7.7ZM875.047 82.3L819.147 25.6L821.947 26.3L822.147 80H812.447V5.49999H812.947L868.247 62.4L865.947 61.9L865.747 7.7H875.347V82.3H875.047ZM900.838 7.7H948.838V17H929.438V80H919.738V17H900.838V7.7ZM961.38 80L992.98 4.7H993.58L1025.08 80H1013.98L990.38 19.9L997.28 15.4L970.88 80H961.38ZM979.88 52.6H1006.78L1009.98 61H977.08L979.88 52.6Z"/>
</mask>
<path d="M23.7 7.7C28.9667 7.7 33.4667 8.6 37.2 10.4C40.9333 12.1333 43.8 14.6667 45.8 18C47.8667 21.3333 48.9 25.3667 48.9 30.1C48.9 32.9667 48.4667 35.8 47.6 38.6C46.7333 41.3333 45.3333 43.8333 43.4 46.1C41.5333 48.3 39.0667 50.0667 36 51.4C32.9333 52.7333 29.2 53.4 24.8 53.4H14.1V80H4.4V7.7H23.7ZM24.7 44.1C27.5667 44.1 29.9333 43.6333 31.8 42.7C33.6667 41.7667 35.1333 40.6 36.2 39.2C37.2667 37.7333 38.0333 36.2 38.5 34.6C38.9667 33 39.2 31.5667 39.2 30.3C39.2 28.8333 38.9667 27.3333 38.5 25.8C38.0333 24.2 37.2333 22.7667 36.1 21.5C35.0333 20.1667 33.6 19.1 31.8 18.3C30.0667 17.4333 27.9 17 25.3 17H14.1V44.1H24.7ZM82.5727 54.4C82.5727 57.6667 83.3393 60.6 84.8727 63.2C86.4727 65.7333 88.5727 67.7333 91.1727 69.2C93.7727 70.6667 96.706 71.4 99.9727 71.4C103.373 71.4 106.406 70.6667 109.073 69.2C111.739 67.7333 113.839 65.7333 115.373 63.2C116.906 60.6 117.673 57.6667 117.673 54.4V7.7H127.173V54.7C127.173 59.9667 125.939 64.5667 123.473 68.5C121.073 72.4333 117.806 75.4667 113.673 77.6C109.606 79.7333 105.039 80.8 99.9727 80.8C94.906 80.8 90.3393 79.7333 86.2727 77.6C82.206 75.4667 78.9727 72.4333 76.5727 68.5C74.1727 64.5667 72.9727 59.9667 72.9727 54.7V7.7H82.5727V54.4ZM219.617 82.3L163.717 25.6L166.517 26.3L166.717 80H157.017V5.49999H157.517L212.817 62.4L210.517 61.9L210.317 7.7H219.917V82.3H219.617ZM245.409 7.7H293.409V17H274.009V80H264.309V17H245.409V7.7ZM311.287 43.9C311.287 38.9 312.22 34.2 314.087 29.8C316.02 25.3333 318.687 21.4 322.087 18C325.487 14.5333 329.387 11.8333 333.787 9.9C338.253 7.9 343.053 6.9 348.187 6.9C353.253 6.9 357.987 7.9 362.387 9.9C366.853 11.8333 370.787 14.5333 374.187 18C377.653 21.4 380.353 25.3333 382.287 29.8C384.22 34.2 385.187 38.9 385.187 43.9C385.187 49.0333 384.22 53.8333 382.287 58.3C380.353 62.7667 377.653 66.7 374.187 70.1C370.787 73.4333 366.853 76.0667 362.387 78C357.987 79.8667 353.253 80.8 348.187 80.8C343.053 80.8 338.253 79.8667 333.787 78C329.387 76.1333 325.487 73.5333 322.087 70.2C318.687 66.8667 316.02 62.9667 314.087 58.5C312.22 54.0333 311.287 49.1667 311.287 43.9ZM321.287 44C321.287 47.8 321.987 51.3667 323.387 54.7C324.787 57.9667 326.72 60.8667 329.187 63.4C331.653 65.9333 334.52 67.9333 337.787 69.4C341.053 70.8 344.587 71.5 348.387 71.5C352.12 71.5 355.62 70.8 358.887 69.4C362.153 67.9333 364.987 65.9333 367.387 63.4C369.787 60.8667 371.687 57.9667 373.087 54.7C374.487 51.3667 375.187 47.7667 375.187 43.9C375.187 40.1 374.487 36.5333 373.087 33.2C371.687 29.8 369.753 26.8333 367.287 24.3C364.82 21.7667 361.953 19.8 358.687 18.4C355.42 16.9333 351.92 16.2 348.187 16.2C344.387 16.2 340.853 16.9333 337.587 18.4C334.32 19.8667 331.453 21.8667 328.987 24.4C326.52 26.9333 324.62 29.9 323.287 33.3C321.953 36.6333 321.287 40.2 321.287 44ZM453.17 80V7.7H472.87C480.003 7.7 486.07 8.79999 491.07 11C496.136 13.2 500.203 16.1 503.27 19.7C506.336 23.3 508.57 27.3 509.97 31.7C511.436 36.0333 512.17 40.3667 512.17 44.7C512.17 50.1667 511.203 55.0667 509.27 59.4C507.403 63.7333 504.803 67.4333 501.47 70.5C498.136 73.5667 494.303 75.9333 489.97 77.6C485.703 79.2 481.17 80 476.37 80H453.17ZM462.87 70.7H474.47C478.47 70.7 482.136 70.1 485.47 68.9C488.87 67.7 491.803 65.9667 494.27 63.7C496.803 61.4333 498.77 58.6667 500.17 55.4C501.57 52.0667 502.27 48.3 502.27 44.1C502.27 39.6333 501.536 35.7333 500.07 32.4C498.603 29 496.603 26.1667 494.07 23.9C491.536 21.6333 488.67 19.9333 485.47 18.8C482.27 17.6 478.903 17 475.37 17H462.87V70.7ZM538.463 7.7H585.463V17H548.163V39H581.463V48.3H548.163V70.7H586.862V80H538.463V7.7ZM660.538 7.7L684.338 67.5L678.838 66.4L701.437 7.7H712.738L680.838 83.3L649.038 7.7H660.538ZM737.213 7.7H784.213V17H746.913V39H780.213V48.3H746.913V70.7H785.612V80H737.213V7.7ZM875.047 82.3L819.147 25.6L821.947 26.3L822.147 80H812.447V5.49999H812.947L868.247 62.4L865.947 61.9L865.747 7.7H875.347V82.3H875.047ZM900.838 7.7H948.838V17H929.438V80H919.738V17H900.838V7.7ZM961.38 80L992.98 4.7H993.58L1025.08 80H1013.98L990.38 19.9L997.28 15.4L970.88 80H961.38ZM979.88 52.6H1006.78L1009.98 61H977.08L979.88 52.6Z" fill="#12274B"/>
<path d="M37.2 10.4L35.4628 14.0031L35.4891 14.0157L35.5156 14.028L37.2 10.4ZM45.8 18L42.37 20.058L42.385 20.083L42.4004 20.1078L45.8 18ZM47.6 38.6L51.4129 39.809L51.4171 39.7959L51.4211 39.7827L47.6 38.6ZM43.4 46.1L40.3567 43.5042L40.35 43.5121L43.4 46.1ZM14.1 53.4V49.4H10.1V53.4H14.1ZM14.1 80V84H18.1V80H14.1ZM4.4 80H0.4V84H4.4V80ZM4.4 7.7V3.7H0.4V7.7H4.4ZM36.2 39.2L39.3817 41.6242L39.4087 41.5887L39.4349 41.5527L36.2 39.2ZM38.5 34.6L34.66 33.48L38.5 34.6ZM38.5 25.8L34.66 26.92L34.6665 26.9424L34.6733 26.9646L38.5 25.8ZM36.1 21.5L32.9765 23.9988L33.0455 24.0849L33.119 24.1672L36.1 21.5ZM31.8 18.3L30.0111 21.8777L30.0924 21.9183L30.1754 21.9552L31.8 18.3ZM14.1 17V13H10.1V17H14.1ZM14.1 44.1H10.1V48.1H14.1V44.1ZM23.7 7.7V11.7C28.523 11.7 32.3975 12.5252 35.4628 14.0031L37.2 10.4L38.9372 6.79692C34.5358 4.67483 29.4104 3.7 23.7 3.7V7.7ZM37.2 10.4L35.5156 14.028C38.5681 15.4453 40.8066 17.4522 42.37 20.058L45.8 18L49.23 15.942C46.7934 11.8811 43.2985 8.82136 38.8844 6.77196L37.2 10.4ZM45.8 18L42.4004 20.1078C44.0003 22.6882 44.9 25.9565 44.9 30.1H48.9H52.9C52.9 24.7768 51.7331 19.9785 49.1996 15.8922L45.8 18ZM48.9 30.1H44.9C44.9 32.5567 44.5297 34.9916 43.7789 37.4173L47.6 38.6L51.4211 39.7827C52.4037 36.6084 52.9 33.3767 52.9 30.1H48.9ZM47.6 38.6L43.7871 37.391C43.0881 39.5955 41.9573 41.6277 40.3567 43.5042L43.4 46.1L46.4433 48.6958C48.7094 46.039 50.3786 43.0712 51.4129 39.809L47.6 38.6ZM43.4 46.1L40.35 43.5121C38.9377 45.1765 36.9996 46.6037 34.4051 47.7317L36 51.4L37.5949 55.0683C41.1337 53.5297 44.1289 51.4235 46.45 48.6879L43.4 46.1ZM36 51.4L34.4051 47.7317C31.9737 48.7889 28.8162 49.4 24.8 49.4V53.4V57.4C29.5838 57.4 33.893 56.6778 37.5949 55.0683L36 51.4ZM24.8 53.4V49.4H14.1V53.4V57.4H24.8V53.4ZM14.1 53.4H10.1V80H14.1H18.1V53.4H14.1ZM14.1 80V76H4.4V80V84H14.1V80ZM4.4 80H8.4V7.7H4.4H0.4V80H4.4ZM4.4 7.7V11.7H23.7V7.7V3.7H4.4V7.7ZM24.7 44.1V48.1C27.9682 48.1 30.9991 47.5726 33.5889 46.2777L31.8 42.7L30.0111 39.1223C28.8676 39.6941 27.1652 40.1 24.7 40.1V44.1ZM31.8 42.7L33.5889 46.2777C35.9011 45.1216 37.8823 43.5922 39.3817 41.6242L36.2 39.2L33.0183 36.7758C32.3844 37.6078 31.4322 38.4118 30.0111 39.1223L31.8 42.7ZM36.2 39.2L39.4349 41.5527C40.7489 39.7459 41.7333 37.8001 42.34 35.72L38.5 34.6L34.66 33.48C34.3334 34.5999 33.7844 35.7207 32.9651 36.8473L36.2 39.2ZM38.5 34.6L42.34 35.72C42.8814 33.8637 43.2 32.0435 43.2 30.3H39.2H35.2C35.2 31.0899 35.0519 32.1363 34.66 33.48L38.5 34.6ZM39.2 30.3H43.2C43.2 28.4039 42.8977 26.5114 42.3267 24.6353L38.5 25.8L34.6733 26.9646C35.0357 28.1552 35.2 29.2628 35.2 30.3H39.2ZM38.5 25.8L42.34 24.68C41.7027 22.495 40.6044 20.5355 39.081 18.8328L36.1 21.5L33.119 24.1672C33.8623 24.9978 34.364 25.905 34.66 26.92L38.5 25.8ZM36.1 21.5L39.2235 19.0012C37.6995 17.0962 35.7193 15.6646 33.4246 14.6448L31.8 18.3L30.1754 21.9552C31.4807 22.5354 32.3672 23.2371 32.9765 23.9988L36.1 21.5ZM31.8 18.3L33.5889 14.7223C31.1437 13.4997 28.3186 13 25.3 13V17V21C27.4814 21 28.9896 21.367 30.0111 21.8777L31.8 18.3ZM25.3 17V13H14.1V17V21H25.3V17ZM14.1 17H10.1V44.1H14.1H18.1V17H14.1ZM14.1 44.1V48.1H24.7V44.1V40.1H14.1V44.1ZM84.8727 63.2L81.4272 65.2319L81.4582 65.2844L81.4907 65.336L84.8727 63.2ZM91.1727 69.2L89.2074 72.6839L91.1727 69.2ZM109.073 69.2L111 72.7049L109.073 69.2ZM115.373 63.2L118.795 65.2712L118.807 65.2516L118.818 65.2319L115.373 63.2ZM117.673 7.7V3.7H113.673V7.7H117.673ZM127.173 7.7H131.173V3.7H127.173V7.7ZM123.473 68.5L120.084 66.3748L120.071 66.3956L120.058 66.4165L123.473 68.5ZM113.673 77.6L111.838 74.0455L111.826 74.0516L111.814 74.0578L113.673 77.6ZM86.2727 77.6L88.1309 74.0578L86.2727 77.6ZM76.5727 68.5L79.9872 66.4165L76.5727 68.5ZM72.9727 7.7V3.7H68.9727V7.7H72.9727ZM82.5727 7.7H86.5727V3.7H82.5727V7.7ZM82.5727 54.4H78.5727C78.5727 58.3206 79.5011 61.966 81.4272 65.2319L84.8727 63.2L88.3181 61.1681C87.1775 59.234 86.5727 57.0127 86.5727 54.4H82.5727ZM84.8727 63.2L81.4907 65.336C83.4427 68.4267 86.0287 70.8908 89.2074 72.6839L91.1727 69.2L93.1379 65.7161C91.1167 64.5759 89.5026 63.0399 88.2546 61.064L84.8727 63.2ZM91.1727 69.2L89.2074 72.6839C92.4626 74.5202 96.0841 75.4 99.9727 75.4V71.4V67.4C97.3279 67.4 95.0827 66.8131 93.1379 65.7161L91.1727 69.2ZM99.9727 71.4V75.4C103.966 75.4 107.676 74.533 111 72.7049L109.073 69.2L107.145 65.6951C105.136 66.8003 102.779 67.4 99.9727 67.4V71.4ZM109.073 69.2L111 72.7049C114.264 70.9096 116.887 68.4225 118.795 65.2712L115.373 63.2L111.951 61.1288C110.791 63.0441 109.214 64.5571 107.145 65.6951L109.073 69.2ZM115.373 63.2L118.818 65.2319C120.744 61.966 121.673 58.3206 121.673 54.4H117.673H113.673C113.673 57.0127 113.068 59.234 111.927 61.1681L115.373 63.2ZM117.673 54.4H121.673V7.7H117.673H113.673V54.4H117.673ZM117.673 7.7V11.7H127.173V7.7V3.7H117.673V7.7ZM127.173 7.7H123.173V54.7H127.173H131.173V7.7H127.173ZM127.173 54.7H123.173C123.173 59.3186 122.099 63.1608 120.084 66.3748L123.473 68.5L126.861 70.6252C129.779 65.9725 131.173 60.6148 131.173 54.7H127.173ZM123.473 68.5L120.058 66.4165C118.044 69.7178 115.326 72.2451 111.838 74.0455L113.673 77.6L115.507 81.1545C120.286 78.6882 124.102 75.1489 126.887 70.5835L123.473 68.5ZM113.673 77.6L111.814 74.0578C108.378 75.8603 104.46 76.8 99.9727 76.8V80.8V84.8C105.619 84.8 110.834 83.6064 115.531 81.1422L113.673 77.6ZM99.9727 80.8V76.8C95.4852 76.8 91.5669 75.8603 88.1309 74.0578L86.2727 77.6L84.4145 81.1422C89.1118 83.6064 94.3268 84.8 99.9727 84.8V80.8ZM86.2727 77.6L88.1309 74.0578C84.7077 72.2621 82.0114 69.7339 79.9872 66.4165L76.5727 68.5L73.1581 70.5835C75.9339 75.1328 79.7043 78.6713 84.4145 81.1422L86.2727 77.6ZM76.5727 68.5L79.9872 66.4165C78.0224 63.1964 76.9727 59.3389 76.9727 54.7H72.9727H68.9727C68.9727 60.5944 70.3229 65.9369 73.1581 70.5835L76.5727 68.5ZM72.9727 54.7H76.9727V7.7H72.9727H68.9727V54.7H72.9727ZM72.9727 7.7V11.7H82.5727V7.7V3.7H72.9727V7.7ZM82.5727 7.7H78.5727V54.4H82.5727H86.5727V7.7H82.5727ZM219.617 82.3L216.769 85.1083L217.944 86.3H219.617V82.3ZM163.717 25.6L164.687 21.7194L150.868 18.2646L160.869 28.4083L163.717 25.6ZM166.517 26.3L170.517 26.2851L170.506 23.174L167.487 22.4194L166.517 26.3ZM166.717 80V84H170.732L170.717 79.9851L166.717 80ZM157.017 80H153.017V84H157.017V80ZM157.017 5.49999V1.49999H153.017V5.49999H157.017ZM157.517 5.49999L160.386 2.71218L159.208 1.49999H157.517V5.49999ZM212.817 62.4L211.967 66.3087L224.933 69.1273L215.686 59.6122L212.817 62.4ZM210.517 61.9L206.517 61.9148L206.529 65.1264L209.667 65.8087L210.517 61.9ZM210.317 7.7V3.7H206.302L206.317 7.71476L210.317 7.7ZM219.917 7.7H223.917V3.7H219.917V7.7ZM219.917 82.3V86.3H223.917V82.3H219.917ZM219.617 82.3L222.466 79.4917L166.566 22.7917L163.717 25.6L160.869 28.4083L216.769 85.1083L219.617 82.3ZM163.717 25.6L162.747 29.4806L165.547 30.1806L166.517 26.3L167.487 22.4194L164.687 21.7194L163.717 25.6ZM166.517 26.3L162.517 26.3149L162.717 80.0149L166.717 80L170.717 79.9851L170.517 26.2851L166.517 26.3ZM166.717 80V76H157.017V80V84H166.717V80ZM157.017 80H161.017V5.49999H157.017H153.017V80H157.017ZM157.017 5.49999V9.49999H157.517V5.49999V1.49999H157.017V5.49999ZM157.517 5.49999L154.649 8.2878L209.949 65.1878L212.817 62.4L215.686 59.6122L160.386 2.71218L157.517 5.49999ZM212.817 62.4L213.667 58.4913L211.367 57.9913L210.517 61.9L209.667 65.8087L211.967 66.3087L212.817 62.4ZM210.517 61.9L214.517 61.8852L214.317 7.68523L210.317 7.7L206.317 7.71476L206.517 61.9148L210.517 61.9ZM210.317 7.7V11.7H219.917V7.7V3.7H210.317V7.7ZM219.917 7.7H215.917V82.3H219.917H223.917V7.7H219.917ZM219.917 82.3V78.3H219.617V82.3V86.3H219.917V82.3ZM245.409 7.7V3.7H241.409V7.7H245.409ZM293.409 7.7H297.409V3.7H293.409V7.7ZM293.409 17V21H297.409V17H293.409ZM274.009 17V13H270.009V17H274.009ZM274.009 80V84H278.009V80H274.009ZM264.309 80H260.309V84H264.309V80ZM264.309 17H268.309V13H264.309V17ZM245.409 17H241.409V21H245.409V17ZM245.409 7.7V11.7H293.409V7.7V3.7H245.409V7.7ZM293.409 7.7H289.409V17H293.409H297.409V7.7H293.409ZM293.409 17V13H274.009V17V21H293.409V17ZM274.009 17H270.009V80H274.009H278.009V17H274.009ZM274.009 80V76H264.309V80V84H274.009V80ZM264.309 80H268.309V17H264.309H260.309V80H264.309ZM264.309 17V13H245.409V17V21H264.309V17ZM245.409 17H249.409V7.7H245.409H241.409V17H245.409ZM314.087 29.8L310.416 28.2111L310.41 28.2244L310.404 28.2378L314.087 29.8ZM322.087 18L324.915 20.8284L324.929 20.8147L324.942 20.8008L322.087 18ZM333.787 9.9L335.396 13.5621L335.409 13.5564L335.421 13.5507L333.787 9.9ZM362.387 9.9L360.732 13.5415L360.765 13.5565L360.798 13.5709L362.387 9.9ZM374.187 18L371.331 20.8008L371.358 20.8286L371.386 20.8558L374.187 18ZM382.287 29.8L378.616 31.3889L378.62 31.399L378.625 31.4091L382.287 29.8ZM382.287 58.3L385.958 59.8889V59.8889L382.287 58.3ZM374.187 70.1L376.987 72.9563L376.988 72.9557L374.187 70.1ZM362.387 78L363.949 81.6823L363.962 81.6767L363.976 81.6709L362.387 78ZM333.787 78L332.225 81.6823L332.234 81.6865L332.244 81.6907L333.787 78ZM322.087 70.2L324.887 67.3437L322.087 70.2ZM314.087 58.5L310.396 60.0424L310.406 60.0657L310.416 60.0889L314.087 58.5ZM323.387 54.7L319.699 56.2489L319.704 56.2623L319.71 56.2757L323.387 54.7ZM329.187 63.4L326.321 66.1905L329.187 63.4ZM337.787 69.4L336.148 73.0491L336.18 73.0631L336.211 73.0766L337.787 69.4ZM358.887 69.4L360.462 73.0766L360.494 73.0631L360.525 73.0491L358.887 69.4ZM367.387 63.4L364.483 60.649L367.387 63.4ZM373.087 54.7L376.763 56.2757L376.769 56.2623L376.775 56.2489L373.087 54.7ZM373.087 33.2L369.388 34.723L369.393 34.736L369.399 34.7489L373.087 33.2ZM358.687 18.4L357.048 22.0491L357.08 22.0631L357.111 22.0766L358.687 18.4ZM337.587 18.4L335.948 14.7509V14.7509L337.587 18.4ZM328.987 24.4L326.121 21.6095L326.121 21.6095L328.987 24.4ZM323.287 33.3L327.001 34.7856L327.006 34.773L327.011 34.7603L323.287 33.3ZM311.287 43.9H315.287C315.287 39.4115 316.122 35.2453 317.769 31.3622L314.087 29.8L310.404 28.2378C308.318 33.1546 307.287 38.3885 307.287 43.9H311.287ZM314.087 29.8L317.758 31.3889C319.493 27.379 321.876 23.8676 324.915 20.8284L322.087 18L319.258 15.1716C315.497 18.9324 312.547 23.2877 310.416 28.2111L314.087 29.8ZM322.087 18L324.942 20.8008C327.989 17.6942 331.467 15.2882 335.396 13.5621L333.787 9.9L332.178 6.23792C327.306 8.37845 322.984 11.3725 319.231 15.1992L322.087 18ZM333.787 9.9L335.421 13.5507C339.349 11.7922 343.589 10.9 348.187 10.9V6.9V2.9C342.518 2.9 337.158 4.00779 332.152 6.24926L333.787 9.9ZM348.187 6.9V10.9C352.711 10.9 356.876 11.7891 360.732 13.5415L362.387 9.9L364.042 6.25853C359.097 4.01085 353.796 2.9 348.187 2.9V6.9ZM362.387 9.9L360.798 13.5709C364.791 15.2993 368.294 17.7042 371.331 20.8008L374.187 18L377.042 15.1992C373.28 11.3624 368.916 8.36735 363.976 6.22911L362.387 9.9ZM374.187 18L371.386 20.8558C374.482 23.8928 376.887 27.3956 378.616 31.3889L382.287 29.8L385.958 28.2111C383.819 23.271 380.824 18.9072 376.988 15.1442L374.187 18ZM382.287 29.8L378.625 31.4091C380.326 35.2814 381.187 39.4311 381.187 43.9H385.187H389.187C389.187 38.3689 388.114 33.1186 385.949 28.1909L382.287 29.8ZM385.187 43.9H381.187C381.187 48.5172 380.32 52.7732 378.616 56.7111L382.287 58.3L385.958 59.8889C388.12 54.8934 389.187 49.5495 389.187 43.9H385.187ZM382.287 58.3L378.616 56.7111C376.887 60.7044 374.482 64.2072 371.386 67.2442L374.187 70.1L376.988 72.9557C380.824 69.1928 383.819 64.829 385.958 59.8889L382.287 58.3ZM374.187 70.1L371.386 67.2437C368.345 70.2258 364.824 72.5863 360.798 74.3291L362.387 78L363.976 81.6709C368.882 79.547 373.229 76.6409 376.987 72.9563L374.187 70.1ZM362.387 78L360.825 74.3177C356.948 75.9623 352.749 76.8 348.187 76.8V80.8V84.8C353.757 84.8 359.026 83.771 363.949 81.6823L362.387 78ZM348.187 80.8V76.8C343.55 76.8 339.278 75.9597 335.329 74.3093L333.787 78L332.244 81.6907C337.229 83.7737 342.556 84.8 348.187 84.8V80.8ZM333.787 78L335.349 74.3177C331.408 72.6457 327.928 70.3253 324.887 67.3437L322.087 70.2L319.286 73.0563C323.045 76.7414 327.366 79.621 332.225 81.6823L333.787 78ZM322.087 70.2L324.887 67.3437C321.865 64.3807 319.49 60.9138 317.758 56.9111L314.087 58.5L310.416 60.0889C312.55 65.0196 315.509 69.3526 319.286 73.0563L322.087 70.2ZM314.087 58.5L317.777 56.9576C316.132 53.021 315.287 48.684 315.287 43.9H311.287H307.287C307.287 49.6493 308.308 55.0456 310.396 60.0424L314.087 58.5ZM321.287 44H317.287C317.287 48.3043 318.082 52.4003 319.699 56.2489L323.387 54.7L327.075 53.1511C325.891 50.333 325.287 47.2957 325.287 44H321.287ZM323.387 54.7L319.71 56.2757C321.303 59.9912 323.51 63.3035 326.321 66.1905L329.187 63.4L332.053 60.6095C329.93 58.4298 328.271 55.9421 327.063 53.1243L323.387 54.7ZM329.187 63.4L326.321 66.1905C329.143 69.0894 332.428 71.3787 336.148 73.0491L337.787 69.4L339.425 65.7509C336.612 64.4879 334.163 62.7772 332.053 60.6095L329.187 63.4ZM337.787 69.4L336.211 73.0766C340.009 74.7044 344.083 75.5 348.387 75.5V71.5V67.5C345.09 67.5 342.097 66.8956 339.362 65.7234L337.787 69.4ZM348.387 71.5V75.5C352.634 75.5 356.673 74.7007 360.462 73.0766L358.887 69.4L357.311 65.7234C354.567 66.8993 351.606 67.5 348.387 67.5V71.5ZM358.887 69.4L360.525 73.0491C364.255 71.3742 367.522 69.0734 370.291 66.151L367.387 63.4L364.483 60.649C362.452 62.7933 360.051 64.4924 357.248 65.7509L358.887 69.4ZM367.387 63.4L370.291 66.151C373.022 63.2682 375.181 59.9685 376.763 56.2757L373.087 54.7L369.41 53.1243C368.193 55.9648 366.552 58.4651 364.483 60.649L367.387 63.4ZM373.087 54.7L376.775 56.2489C378.395 52.3918 379.187 48.2612 379.187 43.9H375.187H371.187C371.187 47.2722 370.579 50.3415 369.399 53.1511L373.087 54.7ZM375.187 43.9H379.187C379.187 39.5957 378.391 35.4997 376.775 31.6511L373.087 33.2L369.399 34.7489C370.582 37.567 371.187 40.6043 371.187 43.9H375.187ZM373.087 33.2L376.785 31.677C375.199 27.8244 372.989 24.4229 370.153 21.5095L367.287 24.3L364.421 27.0905C366.517 29.2437 368.174 31.7756 369.388 34.723L373.087 33.2ZM367.287 24.3L370.153 21.5095C367.316 18.5968 364.011 16.3298 360.262 14.7234L358.687 18.4L357.111 22.0766C359.896 23.2701 362.324 24.9366 364.421 27.0905L367.287 24.3ZM358.687 18.4L360.325 14.7509C356.521 13.0431 352.46 12.2 348.187 12.2V16.2V20.2C351.38 20.2 354.319 20.8236 357.048 22.0491L358.687 18.4ZM348.187 16.2V12.2C343.857 12.2 339.761 13.0389 335.948 14.7509L337.587 18.4L339.225 22.0491C341.945 20.8277 344.916 20.2 348.187 20.2V16.2ZM337.587 18.4L335.948 14.7509C332.228 16.4212 328.944 18.7106 326.121 21.6095L328.987 24.4L331.853 27.1905C333.963 25.0228 336.412 23.3121 339.225 22.0491L337.587 18.4ZM328.987 24.4L326.121 21.6095C323.27 24.5373 321.084 27.9602 319.563 31.8396L323.287 33.3L327.011 34.7603C328.156 31.8398 329.77 29.3294 331.853 27.1905L328.987 24.4ZM323.287 33.3L319.573 31.8144C318.04 35.6474 317.287 39.7212 317.287 44H321.287H325.287C325.287 40.6787 325.867 37.6192 327.001 34.7856L323.287 33.3ZM453.17 80H449.17V84H453.17V80ZM453.17 7.7V3.7H449.17V7.7H453.17ZM491.07 11L489.459 14.6613L489.467 14.6652L489.476 14.669L491.07 11ZM503.27 19.7L506.315 17.1061V17.1061L503.27 19.7ZM509.97 31.7L506.158 32.9128L506.169 32.9477L506.181 32.9824L509.97 31.7ZM509.27 59.4L505.617 57.7702L505.606 57.7938L505.596 57.8175L509.27 59.4ZM501.47 70.5L498.761 67.5563H498.761L501.47 70.5ZM489.97 77.6L491.374 81.3453L491.39 81.3394L491.405 81.3334L489.97 77.6ZM462.87 70.7H458.87V74.7H462.87V70.7ZM485.47 68.9L484.138 65.128L484.126 65.1322L484.115 65.1364L485.47 68.9ZM494.27 63.7L491.602 60.719L491.583 60.7367L491.563 60.7547L494.27 63.7ZM500.17 55.4L503.846 56.9757L503.852 56.9623L503.857 56.9489L500.17 55.4ZM500.07 32.4L496.397 33.9844L496.402 33.9977L496.408 34.011L500.07 32.4ZM494.07 23.9L496.737 20.919V20.919L494.07 23.9ZM485.47 18.8L484.065 22.5453L484.099 22.5582L484.134 22.5705L485.47 18.8ZM462.87 17V13H458.87V17H462.87ZM453.17 80H457.17V7.7H453.17H449.17V80H453.17ZM453.17 7.7V11.7H472.87V7.7V3.7H453.17V7.7ZM472.87 7.7V11.7C479.61 11.7 485.096 12.7418 489.459 14.6613L491.07 11L492.68 7.33873C487.043 4.85821 480.396 3.7 472.87 3.7V7.7ZM491.07 11L489.476 14.669C494.077 16.6667 497.615 19.2302 500.225 22.2939L503.27 19.7L506.315 17.1061C502.791 12.9698 498.195 9.73325 492.663 7.33095L491.07 11ZM503.27 19.7L500.225 22.2939C502.955 25.4991 504.923 29.032 506.158 32.9128L509.97 31.7L513.781 30.4872C512.216 25.568 509.717 21.1009 506.315 17.1061L503.27 19.7ZM509.97 31.7L506.181 32.9824C507.515 36.9258 508.17 40.8266 508.17 44.7H512.17H516.17C516.17 39.9068 515.357 35.1409 513.758 30.4176L509.97 31.7ZM512.17 44.7H508.17C508.17 49.69 507.289 54.022 505.617 57.7702L509.27 59.4L512.922 61.0298C515.117 56.1113 516.17 50.6433 516.17 44.7H512.17ZM509.27 59.4L505.596 57.8175C503.942 61.6563 501.663 64.8863 498.761 67.5563L501.47 70.5L504.178 73.4437C507.942 69.9803 510.863 65.8104 512.943 60.9825L509.27 59.4ZM501.47 70.5L498.761 67.5563C495.808 70.2734 492.409 72.3761 488.534 73.8666L489.97 77.6L491.405 81.3334C496.197 79.4906 500.464 76.86 504.178 73.4437L501.47 70.5ZM489.97 77.6L488.565 73.8547C484.771 75.2774 480.716 76 476.37 76V80V84C481.623 84 486.635 83.1226 491.374 81.3453L489.97 77.6ZM476.37 80V76H453.17V80V84H476.37V80ZM462.87 70.7V74.7H474.47V70.7V66.7H462.87V70.7ZM474.47 70.7V74.7C478.872 74.7 483.004 74.0388 486.824 72.6636L485.47 68.9L484.115 65.1364C481.268 66.1612 478.067 66.7 474.47 66.7V70.7ZM485.47 68.9L486.801 72.672C490.671 71.306 494.082 69.3048 496.976 66.6453L494.27 63.7L491.563 60.7547C489.524 62.6285 487.068 64.094 484.138 65.128L485.47 68.9ZM494.27 63.7L496.937 66.681C499.925 64.0074 502.227 60.7538 503.846 56.9757L500.17 55.4L496.493 53.8243C495.312 56.5795 493.681 58.8593 491.602 60.719L494.27 63.7ZM500.17 55.4L503.857 56.9489C505.494 53.0524 506.27 48.7469 506.27 44.1H502.27H498.27C498.27 47.8531 497.645 51.0809 496.482 53.8511L500.17 55.4ZM502.27 44.1H506.27C506.27 39.2012 505.465 34.7313 503.731 30.789L500.07 32.4L496.408 34.011C497.607 36.7353 498.27 40.0655 498.27 44.1H502.27ZM500.07 32.4L503.742 30.8156C502.067 26.9309 499.74 23.6063 496.737 20.919L494.07 23.9L491.402 26.881C493.466 28.727 495.139 31.0691 496.397 33.9844L500.07 32.4ZM494.07 23.9L496.737 20.919C493.816 18.3054 490.497 16.337 486.805 15.0295L485.47 18.8L484.134 22.5705C486.842 23.5297 489.257 24.9612 491.402 26.881L494.07 23.9ZM485.47 18.8L486.874 15.0547C483.21 13.6806 479.366 13 475.37 13V17V21C478.44 21 481.329 21.5194 484.065 22.5453L485.47 18.8ZM475.37 17V13H462.87V17V21H475.37V17ZM462.87 17H458.87V70.7H462.87H466.87V17H462.87ZM538.463 7.7V3.7H534.463V7.7H538.463ZM585.463 7.7H589.463V3.7H585.463V7.7ZM585.463 17V21H589.463V17H585.463ZM548.162 17V13H544.162V17H548.162ZM548.162 39H544.162V43H548.162V39ZM581.463 39H585.463V35H581.463V39ZM581.463 48.3V52.3H585.463V48.3H581.463ZM548.162 48.3V44.3H544.162V48.3H548.162ZM548.162 70.7H544.162V74.7H548.162V70.7ZM586.862 70.7H590.862V66.7H586.862V70.7ZM586.862 80V84H590.862V80H586.862ZM538.463 80H534.463V84H538.463V80ZM538.463 7.7V11.7H585.463V7.7V3.7H538.463V7.7ZM585.463 7.7H581.463V17H585.463H589.463V7.7H585.463ZM585.463 17V13H548.162V17V21H585.463V17ZM548.162 17H544.162V39H548.162H552.162V17H548.162ZM548.162 39V43H581.463V39V35H548.162V39ZM581.463 39H577.463V48.3H581.463H585.463V39H581.463ZM581.463 48.3V44.3H548.162V48.3V52.3H581.463V48.3ZM548.162 48.3H544.162V70.7H548.162H552.162V48.3H548.162ZM548.162 70.7V74.7H586.862V70.7V66.7H548.162V70.7ZM586.862 70.7H582.862V80H586.862H590.862V70.7H586.862ZM586.862 80V76H538.463V80V84H586.862V80ZM538.463 80H542.463V7.7H538.463H534.463V80H538.463ZM660.537 7.7L664.254 6.22086L663.251 3.7H660.537V7.7ZM684.338 67.5L683.553 71.4223L690.779 72.8675L688.054 66.0209L684.338 67.5ZM678.838 66.4L675.105 64.9628L673.399 69.3916L678.053 70.3223L678.838 66.4ZM701.438 7.7V3.7H698.691L697.705 6.2628L701.438 7.7ZM712.737 7.7L716.423 9.25506L718.767 3.7H712.737V7.7ZM680.838 83.3L677.15 84.8509L680.832 93.6027L684.523 84.8551L680.838 83.3ZM649.037 7.7V3.7H643.016L645.35 9.25091L649.037 7.7ZM660.537 7.7L656.821 9.17913L680.621 68.9791L684.338 67.5L688.054 66.0209L664.254 6.22086L660.537 7.7ZM684.338 67.5L685.122 63.5777L679.622 62.4777L678.838 66.4L678.053 70.3223L683.553 71.4223L684.338 67.5ZM678.838 66.4L682.57 67.8372L705.17 9.13719L701.438 7.7L697.705 6.2628L675.105 64.9628L678.838 66.4ZM701.438 7.7V11.7H712.737V7.7V3.7H701.438V7.7ZM712.737 7.7L709.052 6.14493L677.152 81.7449L680.838 83.3L684.523 84.8551L716.423 9.25506L712.737 7.7ZM680.838 83.3L684.525 81.7491L652.725 6.14908L649.037 7.7L645.35 9.25091L677.15 84.8509L680.838 83.3ZM649.037 7.7V11.7H660.537V7.7V3.7H649.037V7.7ZM737.213 7.7V3.7H733.213V7.7H737.213ZM784.213 7.7H788.213V3.7H784.213V7.7ZM784.213 17V21H788.213V17H784.213ZM746.912 17V13H742.912V17H746.912ZM746.912 39H742.912V43H746.912V39ZM780.213 39H784.213V35H780.213V39ZM780.213 48.3V52.3H784.213V48.3H780.213ZM746.912 48.3V44.3H742.912V48.3H746.912ZM746.912 70.7H742.912V74.7H746.912V70.7ZM785.612 70.7H789.612V66.7H785.612V70.7ZM785.612 80V84H789.612V80H785.612ZM737.213 80H733.213V84H737.213V80ZM737.213 7.7V11.7H784.213V7.7V3.7H737.213V7.7ZM784.213 7.7H780.213V17H784.213H788.213V7.7H784.213ZM784.213 17V13H746.912V17V21H784.213V17ZM746.912 17H742.912V39H746.912H750.912V17H746.912ZM746.912 39V43H780.213V39V35H746.912V39ZM780.213 39H776.213V48.3H780.213H784.213V39H780.213ZM780.213 48.3V44.3H746.912V48.3V52.3H780.213V48.3ZM746.912 48.3H742.912V70.7H746.912H750.912V48.3H746.912ZM746.912 70.7V74.7H785.612V70.7V66.7H746.912V70.7ZM785.612 70.7H781.612V80H785.612H789.612V70.7H785.612ZM785.612 80V76H737.213V80V84H785.612V80ZM737.213 80H741.213V7.7H737.213H733.213V80H737.213ZM875.047 82.3L872.198 85.1083L873.373 86.3H875.047V82.3ZM819.147 25.6L820.117 21.7194L806.298 18.2646L816.298 28.4083L819.147 25.6ZM821.947 26.3L825.947 26.2851L825.935 23.174L822.917 22.4194L821.947 26.3ZM822.147 80V84H826.162L826.147 79.9851L822.147 80ZM812.447 80H808.447V84H812.447V80ZM812.447 5.49999V1.49999H808.447V5.49999H812.447ZM812.947 5.49999L815.815 2.71218L814.637 1.49999H812.947V5.49999ZM868.247 62.4L867.397 66.3087L880.363 69.1273L871.115 59.6122L868.247 62.4ZM865.947 61.9L861.947 61.9148L861.959 65.1264L865.097 65.8087L865.947 61.9ZM865.747 7.7V3.7H861.732L861.747 7.71476L865.747 7.7ZM875.347 7.7H879.347V3.7H875.347V7.7ZM875.347 82.3V86.3H879.347V82.3H875.347ZM875.047 82.3L877.895 79.4917L821.995 22.7917L819.147 25.6L816.298 28.4083L872.198 85.1083L875.047 82.3ZM819.147 25.6L818.177 29.4806L820.977 30.1806L821.947 26.3L822.917 22.4194L820.117 21.7194L819.147 25.6ZM821.947 26.3L817.947 26.3149L818.147 80.0149L822.147 80L826.147 79.9851L825.947 26.2851L821.947 26.3ZM822.147 80V76H812.447V80V84H822.147V80ZM812.447 80H816.447V5.49999H812.447H808.447V80H812.447ZM812.447 5.49999V9.49999H812.947V5.49999V1.49999H812.447V5.49999ZM812.947 5.49999L810.078 8.2878L865.378 65.1878L868.247 62.4L871.115 59.6122L815.815 2.71218L812.947 5.49999ZM868.247 62.4L869.097 58.4913L866.797 57.9913L865.947 61.9L865.097 65.8087L867.397 66.3087L868.247 62.4ZM865.947 61.9L869.947 61.8852L869.747 7.68523L865.747 7.7L861.747 7.71476L861.947 61.9148L865.947 61.9ZM865.747 7.7V11.7H875.347V7.7V3.7H865.747V7.7ZM875.347 7.7H871.347V82.3H875.347H879.347V7.7H875.347ZM875.347 82.3V78.3H875.047V82.3V86.3H875.347V82.3ZM900.838 7.7V3.7H896.838V7.7H900.838ZM948.838 7.7H952.838V3.7H948.838V7.7ZM948.838 17V21H952.838V17H948.838ZM929.438 17V13H925.438V17H929.438ZM929.438 80V84H933.438V80H929.438ZM919.738 80H915.738V84H919.738V80ZM919.738 17H923.738V13H919.738V17ZM900.838 17H896.838V21H900.838V17ZM900.838 7.7V11.7H948.838V7.7V3.7H900.838V7.7ZM948.838 7.7H944.838V17H948.838H952.838V7.7H948.838ZM948.838 17V13H929.438V17V21H948.838V17ZM929.438 17H925.438V80H929.438H933.438V17H929.438ZM929.438 80V76H919.738V80V84H929.438V80ZM919.738 80H923.738V17H919.738H915.738V80H919.738ZM919.738 17V13H900.838V17V21H919.738V17ZM900.838 17H904.838V7.7H900.838H896.838V17H900.838ZM961.38 80L957.691 78.4522L955.363 84H961.38V80ZM992.98 4.7V0.699998H990.32L989.291 3.15215L992.98 4.7ZM993.58 4.7L997.27 3.15632L996.242 0.699998H993.58V4.7ZM1025.08 80V84H1031.09L1028.77 78.4563L1025.08 80ZM1013.98 80L1010.26 81.462L1011.25 84H1013.98V80ZM990.38 19.9L988.195 16.5496L985.466 18.3294L986.656 21.362L990.38 19.9ZM997.28 15.4L1000.98 16.9132L1005.83 5.04709L995.095 12.0496L997.28 15.4ZM970.88 80V84H973.566L974.582 81.5132L970.88 80ZM979.88 52.6V48.6H976.997L976.085 51.3351L979.88 52.6ZM1006.78 52.6L1010.52 51.176L1009.54 48.6H1006.78V52.6ZM1009.98 61V65H1015.78L1013.72 59.576L1009.98 61ZM977.08 61L973.285 59.7351L971.53 65H977.08V61ZM961.38 80L965.068 81.5478L996.668 6.24785L992.98 4.7L989.291 3.15215L957.691 78.4522L961.38 80ZM992.98 4.7V8.7H993.58V4.7V0.699998H992.98V4.7ZM993.58 4.7L989.89 6.24368L1021.39 81.5437L1025.08 80L1028.77 78.4563L997.27 3.15632L993.58 4.7ZM1025.08 80V76H1013.98V80V84H1025.08V80ZM1013.98 80L1017.7 78.538L994.103 18.438L990.38 19.9L986.656 21.362L1010.26 81.462L1013.98 80ZM990.38 19.9L992.565 23.2504L999.465 18.7504L997.28 15.4L995.095 12.0496L988.195 16.5496L990.38 19.9ZM997.28 15.4L993.577 13.8868L967.177 78.4868L970.88 80L974.582 81.5132L1000.98 16.9132L997.28 15.4ZM970.88 80V76H961.38V80V84H970.88V80ZM979.88 52.6V56.6H1006.78V52.6V48.6H979.88V52.6ZM1006.78 52.6L1003.04 54.024L1006.24 62.424L1009.98 61L1013.72 59.576L1010.52 51.176L1006.78 52.6ZM1009.98 61V57H977.08V61V65H1009.98V61ZM977.08 61L980.874 62.2649L983.674 53.8649L979.88 52.6L976.085 51.3351L973.285 59.7351L977.08 61Z" fill="#12274B" mask="url(#path-1-outside-1_1_110)"/>
</svg>
