<svg width="1098" height="1006" viewBox="0 0 1098 1006" fill="none" xmlns="http://www.w3.org/2000/svg">
<path d="M473.361 104.812C470.139 104.811 466.971 104.055 464.157 102.616C461.344 101.178 458.979 99.1051 457.286 96.5945C455.593 94.0839 454.63 91.2188 454.486 88.2712C454.343 85.3236 455.024 82.3913 456.466 79.7526L494.278 10.5027C495.377 8.45116 496.908 6.61908 498.784 5.11206C500.659 3.60504 502.842 2.45288 505.206 1.72201C507.57 0.99115 510.069 0.696038 512.558 0.853694C515.047 1.01135 517.478 1.61866 519.71 2.6406C521.941 3.66253 523.93 5.07889 525.561 6.808C527.192 8.53711 528.434 10.5448 529.213 12.7152C529.993 14.8857 530.296 17.176 530.104 19.4541C529.913 21.7323 529.23 23.9531 528.097 25.9887L490.285 95.2387C488.714 98.1169 486.298 100.537 483.309 102.228C480.32 103.92 476.875 104.814 473.361 104.812ZM624.639 104.812C621.126 104.814 617.681 103.92 614.691 102.228C611.702 100.537 609.287 98.1169 607.716 95.2387L569.903 25.9887C567.707 21.8871 567.37 17.1568 568.966 12.8286C570.561 8.50047 573.961 4.92524 578.423 2.88207C582.885 0.838886 588.047 0.493369 592.786 1.9208C597.525 3.34824 601.456 6.43292 603.722 10.5027L641.535 79.7526C642.976 82.3913 643.658 85.3236 643.514 88.2712C643.371 91.2188 642.407 94.0839 640.714 96.5945C639.022 99.1051 636.657 101.178 633.843 102.616C631.03 104.055 627.862 104.811 624.639 104.812Z" fill="#1468B1"/>
<path d="M19.625 381.813H1078.38V935.813H19.625V381.813Z" fill="#FFA896"/>
<path d="M0.71875 935.812H1097.28V1005.06H0.71875V935.812Z" fill="#1468B1"/>
<path d="M1078.38 381.812H19.625L133.062 174.062H964.938L1078.38 381.812Z" fill="#FFA896"/>
<path d="M378.844 554.938H719.156V935.812H378.844V554.938Z" fill="#2A7ABF"/>
<path d="M549 554.938H719.156V935.812H549V554.938Z" fill="#2A7ABF"/>
<path d="M95.25 554.938H303.219V866.562H95.25V554.938ZM794.781 554.938H1002.75V866.562H794.781V554.938Z" fill="#E9EEF2"/>
<path d="M19.625 381.813H170.875V416.438C170.875 434.804 162.907 452.418 148.725 465.405C134.543 478.392 115.307 485.688 95.25 485.688C75.193 485.688 55.9575 478.392 41.775 465.405C27.5926 452.418 19.625 434.804 19.625 416.438V381.813Z" fill="#2A7ABF"/>
<path d="M170.875 381.813H322.125V416.438C322.125 434.804 314.157 452.418 299.975 465.405C285.792 478.392 266.557 485.688 246.5 485.688C226.443 485.688 207.207 478.392 193.025 465.405C178.843 452.418 170.875 434.804 170.875 416.438V381.813Z" fill="#1468B1"/>
<path d="M322.125 381.813H473.375V416.438C473.375 434.804 465.407 452.418 451.225 465.405C437.042 478.392 417.807 485.688 397.75 485.688C377.693 485.688 358.458 478.392 344.275 465.405C330.093 452.418 322.125 434.804 322.125 416.438V381.813Z" fill="#2A7ABF"/>
<path d="M473.375 381.813H624.625V416.438C624.625 434.804 616.657 452.418 602.475 465.405C588.292 478.392 569.057 485.688 549 485.688C528.943 485.688 509.708 478.392 495.525 465.405C481.343 452.418 473.375 434.804 473.375 416.438V381.813Z" fill="#1468B1"/>
<path d="M624.625 381.813H775.875V416.438C775.875 434.804 767.907 452.418 753.725 465.405C739.542 478.392 720.307 485.688 700.25 485.688C680.193 485.688 660.958 478.392 646.775 465.405C632.593 452.418 624.625 434.804 624.625 416.438V381.813Z" fill="#2A7ABF"/>
<path d="M775.875 381.813H927.125V416.438C927.125 434.804 919.157 452.418 904.975 465.405C890.792 478.392 871.557 485.688 851.5 485.688C831.443 485.688 812.208 478.392 798.025 465.405C783.843 452.418 775.875 434.804 775.875 416.438V381.813Z" fill="#1468B1"/>
<path d="M927.125 381.813H1078.38V416.438C1078.38 434.804 1070.41 452.418 1056.22 465.405C1042.04 478.392 1022.81 485.688 1002.75 485.688C982.693 485.688 963.458 478.392 949.275 465.405C935.093 452.418 927.125 434.804 927.125 416.438V381.813Z" fill="#2A7ABF"/>
<path d="M95.25 797.312H303.219V866.562H95.25V797.312ZM794.781 797.312H1002.75V866.562H794.781V797.312Z" fill="#4C97D2"/>
<path d="M624.625 174.062H473.375L435.562 70.1875H662.438L624.625 174.062Z" fill="#1468B1"/>
<path d="M397.75 174.062L322.125 381.812H170.875L265.406 174.062H397.75ZM624.625 381.812H473.375L492.281 174.062H605.719L624.625 381.812ZM927.125 381.812H775.875L700.25 174.062H832.594L927.125 381.812Z" fill="#4C97D2"/>
<path d="M265.406 174.062L170.875 381.812H19.625L133.062 174.062H265.406ZM492.281 174.062L473.375 381.812H322.125L397.75 174.062H492.281ZM775.875 381.812H624.625L605.719 174.062H700.25L775.875 381.812ZM1078.38 381.812H927.125L832.594 174.062H964.938L1078.38 381.812Z" fill="#2A7ABF"/>
<path d="M530.094 554.938H567.906V935.812H530.094V554.938Z" fill="#1468B1"/>
</svg>
