<svg width="559" height="85" viewBox="0 0 559 85" fill="none" xmlns="http://www.w3.org/2000/svg">
<mask id="path-1-outside-1_146_410" maskUnits="userSpaceOnUse" x="-0.900391" y="-0.700195" width="560" height="85" fill="black">
<rect fill="white" x="-0.900391" y="-0.700195" width="560" height="85"/>
<path d="M61.5996 73.8998C60.3996 74.6998 58.7663 75.5998 56.6996 76.5998C54.6329 77.5998 52.1996 78.4331 49.3996 79.0998C46.6663 79.7665 43.6663 80.0998 40.3996 80.0998C34.7996 80.0331 29.7329 79.0331 25.1996 77.0998C20.7329 75.1665 16.9329 72.5331 13.7996 69.1998C10.6663 65.8665 8.23294 62.0331 6.49961 57.6998C4.83294 53.2998 3.99961 48.6331 3.99961 43.6998C3.99961 38.2998 4.86628 33.3331 6.59961 28.7998C8.39961 24.1998 10.8996 20.2331 14.0996 16.8998C17.2996 13.4998 21.0663 10.8665 25.3996 8.9998C29.7996 7.13314 34.5996 6.1998 39.7996 6.1998C44.1329 6.1998 48.0663 6.7998 51.5996 7.9998C55.1329 9.13313 58.1663 10.4998 60.6996 12.0998L56.7996 21.0998C54.7996 19.7665 52.3663 18.4998 49.4996 17.2998C46.6996 16.0998 43.5663 15.4998 40.0996 15.4998C36.5663 15.4998 33.2329 16.1998 30.0996 17.5998C26.9663 18.9998 24.1996 20.9665 21.7996 23.4998C19.3996 26.0331 17.4996 28.9998 16.0996 32.3998C14.7663 35.7331 14.0996 39.3331 14.0996 43.1998C14.0996 47.1331 14.6996 50.7998 15.8996 54.1998C17.1663 57.5331 18.9329 60.4331 21.1996 62.8998C23.5329 65.3665 26.3329 67.2998 29.5996 68.6998C32.8663 70.0998 36.5329 70.7998 40.5996 70.7998C44.2663 70.7998 47.5329 70.2331 50.3996 69.0998C53.2663 67.9665 55.6329 66.6998 57.4996 65.2998L61.5996 73.8998ZM83.4332 43.1998C83.4332 38.1998 84.3665 33.4998 86.2332 29.0998C88.1665 24.6331 90.8332 20.6998 94.2332 17.2998C97.6332 13.8331 101.533 11.1331 105.933 9.1998C110.4 7.1998 115.2 6.1998 120.333 6.1998C125.4 6.1998 130.133 7.1998 134.533 9.1998C139 11.1331 142.933 13.8331 146.333 17.2998C149.8 20.6998 152.5 24.6331 154.433 29.0998C156.367 33.4998 157.333 38.1998 157.333 43.1998C157.333 48.3331 156.367 53.1331 154.433 57.5998C152.5 62.0665 149.8 65.9998 146.333 69.3998C142.933 72.7331 139 75.3665 134.533 77.2998C130.133 79.1665 125.4 80.0998 120.333 80.0998C115.2 80.0998 110.4 79.1665 105.933 77.2998C101.533 75.4331 97.6332 72.8331 94.2332 69.4998C90.8332 66.1665 88.1665 62.2665 86.2332 57.7998C84.3665 53.3331 83.4332 48.4665 83.4332 43.1998ZM93.4332 43.2998C93.4332 47.0998 94.1332 50.6665 95.5332 53.9998C96.9332 57.2665 98.8665 60.1665 101.333 62.6998C103.8 65.2331 106.667 67.2331 109.933 68.6998C113.2 70.0998 116.733 70.7998 120.533 70.7998C124.267 70.7998 127.767 70.0998 131.033 68.6998C134.3 67.2331 137.133 65.2331 139.533 62.6998C141.933 60.1665 143.833 57.2665 145.233 53.9998C146.633 50.6665 147.333 47.0665 147.333 43.1998C147.333 39.3998 146.633 35.8331 145.233 32.4998C143.833 29.0998 141.9 26.1331 139.433 23.5998C136.967 21.0665 134.1 19.0998 130.833 17.6998C127.567 16.2331 124.067 15.4998 120.333 15.4998C116.533 15.4998 113 16.2331 109.733 17.6998C106.467 19.1665 103.6 21.1665 101.133 23.6998C98.6665 26.2331 96.7665 29.1998 95.4332 32.5998C94.0999 35.9331 93.4332 39.4998 93.4332 43.2998ZM183.675 79.2998V4.6998H183.775L221.675 58.4998L217.575 57.6998L255.375 4.6998H255.575V79.2998H245.975V26.6998L246.575 31.5998L219.275 70.1998H219.075L191.375 31.5998L193.075 27.0998V79.2998H183.675ZM305.651 6.9998C310.918 6.9998 315.418 7.8998 319.151 9.6998C322.885 11.4331 325.751 13.9665 327.751 17.2998C329.818 20.6331 330.851 24.6665 330.851 29.3998C330.851 32.2665 330.418 35.0998 329.551 37.8998C328.685 40.6331 327.285 43.1331 325.351 45.3998C323.485 47.5998 321.018 49.3665 317.951 50.6998C314.885 52.0331 311.151 52.6998 306.751 52.6998H296.051V79.2998H286.351V6.9998H305.651ZM306.651 43.3998C309.518 43.3998 311.885 42.9331 313.751 41.9998C315.618 41.0665 317.085 39.8998 318.151 38.4998C319.218 37.0331 319.985 35.4998 320.451 33.8998C320.918 32.2998 321.151 30.8665 321.151 29.5998C321.151 28.1331 320.918 26.6331 320.451 25.0998C319.985 23.4998 319.185 22.0665 318.051 20.7998C316.985 19.4665 315.551 18.3998 313.751 17.5998C312.018 16.7331 309.851 16.2998 307.251 16.2998H296.051V43.3998H306.651ZM375.024 6.9998C378.69 6.9998 382.057 7.4998 385.124 8.4998C388.257 9.43314 390.957 10.8665 393.224 12.7998C395.557 14.6665 397.357 16.9998 398.624 19.7998C399.957 22.5331 400.624 25.7331 400.624 29.3998C400.624 32.2665 400.19 35.0665 399.324 37.7998C398.524 40.5331 397.157 43.0331 395.224 45.2998C393.29 47.4998 390.757 49.2998 387.624 50.6998C384.557 52.0331 380.757 52.6998 376.224 52.6998H365.524V79.2998H355.824V6.9998H375.024ZM376.024 43.3998C378.89 43.3998 381.257 42.9665 383.124 42.0998C385.057 41.2331 386.557 40.1331 387.624 38.7998C388.69 37.3998 389.457 35.8998 389.924 34.2998C390.39 32.6998 390.624 31.1998 390.624 29.7998C390.624 28.3331 390.357 26.8331 389.824 25.2998C389.357 23.6998 388.557 22.2331 387.424 20.8998C386.357 19.5665 384.924 18.4665 383.124 17.5998C381.39 16.7331 379.257 16.2998 376.724 16.2998H365.524V43.3998H376.024ZM387.924 48.8998L406.824 79.2998H395.624L376.424 49.1998L387.924 48.8998ZM424.542 79.2998L456.142 3.9998H456.742L488.242 79.2998H477.142L453.542 19.1998L460.442 14.6998L434.042 79.2998H424.542ZM443.042 51.8998H469.942L473.142 60.2998H440.242L443.042 51.8998ZM549.259 19.8998C546.792 18.6331 544.092 17.5331 541.159 16.5998C538.226 15.6665 535.359 15.1998 532.559 15.1998C528.692 15.1998 525.592 16.0998 523.259 17.8998C520.992 19.6998 519.859 22.0998 519.859 25.0998C519.859 27.3665 520.592 29.2998 522.059 30.8998C523.526 32.4331 525.459 33.7665 527.859 34.8998C530.259 36.0331 532.759 37.0998 535.359 38.0998C537.626 38.9665 539.859 39.9331 542.059 40.9998C544.259 42.0665 546.226 43.3998 547.959 44.9998C549.759 46.5998 551.159 48.5665 552.159 50.8998C553.226 53.2331 553.759 56.1331 553.759 59.5998C553.759 63.3998 552.792 66.8665 550.859 69.9998C548.992 73.1331 546.292 75.5998 542.759 77.3998C539.226 79.1998 535.026 80.0998 530.159 80.0998C526.959 80.0998 523.892 79.7331 520.959 78.9998C518.092 78.2665 515.426 77.3331 512.959 76.1998C510.492 74.9998 508.292 73.7665 506.359 72.4998L510.659 64.8998C512.259 66.0331 514.092 67.1331 516.159 68.1998C518.226 69.1998 520.392 70.0331 522.659 70.6998C524.926 71.2998 527.126 71.5998 529.259 71.5998C531.526 71.5998 533.759 71.1998 535.959 70.3998C538.226 69.5331 540.092 68.2331 541.559 66.4998C543.026 64.7665 543.759 62.4665 543.759 59.5998C543.759 57.1331 543.092 55.0998 541.759 53.4998C540.492 51.8331 538.792 50.4331 536.659 49.2998C534.526 48.0998 532.259 47.0331 529.859 46.0998C527.592 45.2331 525.292 44.2998 522.959 43.2998C520.626 42.2331 518.459 40.9665 516.459 39.4998C514.459 37.9665 512.859 36.0998 511.659 33.8998C510.459 31.6998 509.859 29.0331 509.859 25.8998C509.859 22.0998 510.759 18.7998 512.559 15.9998C514.426 13.1331 516.959 10.8998 520.159 9.2998C523.359 7.63313 527.026 6.73313 531.159 6.5998C535.826 6.5998 539.926 7.16647 543.459 8.2998C547.059 9.43314 550.226 10.8331 552.959 12.4998L549.259 19.8998Z"/>
</mask>
<path d="M61.5996 73.8998C60.3996 74.6998 58.7663 75.5998 56.6996 76.5998C54.6329 77.5998 52.1996 78.4331 49.3996 79.0998C46.6663 79.7665 43.6663 80.0998 40.3996 80.0998C34.7996 80.0331 29.7329 79.0331 25.1996 77.0998C20.7329 75.1665 16.9329 72.5331 13.7996 69.1998C10.6663 65.8665 8.23294 62.0331 6.49961 57.6998C4.83294 53.2998 3.99961 48.6331 3.99961 43.6998C3.99961 38.2998 4.86628 33.3331 6.59961 28.7998C8.39961 24.1998 10.8996 20.2331 14.0996 16.8998C17.2996 13.4998 21.0663 10.8665 25.3996 8.9998C29.7996 7.13314 34.5996 6.1998 39.7996 6.1998C44.1329 6.1998 48.0663 6.7998 51.5996 7.9998C55.1329 9.13313 58.1663 10.4998 60.6996 12.0998L56.7996 21.0998C54.7996 19.7665 52.3663 18.4998 49.4996 17.2998C46.6996 16.0998 43.5663 15.4998 40.0996 15.4998C36.5663 15.4998 33.2329 16.1998 30.0996 17.5998C26.9663 18.9998 24.1996 20.9665 21.7996 23.4998C19.3996 26.0331 17.4996 28.9998 16.0996 32.3998C14.7663 35.7331 14.0996 39.3331 14.0996 43.1998C14.0996 47.1331 14.6996 50.7998 15.8996 54.1998C17.1663 57.5331 18.9329 60.4331 21.1996 62.8998C23.5329 65.3665 26.3329 67.2998 29.5996 68.6998C32.8663 70.0998 36.5329 70.7998 40.5996 70.7998C44.2663 70.7998 47.5329 70.2331 50.3996 69.0998C53.2663 67.9665 55.6329 66.6998 57.4996 65.2998L61.5996 73.8998ZM83.4332 43.1998C83.4332 38.1998 84.3665 33.4998 86.2332 29.0998C88.1665 24.6331 90.8332 20.6998 94.2332 17.2998C97.6332 13.8331 101.533 11.1331 105.933 9.1998C110.4 7.1998 115.2 6.1998 120.333 6.1998C125.4 6.1998 130.133 7.1998 134.533 9.1998C139 11.1331 142.933 13.8331 146.333 17.2998C149.8 20.6998 152.5 24.6331 154.433 29.0998C156.367 33.4998 157.333 38.1998 157.333 43.1998C157.333 48.3331 156.367 53.1331 154.433 57.5998C152.5 62.0665 149.8 65.9998 146.333 69.3998C142.933 72.7331 139 75.3665 134.533 77.2998C130.133 79.1665 125.4 80.0998 120.333 80.0998C115.2 80.0998 110.4 79.1665 105.933 77.2998C101.533 75.4331 97.6332 72.8331 94.2332 69.4998C90.8332 66.1665 88.1665 62.2665 86.2332 57.7998C84.3665 53.3331 83.4332 48.4665 83.4332 43.1998ZM93.4332 43.2998C93.4332 47.0998 94.1332 50.6665 95.5332 53.9998C96.9332 57.2665 98.8665 60.1665 101.333 62.6998C103.8 65.2331 106.667 67.2331 109.933 68.6998C113.2 70.0998 116.733 70.7998 120.533 70.7998C124.267 70.7998 127.767 70.0998 131.033 68.6998C134.3 67.2331 137.133 65.2331 139.533 62.6998C141.933 60.1665 143.833 57.2665 145.233 53.9998C146.633 50.6665 147.333 47.0665 147.333 43.1998C147.333 39.3998 146.633 35.8331 145.233 32.4998C143.833 29.0998 141.9 26.1331 139.433 23.5998C136.967 21.0665 134.1 19.0998 130.833 17.6998C127.567 16.2331 124.067 15.4998 120.333 15.4998C116.533 15.4998 113 16.2331 109.733 17.6998C106.467 19.1665 103.6 21.1665 101.133 23.6998C98.6665 26.2331 96.7665 29.1998 95.4332 32.5998C94.0999 35.9331 93.4332 39.4998 93.4332 43.2998ZM183.675 79.2998V4.6998H183.775L221.675 58.4998L217.575 57.6998L255.375 4.6998H255.575V79.2998H245.975V26.6998L246.575 31.5998L219.275 70.1998H219.075L191.375 31.5998L193.075 27.0998V79.2998H183.675ZM305.651 6.9998C310.918 6.9998 315.418 7.8998 319.151 9.6998C322.885 11.4331 325.751 13.9665 327.751 17.2998C329.818 20.6331 330.851 24.6665 330.851 29.3998C330.851 32.2665 330.418 35.0998 329.551 37.8998C328.685 40.6331 327.285 43.1331 325.351 45.3998C323.485 47.5998 321.018 49.3665 317.951 50.6998C314.885 52.0331 311.151 52.6998 306.751 52.6998H296.051V79.2998H286.351V6.9998H305.651ZM306.651 43.3998C309.518 43.3998 311.885 42.9331 313.751 41.9998C315.618 41.0665 317.085 39.8998 318.151 38.4998C319.218 37.0331 319.985 35.4998 320.451 33.8998C320.918 32.2998 321.151 30.8665 321.151 29.5998C321.151 28.1331 320.918 26.6331 320.451 25.0998C319.985 23.4998 319.185 22.0665 318.051 20.7998C316.985 19.4665 315.551 18.3998 313.751 17.5998C312.018 16.7331 309.851 16.2998 307.251 16.2998H296.051V43.3998H306.651ZM375.024 6.9998C378.69 6.9998 382.057 7.4998 385.124 8.4998C388.257 9.43314 390.957 10.8665 393.224 12.7998C395.557 14.6665 397.357 16.9998 398.624 19.7998C399.957 22.5331 400.624 25.7331 400.624 29.3998C400.624 32.2665 400.19 35.0665 399.324 37.7998C398.524 40.5331 397.157 43.0331 395.224 45.2998C393.29 47.4998 390.757 49.2998 387.624 50.6998C384.557 52.0331 380.757 52.6998 376.224 52.6998H365.524V79.2998H355.824V6.9998H375.024ZM376.024 43.3998C378.89 43.3998 381.257 42.9665 383.124 42.0998C385.057 41.2331 386.557 40.1331 387.624 38.7998C388.69 37.3998 389.457 35.8998 389.924 34.2998C390.39 32.6998 390.624 31.1998 390.624 29.7998C390.624 28.3331 390.357 26.8331 389.824 25.2998C389.357 23.6998 388.557 22.2331 387.424 20.8998C386.357 19.5665 384.924 18.4665 383.124 17.5998C381.39 16.7331 379.257 16.2998 376.724 16.2998H365.524V43.3998H376.024ZM387.924 48.8998L406.824 79.2998H395.624L376.424 49.1998L387.924 48.8998ZM424.542 79.2998L456.142 3.9998H456.742L488.242 79.2998H477.142L453.542 19.1998L460.442 14.6998L434.042 79.2998H424.542ZM443.042 51.8998H469.942L473.142 60.2998H440.242L443.042 51.8998ZM549.259 19.8998C546.792 18.6331 544.092 17.5331 541.159 16.5998C538.226 15.6665 535.359 15.1998 532.559 15.1998C528.692 15.1998 525.592 16.0998 523.259 17.8998C520.992 19.6998 519.859 22.0998 519.859 25.0998C519.859 27.3665 520.592 29.2998 522.059 30.8998C523.526 32.4331 525.459 33.7665 527.859 34.8998C530.259 36.0331 532.759 37.0998 535.359 38.0998C537.626 38.9665 539.859 39.9331 542.059 40.9998C544.259 42.0665 546.226 43.3998 547.959 44.9998C549.759 46.5998 551.159 48.5665 552.159 50.8998C553.226 53.2331 553.759 56.1331 553.759 59.5998C553.759 63.3998 552.792 66.8665 550.859 69.9998C548.992 73.1331 546.292 75.5998 542.759 77.3998C539.226 79.1998 535.026 80.0998 530.159 80.0998C526.959 80.0998 523.892 79.7331 520.959 78.9998C518.092 78.2665 515.426 77.3331 512.959 76.1998C510.492 74.9998 508.292 73.7665 506.359 72.4998L510.659 64.8998C512.259 66.0331 514.092 67.1331 516.159 68.1998C518.226 69.1998 520.392 70.0331 522.659 70.6998C524.926 71.2998 527.126 71.5998 529.259 71.5998C531.526 71.5998 533.759 71.1998 535.959 70.3998C538.226 69.5331 540.092 68.2331 541.559 66.4998C543.026 64.7665 543.759 62.4665 543.759 59.5998C543.759 57.1331 543.092 55.0998 541.759 53.4998C540.492 51.8331 538.792 50.4331 536.659 49.2998C534.526 48.0998 532.259 47.0331 529.859 46.0998C527.592 45.2331 525.292 44.2998 522.959 43.2998C520.626 42.2331 518.459 40.9665 516.459 39.4998C514.459 37.9665 512.859 36.0998 511.659 33.8998C510.459 31.6998 509.859 29.0331 509.859 25.8998C509.859 22.0998 510.759 18.7998 512.559 15.9998C514.426 13.1331 516.959 10.8998 520.159 9.2998C523.359 7.63313 527.026 6.73313 531.159 6.5998C535.826 6.5998 539.926 7.16647 543.459 8.2998C547.059 9.43314 550.226 10.8331 552.959 12.4998L549.259 19.8998Z" fill="#12274B"/>
<path d="M61.5996 73.8998L63.8184 77.228L66.7013 75.3061L65.2103 72.1784L61.5996 73.8998ZM56.6996 76.5998L58.4419 80.2004L56.6996 76.5998ZM49.3996 79.0998L48.4731 75.2086L48.4624 75.2111L48.4518 75.2137L49.3996 79.0998ZM40.3996 80.0998L40.352 84.0995L40.3758 84.0998H40.3996V80.0998ZM25.1996 77.0998L23.6107 80.7707L23.6206 80.775L23.6305 80.7792L25.1996 77.0998ZM13.7996 69.1998L10.8851 71.9394L13.7996 69.1998ZM6.49961 57.6998L2.75897 59.1167L2.77202 59.1512L2.7857 59.1854L6.49961 57.6998ZM6.59961 28.7998L2.87464 27.3422L2.86896 27.3567L2.8634 27.3713L6.59961 28.7998ZM14.0996 16.8998L16.9852 19.6699L16.9989 19.6557L17.0124 19.6413L14.0996 16.8998ZM25.3996 8.9998L23.8374 5.31748L23.8272 5.32179L23.8171 5.32615L25.3996 8.9998ZM51.5996 7.9998L50.3133 11.7873L50.3455 11.7983L50.3779 11.8087L51.5996 7.9998ZM60.6996 12.0998L64.3698 13.6902L65.7319 10.5471L62.8356 8.71784L60.6996 12.0998ZM56.7996 21.0998L54.5808 24.428L58.5656 27.0846L60.4698 22.6902L56.7996 21.0998ZM49.4996 17.2998L47.9239 20.9764L47.9395 20.983L47.9551 20.9896L49.4996 17.2998ZM30.0996 17.5998L28.4679 13.9478L28.4678 13.9478L30.0996 17.5998ZM21.7996 23.4998L24.7034 26.2508L24.7034 26.2508L21.7996 23.4998ZM16.0996 32.3998L12.4009 30.8768L12.3932 30.8955L12.3857 30.9142L16.0996 32.3998ZM15.8996 54.1998L12.1276 55.5311L12.1435 55.5761L12.1605 55.6207L15.8996 54.1998ZM21.1996 62.8998L18.2543 65.6063L18.2739 65.6276L18.2937 65.6486L21.1996 62.8998ZM29.5996 68.6998L31.1753 65.0232L29.5996 68.6998ZM50.3996 69.0998L48.929 65.38V65.38L50.3996 69.0998ZM57.4996 65.2998L61.1103 63.5784L59.0079 59.1686L55.0996 62.0998L57.4996 65.2998ZM61.5996 73.8998L59.3808 70.5716C58.3951 71.2287 56.9433 72.0382 54.9574 72.9992L56.6996 76.5998L58.4419 80.2004C60.5892 79.1614 62.4041 78.1709 63.8184 77.228L61.5996 73.8998ZM56.6996 76.5998L54.9574 72.9992C53.2072 73.846 51.0591 74.5929 48.4731 75.2086L49.3996 79.0998L50.3261 82.991C53.3402 82.2734 56.0587 81.3536 58.4419 80.2004L56.6996 76.5998ZM49.3996 79.0998L48.4518 75.2137C46.0737 75.7937 43.3968 76.0998 40.3996 76.0998V80.0998V84.0998C43.9357 84.0998 47.2588 83.7392 50.3474 82.9859L49.3996 79.0998ZM40.3996 80.0998L40.4472 76.1001C35.2995 76.0388 30.7595 75.1224 26.7688 73.4204L25.1996 77.0998L23.6305 80.7792C28.7064 82.9439 34.2997 84.0275 40.352 84.0995L40.3996 80.0998ZM25.1996 77.0998L26.7885 73.4289C22.7901 71.6983 19.4502 69.3709 16.7141 66.4602L13.7996 69.1998L10.8851 71.9394C14.4157 75.6954 18.6758 78.6347 23.6107 80.7707L25.1996 77.0998ZM13.7996 69.1998L16.7141 66.4602C13.9303 63.4986 11.765 60.0928 10.2135 56.2142L6.49961 57.6998L2.7857 59.1854C4.70094 63.9734 7.40226 68.2343 10.8851 71.9394L13.7996 69.1998ZM6.49961 57.6998L10.2402 56.2829C8.75329 52.3573 7.99961 48.1728 7.99961 43.6998H3.99961H-0.000390172C-0.000390172 49.0935 0.912595 54.2423 2.75897 59.1167L6.49961 57.6998ZM3.99961 43.6998H7.99961C7.99961 38.7333 8.79543 34.2571 10.3358 30.2284L6.59961 28.7998L2.8634 27.3713C0.937124 32.4092 -0.000390172 37.8663 -0.000390172 43.6998H3.99961ZM6.59961 28.7998L10.3246 30.2574C11.9468 26.1116 14.1728 22.5995 16.9852 19.6699L14.0996 16.8998L11.2141 14.1297C7.62641 17.8668 4.85237 22.288 2.87464 27.3422L6.59961 28.7998ZM14.0996 16.8998L17.0124 19.6413C19.8334 16.644 23.1458 14.326 26.9821 12.6735L25.3996 8.9998L23.8171 5.32615C18.9867 7.40694 14.7659 10.3556 11.1868 14.1583L14.0996 16.8998ZM25.3996 8.9998L26.9618 12.6821C30.8256 11.0429 35.0888 10.1998 39.7996 10.1998V6.1998V2.1998C34.1104 2.1998 28.7736 3.22335 23.8374 5.31748L25.3996 8.9998ZM39.7996 6.1998V10.1998C43.7645 10.1998 47.255 10.7486 50.3133 11.7873L51.5996 7.9998L52.8859 4.21227C48.8776 2.85096 44.5014 2.1998 39.7996 2.1998V6.1998ZM51.5996 7.9998L50.3779 11.8087C53.6627 12.8623 56.3741 14.0989 58.5636 15.4818L60.6996 12.0998L62.8356 8.71784C59.9585 6.90072 56.6032 5.40399 52.8213 4.19094L51.5996 7.9998ZM60.6996 12.0998L57.0294 10.5094L53.1294 19.5094L56.7996 21.0998L60.4698 22.6902L64.3698 13.6902L60.6996 12.0998ZM56.7996 21.0998L59.0184 17.7716C56.7545 16.2623 54.0821 14.8817 51.0442 13.61L49.4996 17.2998L47.9551 20.9896C50.6505 22.1179 52.8447 23.2706 54.5808 24.428L56.7996 21.0998ZM49.4996 17.2998L51.0753 13.6232C47.7132 12.1823 44.0335 11.4998 40.0996 11.4998V15.4998V19.4998C43.099 19.4998 45.686 20.0173 47.9239 20.9764L49.4996 17.2998ZM40.0996 15.4998V11.4998C36.021 11.4998 32.13 12.3115 28.4679 13.9478L30.0996 17.5998L31.7314 21.2518C34.3359 20.0881 37.1115 19.4998 40.0996 19.4998V15.4998ZM30.0996 17.5998L28.4678 13.9478C24.8473 15.5655 21.6504 17.8412 18.8958 20.7488L21.7996 23.4998L24.7034 26.2508C26.7488 24.0917 29.0852 22.4341 31.7314 21.2518L30.0996 17.5998ZM21.7996 23.4998L18.8958 20.7488C16.1397 23.658 13.978 27.0468 12.4009 30.8768L16.0996 32.3998L19.7983 33.9228C21.0213 30.9528 22.6595 28.4082 24.7034 26.2508L21.7996 23.4998ZM16.0996 32.3998L12.3857 30.9142C10.8492 34.7554 10.0996 38.8638 10.0996 43.1998H14.0996H18.0996C18.0996 39.8025 18.6833 36.7109 19.8135 33.8854L16.0996 32.3998ZM14.0996 43.1998H10.0996C10.0996 47.5454 10.7636 51.6663 12.1276 55.5311L15.8996 54.1998L19.6716 52.8685C18.6356 49.9333 18.0996 46.7208 18.0996 43.1998H14.0996ZM15.8996 54.1998L12.1605 55.6207C13.5959 59.3981 15.622 62.7418 18.2543 65.6063L21.1996 62.8998L24.1449 60.1933C22.2439 58.1245 20.7366 55.6681 19.6387 52.7789L15.8996 54.1998ZM21.1996 62.8998L18.2937 65.6486C21.0199 68.5306 24.2791 70.7715 28.0239 72.3764L29.5996 68.6998L31.1753 65.0232C28.3868 63.8282 26.0459 62.2023 24.1055 60.151L21.1996 62.8998ZM29.5996 68.6998L28.0239 72.3764C31.8553 74.0184 36.0689 74.7998 40.5996 74.7998V70.7998V66.7998C36.997 66.7998 33.8773 66.1812 31.1753 65.0232L29.5996 68.6998ZM40.5996 70.7998V74.7998C44.6764 74.7998 48.4557 74.1696 51.8702 72.8196L50.3996 69.0998L48.929 65.38C46.6101 66.2967 43.8562 66.7998 40.5996 66.7998V70.7998ZM50.3996 69.0998L51.8702 72.8196C54.9691 71.5945 57.6733 70.1696 59.8996 68.4998L57.4996 65.2998L55.0996 62.0998C53.5926 63.23 51.5635 64.3384 48.929 65.38L50.3996 69.0998ZM57.4996 65.2998L53.8889 67.0212L57.9889 75.6212L61.5996 73.8998L65.2103 72.1784L61.1103 63.5784L57.4996 65.2998ZM86.2332 29.0998L82.5623 27.5109L82.5565 27.5242L82.5509 27.5376L86.2332 29.0998ZM94.2332 17.2998L97.0616 20.1282L97.0754 20.1145L97.089 20.1006L94.2332 17.2998ZM105.933 9.1998L107.542 12.8619L107.555 12.8563L107.568 12.8505L105.933 9.1998ZM134.533 9.1998L132.878 12.8413L132.911 12.8563L132.944 12.8707L134.533 9.1998ZM146.333 17.2998L143.477 20.1006L143.505 20.1284L143.532 20.1556L146.333 17.2998ZM154.433 29.0998L150.762 30.6887L150.767 30.6988L150.771 30.7089L154.433 29.0998ZM154.433 57.5998L158.104 59.1887V59.1887L154.433 57.5998ZM146.333 69.3998L149.133 72.2561L149.134 72.2556L146.333 69.3998ZM134.533 77.2998L136.095 80.9821L136.109 80.9765L136.122 80.9707L134.533 77.2998ZM105.933 77.2998L104.371 80.9821L104.381 80.9863L104.391 80.9905L105.933 77.2998ZM94.2332 69.4998L97.0335 66.6435L94.2332 69.4998ZM86.2332 57.7998L82.5425 59.3422L82.5523 59.3655L82.5623 59.3887L86.2332 57.7998ZM95.5332 53.9998L91.8453 55.5487L91.8509 55.5621L91.8566 55.5755L95.5332 53.9998ZM101.333 62.6998L98.4673 65.4903L101.333 62.6998ZM109.933 68.6998L108.295 72.3489L108.326 72.3629L108.358 72.3764L109.933 68.6998ZM131.033 68.6998L132.609 72.3764L132.64 72.3629L132.672 72.3489L131.033 68.6998ZM139.533 62.6998L136.629 59.9488L139.533 62.6998ZM145.233 53.9998L148.91 55.5755L148.916 55.5621L148.921 55.5487L145.233 53.9998ZM145.233 32.4998L141.535 34.0228L141.54 34.0358L141.545 34.0487L145.233 32.4998ZM130.833 17.6998L129.195 21.3489L129.226 21.3629L129.258 21.3764L130.833 17.6998ZM109.733 17.6998L108.095 14.0507L108.095 14.0507L109.733 17.6998ZM101.133 23.6998L98.2673 20.9093V20.9093L101.133 23.6998ZM95.4332 32.5998L99.1471 34.0854L99.1521 34.0728L99.1571 34.0602L95.4332 32.5998ZM83.4332 43.1998H87.4332C87.4332 38.7113 88.2681 34.5452 89.9155 30.662L86.2332 29.0998L82.5509 27.5376C80.4649 32.4545 79.4332 37.6883 79.4332 43.1998H83.4332ZM86.2332 29.0998L89.9041 30.6887C91.6397 26.6788 94.0225 23.1674 97.0616 20.1282L94.2332 17.2998L91.4048 14.4714C87.6439 18.2322 84.6934 22.5875 82.5623 27.5109L86.2332 29.0998ZM94.2332 17.2998L97.089 20.1006C100.136 16.994 103.614 14.588 107.542 12.8619L105.933 9.1998L104.324 5.53772C99.4526 7.67825 95.1306 10.6723 91.3774 14.499L94.2332 17.2998ZM105.933 9.1998L107.568 12.8505C111.495 11.092 115.735 10.1998 120.333 10.1998V6.1998V2.1998C114.665 2.1998 109.305 3.30759 104.299 5.54906L105.933 9.1998ZM120.333 6.1998V10.1998C124.857 10.1998 129.023 11.089 132.878 12.8413L134.533 9.1998L136.188 5.55833C131.244 3.31066 125.943 2.1998 120.333 2.1998V6.1998ZM134.533 9.1998L132.944 12.8707C136.938 14.5991 140.44 17.004 143.477 20.1006L146.333 17.2998L149.189 14.499C145.426 10.6622 141.062 7.66715 136.122 5.52891L134.533 9.1998ZM146.333 17.2998L143.532 20.1556C146.629 23.1926 149.034 26.6954 150.762 30.6887L154.433 29.0998L158.104 27.5109C155.966 22.5708 152.971 18.207 149.134 14.4441L146.333 17.2998ZM154.433 29.0998L150.771 30.7089C152.473 34.5812 153.333 38.7309 153.333 43.1998H157.333H161.333C161.333 37.6687 160.26 32.4184 158.095 27.4907L154.433 29.0998ZM157.333 43.1998H153.333C153.333 47.817 152.467 52.073 150.762 56.0109L154.433 57.5998L158.104 59.1887C160.266 54.1933 161.333 48.8493 161.333 43.1998H157.333ZM154.433 57.5998L150.762 56.0109C149.034 60.0042 146.629 63.507 143.532 66.5441L146.333 69.3998L149.134 72.2556C152.971 68.4926 155.966 64.1288 158.104 59.1887L154.433 57.5998ZM146.333 69.3998L143.533 66.5435C140.491 69.5256 136.971 71.8861 132.944 73.6289L134.533 77.2998L136.122 80.9707C141.029 78.8468 145.375 75.9407 149.133 72.2561L146.333 69.3998ZM134.533 77.2998L132.971 73.6175C129.094 75.2621 124.896 76.0998 120.333 76.0998V80.0998V84.0998C125.904 84.0998 131.172 83.0709 136.095 80.9821L134.533 77.2998ZM120.333 80.0998V76.0998C115.697 76.0998 111.425 75.2595 107.476 73.6091L105.933 77.2998L104.391 80.9905C109.375 83.0735 114.703 84.0998 120.333 84.0998V80.0998ZM105.933 77.2998L107.495 73.6175C103.554 71.9455 100.075 69.6251 97.0335 66.6435L94.2332 69.4998L91.4329 72.3561C95.1917 76.0412 99.5121 78.9208 104.371 80.9821L105.933 77.2998ZM94.2332 69.4998L97.0335 66.6435C94.0112 63.6805 91.6366 60.2136 89.9041 56.2109L86.2332 57.7998L82.5623 59.3887C84.6965 64.3194 87.6552 68.6524 91.4329 72.3561L94.2332 69.4998ZM86.2332 57.7998L89.9239 56.2574C88.2787 52.3208 87.4332 47.9838 87.4332 43.1998H83.4332H79.4332C79.4332 48.9491 80.4543 54.3454 82.5425 59.3422L86.2332 57.7998ZM93.4332 43.2998H89.4332C89.4332 47.6041 90.2289 51.7001 91.8453 55.5487L95.5332 53.9998L99.2211 52.4509C98.0375 49.6328 97.4332 46.5955 97.4332 43.2998H93.4332ZM95.5332 53.9998L91.8566 55.5755C93.449 59.291 95.6564 62.6033 98.4673 65.4903L101.333 62.6998L104.199 59.9093C102.077 57.7296 100.417 55.2419 99.2098 52.4241L95.5332 53.9998ZM101.333 62.6998L98.4673 65.4903C101.29 68.3892 104.575 70.6786 108.295 72.3489L109.933 68.6998L111.572 65.0507C108.759 63.7877 106.31 62.077 104.199 59.9093L101.333 62.6998ZM109.933 68.6998L108.358 72.3764C112.156 74.0042 116.229 74.7998 120.533 74.7998V70.7998V66.7998C117.237 66.7998 114.244 66.1954 111.509 65.0232L109.933 68.6998ZM120.533 70.7998V74.7998C124.78 74.7998 128.819 74.0005 132.609 72.3764L131.033 68.6998L129.458 65.0232C126.714 66.1991 123.753 66.7998 120.533 66.7998V70.7998ZM131.033 68.6998L132.672 72.3489C136.402 70.674 139.668 68.3732 142.437 65.4508L139.533 62.6998L136.629 59.9488C134.598 62.0931 132.198 63.7922 129.395 65.0507L131.033 68.6998ZM139.533 62.6998L142.437 65.4508C145.168 62.568 147.327 59.2683 148.91 55.5755L145.233 53.9998L141.557 52.4241C140.339 55.2646 138.698 57.7649 136.629 59.9488L139.533 62.6998ZM145.233 53.9998L148.921 55.5487C150.541 51.6916 151.333 47.561 151.333 43.1998H147.333H143.333C143.333 46.572 142.725 49.6413 141.545 52.4509L145.233 53.9998ZM147.333 43.1998H151.333C151.333 38.8955 150.538 34.7995 148.921 30.9509L145.233 32.4998L141.545 34.0487C142.729 36.8668 143.333 39.9041 143.333 43.1998H147.333ZM145.233 32.4998L148.932 30.9768C147.346 27.1242 145.136 23.7227 142.299 20.8093L139.433 23.5998L136.567 26.3903C138.664 28.5435 140.321 31.0754 141.535 34.0228L145.233 32.4998ZM139.433 23.5998L142.299 20.8093C139.463 17.8966 136.157 15.6297 132.409 14.0232L130.833 17.6998L129.258 21.3764C132.043 22.57 134.47 24.2364 136.567 26.3903L139.433 23.5998ZM130.833 17.6998L132.472 14.0507C128.668 12.3429 124.607 11.4998 120.333 11.4998V15.4998V19.4998C123.526 19.4998 126.465 20.1234 129.195 21.3489L130.833 17.6998ZM120.333 15.4998V11.4998C116.004 11.4998 111.908 12.3387 108.095 14.0507L109.733 17.6998L111.372 21.3489C114.092 20.1275 117.063 19.4998 120.333 19.4998V15.4998ZM109.733 17.6998L108.095 14.0507C104.375 15.721 101.09 18.0104 98.2673 20.9093L101.133 23.6998L103.999 26.4903C106.11 24.3226 108.559 22.6119 111.372 21.3489L109.733 17.6998ZM101.133 23.6998L98.2673 20.9093C95.4166 23.8371 93.2307 27.26 91.7093 31.1395L95.4332 32.5998L99.1571 34.0602C100.302 31.1396 101.916 28.6292 103.999 26.4903L101.133 23.6998ZM95.4332 32.5998L91.7193 31.1142C90.1861 34.9472 89.4332 39.0211 89.4332 43.2998H93.4332H97.4332C97.4332 39.9785 98.0136 36.919 99.1471 34.0854L95.4332 32.5998ZM183.675 79.2998H179.675V83.2998H183.675V79.2998ZM183.675 4.6998V0.6998H179.675V4.6998H183.675ZM183.775 4.6998L187.045 2.39617L185.85 0.6998H183.775V4.6998ZM221.675 58.4998L220.909 62.4258L230.677 64.3316L224.945 56.1962L221.675 58.4998ZM217.575 57.6998L214.319 55.3772L210.711 60.4358L216.809 61.6258L217.575 57.6998ZM255.375 4.6998V0.6998H253.315L252.119 2.37717L255.375 4.6998ZM255.575 4.6998H259.575V0.6998H255.575V4.6998ZM255.575 79.2998V83.2998H259.575V79.2998H255.575ZM245.975 79.2998H241.975V83.2998H245.975V79.2998ZM245.975 26.6998L249.946 26.2136L241.975 26.6998H245.975ZM246.575 31.5998L249.841 33.9095L250.734 32.6477L250.546 31.1136L246.575 31.5998ZM219.275 70.1998V74.1998H221.346L222.541 72.5095L219.275 70.1998ZM219.075 70.1998L215.826 72.5319L217.022 74.1998H219.075V70.1998ZM191.375 31.5998L187.633 30.1862L186.876 32.1909L188.126 33.9319L191.375 31.5998ZM193.075 27.0998H197.075L189.334 25.6862L193.075 27.0998ZM193.075 79.2998V83.2998H197.075V79.2998H193.075ZM183.675 79.2998H187.675V4.6998H183.675H179.675V79.2998H183.675ZM183.675 4.6998V8.6998H183.775V4.6998V0.6998H183.675V4.6998ZM183.775 4.6998L180.505 7.00343L218.405 60.8034L221.675 58.4998L224.945 56.1962L187.045 2.39617L183.775 4.6998ZM221.675 58.4998L222.441 54.5738L218.341 53.7738L217.575 57.6998L216.809 61.6258L220.909 62.4258L221.675 58.4998ZM217.575 57.6998L220.832 60.0224L258.632 7.02243L255.375 4.6998L252.119 2.37717L214.319 55.3772L217.575 57.6998ZM255.375 4.6998V8.6998H255.575V4.6998V0.6998H255.375V4.6998ZM255.575 4.6998H251.575V79.2998H255.575H259.575V4.6998H255.575ZM255.575 79.2998V75.2998H245.975V79.2998V83.2998H255.575V79.2998ZM245.975 79.2998H249.975V26.6998H245.975H241.975V79.2998H245.975ZM245.975 26.6998L242.005 27.186L242.605 32.086L246.575 31.5998L250.546 31.1136L249.946 26.2136L245.975 26.6998ZM246.575 31.5998L243.31 29.2901L216.01 67.8901L219.275 70.1998L222.541 72.5095L249.841 33.9095L246.575 31.5998ZM219.275 70.1998V66.1998H219.075V70.1998V74.1998H219.275V70.1998ZM219.075 70.1998L222.325 67.8677L194.625 29.2677L191.375 31.5998L188.126 33.9319L215.826 72.5319L219.075 70.1998ZM191.375 31.5998L195.117 33.0134L196.817 28.5134L193.075 27.0998L189.334 25.6862L187.633 30.1862L191.375 31.5998ZM193.075 27.0998H189.075V79.2998H193.075H197.075V27.0998H193.075ZM193.075 79.2998V75.2998H183.675V79.2998V83.2998H193.075V79.2998ZM319.151 9.6998L317.414 13.3029L317.44 13.3155L317.467 13.3278L319.151 9.6998ZM327.751 17.2998L324.321 19.3578L324.336 19.3828L324.352 19.4076L327.751 17.2998ZM329.551 37.8998L333.364 39.1088L333.368 39.0957L333.372 39.0825L329.551 37.8998ZM325.351 45.3998L322.308 42.804L322.301 42.8119L325.351 45.3998ZM296.051 52.6998V48.6998H292.051V52.6998H296.051ZM296.051 79.2998V83.2998H300.051V79.2998H296.051ZM286.351 79.2998H282.351V83.2998H286.351V79.2998ZM286.351 6.9998V2.9998H282.351V6.9998H286.351ZM318.151 38.4998L321.333 40.924L321.36 40.8885L321.386 40.8525L318.151 38.4998ZM320.451 33.8998L316.611 32.7798L320.451 33.8998ZM320.451 25.0998L316.611 26.2198L316.618 26.2422L316.624 26.2644L320.451 25.0998ZM318.051 20.7998L314.928 23.2986L314.997 23.3847L315.07 23.467L318.051 20.7998ZM313.751 17.5998L311.962 21.1775L312.044 21.2181L312.127 21.255L313.751 17.5998ZM296.051 16.2998V12.2998H292.051V16.2998H296.051ZM296.051 43.3998H292.051V47.3998H296.051V43.3998ZM305.651 6.9998V10.9998C310.474 10.9998 314.349 11.825 317.414 13.3029L319.151 9.6998L320.888 6.09673C316.487 3.97463 311.362 2.9998 305.651 2.9998V6.9998ZM319.151 9.6998L317.467 13.3278C320.519 14.7451 322.758 16.752 324.321 19.3578L327.751 17.2998L331.181 15.2418C328.745 11.1809 325.25 8.12116 320.836 6.07177L319.151 9.6998ZM327.751 17.2998L324.352 19.4076C325.951 21.988 326.851 25.2563 326.851 29.3998H330.851H334.851C334.851 24.0766 333.684 19.2783 331.151 15.192L327.751 17.2998ZM330.851 29.3998H326.851C326.851 31.8565 326.481 34.2914 325.73 36.7171L329.551 37.8998L333.372 39.0825C334.355 35.9082 334.851 32.6765 334.851 29.3998H330.851ZM329.551 37.8998L325.738 36.6908C325.039 38.8953 323.908 40.9275 322.308 42.804L325.351 45.3998L328.395 47.9956C330.661 45.3388 332.33 42.371 333.364 39.1088L329.551 37.8998ZM325.351 45.3998L322.301 42.8119C320.889 44.4763 318.951 45.9035 316.356 47.0315L317.951 50.6998L319.546 54.3681C323.085 52.8295 326.08 50.7233 328.401 47.9877L325.351 45.3998ZM317.951 50.6998L316.356 47.0315C313.925 48.0887 310.767 48.6998 306.751 48.6998V52.6998V56.6998C311.535 56.6998 315.844 55.9776 319.546 54.3681L317.951 50.6998ZM306.751 52.6998V48.6998H296.051V52.6998V56.6998H306.751V52.6998ZM296.051 52.6998H292.051V79.2998H296.051H300.051V52.6998H296.051ZM296.051 79.2998V75.2998H286.351V79.2998V83.2998H296.051V79.2998ZM286.351 79.2998H290.351V6.9998H286.351H282.351V79.2998H286.351ZM286.351 6.9998V10.9998H305.651V6.9998V2.9998H286.351V6.9998ZM306.651 43.3998V47.3998C309.919 47.3998 312.95 46.8724 315.54 45.5775L313.751 41.9998L311.962 38.4221C310.819 38.9939 309.116 39.3998 306.651 39.3998V43.3998ZM313.751 41.9998L315.54 45.5775C317.852 44.4214 319.833 42.892 321.333 40.924L318.151 38.4998L314.969 36.0756C314.336 36.9076 313.383 37.7116 311.962 38.4221L313.751 41.9998ZM318.151 38.4998L321.386 40.8525C322.7 39.0457 323.684 37.0999 324.291 35.0198L320.451 33.8998L316.611 32.7798C316.285 33.8997 315.736 35.0205 314.916 36.1471L318.151 38.4998ZM320.451 33.8998L324.291 35.0198C324.833 33.1635 325.151 31.3433 325.151 29.5998H321.151H317.151C317.151 30.3897 317.003 31.4361 316.611 32.7798L320.451 33.8998ZM321.151 29.5998H325.151C325.151 27.7037 324.849 25.8112 324.278 23.9352L320.451 25.0998L316.624 26.2644C316.987 27.455 317.151 28.5626 317.151 29.5998H321.151ZM320.451 25.0998L324.291 23.9798C323.654 21.7948 322.556 19.8353 321.032 18.1326L318.051 20.7998L315.07 23.467C315.813 24.2976 316.315 25.2048 316.611 26.2198L320.451 25.0998ZM318.051 20.7998L321.175 18.301C319.651 16.396 317.67 14.9644 315.376 13.9446L313.751 17.5998L312.127 21.255C313.432 21.8352 314.318 22.5369 314.928 23.2986L318.051 20.7998ZM313.751 17.5998L315.54 14.0221C313.095 12.7995 310.27 12.2998 307.251 12.2998V16.2998V20.2998C309.433 20.2998 310.941 20.6668 311.962 21.1775L313.751 17.5998ZM307.251 16.2998V12.2998H296.051V16.2998V20.2998H307.251V16.2998ZM296.051 16.2998H292.051V43.3998H296.051H300.051V16.2998H296.051ZM296.051 43.3998V47.3998H306.651V43.3998V39.3998H296.051V43.3998ZM385.124 8.4998L383.884 12.3027L383.933 12.3187L383.982 12.3333L385.124 8.4998ZM393.224 12.7998L390.628 15.8431L390.676 15.884L390.725 15.9233L393.224 12.7998ZM398.624 19.7998L394.979 21.4485L395.003 21.5013L395.029 21.5535L398.624 19.7998ZM399.324 37.7998L395.511 36.5908L395.497 36.6334L395.485 36.6762L399.324 37.7998ZM395.224 45.2998L398.228 47.9403L398.248 47.9181L398.267 47.8956L395.224 45.2998ZM387.624 50.6998L389.219 54.3681L389.237 54.3601L389.256 54.3518L387.624 50.6998ZM365.524 52.6998V48.6998H361.524V52.6998H365.524ZM365.524 79.2998V83.2998H369.524V79.2998H365.524ZM355.824 79.2998H351.824V83.2998H355.824V79.2998ZM355.824 6.9998V2.9998H351.824V6.9998H355.824ZM383.124 42.0998L381.488 38.4498L381.463 38.4606L381.439 38.4718L383.124 42.0998ZM387.624 38.7998L390.747 41.2986L390.777 41.2616L390.806 41.224L387.624 38.7998ZM389.924 34.2998L393.764 35.4198V35.4198L389.924 34.2998ZM389.824 25.2998L385.984 26.4198L386.012 26.5176L386.046 26.6139L389.824 25.2998ZM387.424 20.8998L384.3 23.3986L384.338 23.445L384.376 23.4904L387.424 20.8998ZM383.124 17.5998L381.335 21.1775L381.362 21.1909L381.389 21.2038L383.124 17.5998ZM365.524 16.2998V12.2998H361.524V16.2998H365.524ZM365.524 43.3998H361.524V47.3998H365.524V43.3998ZM387.924 48.8998L391.321 46.7878L390.111 44.8414L387.82 44.9012L387.924 48.8998ZM406.824 79.2998V83.2998H414.021L410.221 77.1879L406.824 79.2998ZM395.624 79.2998L392.251 81.4509L393.431 83.2998H395.624V79.2998ZM376.424 49.1998L376.32 45.2012L369.246 45.3857L373.051 51.3509L376.424 49.1998ZM375.024 6.9998V10.9998C378.326 10.9998 381.268 11.4498 383.884 12.3027L385.124 8.4998L386.364 4.69689C382.846 3.54983 379.055 2.9998 375.024 2.9998V6.9998ZM385.124 8.4998L383.982 12.3333C386.633 13.1231 388.825 14.3056 390.628 15.8431L393.224 12.7998L395.82 9.75647C393.089 7.42735 389.881 5.74315 386.266 4.66626L385.124 8.4998ZM393.224 12.7998L390.725 15.9233C392.551 17.3842 393.965 19.2066 394.979 21.4485L398.624 19.7998L402.268 18.1511C400.749 14.793 398.563 11.9488 395.723 9.67633L393.224 12.7998ZM398.624 19.7998L395.029 21.5535C396.046 23.6397 396.624 26.2176 396.624 29.3998H400.624H404.624C404.624 25.2487 403.868 21.4266 402.219 18.0461L398.624 19.7998ZM400.624 29.3998H396.624C396.624 31.8562 396.254 34.2484 395.511 36.5908L399.324 37.7998L403.137 39.0088C404.127 35.8845 404.624 32.6768 404.624 29.3998H400.624ZM399.324 37.7998L395.485 36.6762C394.851 38.8433 393.765 40.8463 392.18 42.704L395.224 45.2998L398.267 47.8956C400.549 45.22 402.197 42.223 403.163 38.9234L399.324 37.7998ZM395.224 45.2998L392.219 42.6593C390.725 44.3594 388.69 45.8424 385.992 47.0478L387.624 50.6998L389.256 54.3518C392.825 52.7572 395.856 50.6402 398.228 47.9403L395.224 45.2998ZM387.624 50.6998L386.029 47.0315C383.61 48.083 380.392 48.6998 376.224 48.6998V52.6998V56.6998C381.122 56.6998 385.504 55.9833 389.219 54.3681L387.624 50.6998ZM376.224 52.6998V48.6998H365.524V52.6998V56.6998H376.224V52.6998ZM365.524 52.6998H361.524V79.2998H365.524H369.524V52.6998H365.524ZM365.524 79.2998V75.2998H355.824V79.2998V83.2998H365.524V79.2998ZM355.824 79.2998H359.824V6.9998H355.824H351.824V79.2998H355.824ZM355.824 6.9998V10.9998H375.024V6.9998V2.9998H355.824V6.9998ZM376.024 43.3998V47.3998C379.258 47.3998 382.249 46.916 384.808 45.7278L383.124 42.0998L381.439 38.4718C380.265 39.0169 378.523 39.3998 376.024 39.3998V43.3998ZM383.124 42.0998L384.76 45.7498C387.137 44.6845 389.199 43.2338 390.747 41.2986L387.624 38.7998L384.5 36.301C383.915 37.0325 382.978 37.7817 381.488 38.4498L383.124 42.0998ZM387.624 38.7998L390.806 41.224C392.153 39.4555 393.152 37.5173 393.764 35.4198L389.924 34.2998L386.084 33.1798C385.762 34.2824 385.228 35.3441 384.442 36.3756L387.624 38.7998ZM389.924 34.2998L393.764 35.4198C394.317 33.523 394.624 31.6428 394.624 29.7998H390.624H386.624C386.624 30.7568 386.464 31.8766 386.084 33.1798L389.924 34.2998ZM390.624 29.7998H394.624C394.624 27.8406 394.267 25.8967 393.602 23.9857L389.824 25.2998L386.046 26.6139C386.448 27.7696 386.624 28.8257 386.624 29.7998H390.624ZM389.824 25.2998L393.664 24.1798C393.032 22.0124 391.951 20.0496 390.472 18.3092L387.424 20.8998L384.376 23.4904C385.163 24.4166 385.683 25.3872 385.984 26.4198L389.824 25.2998ZM387.424 20.8998L390.547 18.401C389.048 16.5269 387.107 15.0784 384.859 13.9958L383.124 17.5998L381.389 21.2038C382.74 21.8546 383.666 22.6061 384.3 23.3986L387.424 20.8998ZM383.124 17.5998L384.913 14.0221C382.48 12.8058 379.694 12.2998 376.724 12.2998V16.2998V20.2998C378.82 20.2998 380.301 20.6604 381.335 21.1775L383.124 17.5998ZM376.724 16.2998V12.2998H365.524V16.2998V20.2998H376.724V16.2998ZM365.524 16.2998H361.524V43.3998H365.524H369.524V16.2998H365.524ZM365.524 43.3998V47.3998H376.024V43.3998V39.3998H365.524V43.3998ZM387.924 48.8998L384.527 51.0118L403.427 81.4118L406.824 79.2998L410.221 77.1879L391.321 46.7878L387.924 48.8998ZM406.824 79.2998V75.2998H395.624V79.2998V83.2998H406.824V79.2998ZM395.624 79.2998L398.996 77.1487L379.796 47.0487L376.424 49.1998L373.051 51.3509L392.251 81.4509L395.624 79.2998ZM376.424 49.1998L376.528 53.1984L388.028 52.8984L387.924 48.8998L387.82 44.9012L376.32 45.2012L376.424 49.1998ZM424.542 79.2998L420.853 77.752L418.525 83.2998H424.542V79.2998ZM456.142 3.9998V-0.000197411H453.482L452.453 2.45196L456.142 3.9998ZM456.742 3.9998L460.432 2.45612L459.404 -0.000197411H456.742V3.9998ZM488.242 79.2998V83.2998H494.251L491.932 77.7561L488.242 79.2998ZM477.142 79.2998L473.419 80.7618L474.415 83.2998H477.142V79.2998ZM453.542 19.1998L451.357 15.8494L448.628 17.6292L449.819 20.6618L453.542 19.1998ZM460.442 14.6998L464.145 16.213L468.994 4.34689L458.257 11.3494L460.442 14.6998ZM434.042 79.2998V83.2998H436.728L437.745 80.813L434.042 79.2998ZM443.042 51.8998V47.8998H440.159L439.247 50.6349L443.042 51.8998ZM469.942 51.8998L473.68 50.4758L472.698 47.8998H469.942V51.8998ZM473.142 60.2998V64.2998H478.946L476.88 58.8758L473.142 60.2998ZM440.242 60.2998L436.447 59.0349L434.692 64.2998H440.242V60.2998ZM424.542 79.2998L428.23 80.8476L459.83 5.54765L456.142 3.9998L452.453 2.45196L420.853 77.752L424.542 79.2998ZM456.142 3.9998V7.9998H456.742V3.9998V-0.000197411H456.142V3.9998ZM456.742 3.9998L453.052 5.54348L484.552 80.8435L488.242 79.2998L491.932 77.7561L460.432 2.45612L456.742 3.9998ZM488.242 79.2998V75.2998H477.142V79.2998V83.2998H488.242V79.2998ZM477.142 79.2998L480.865 77.8378L457.265 17.7378L453.542 19.1998L449.819 20.6618L473.419 80.7618L477.142 79.2998ZM453.542 19.1998L455.727 22.5502L462.627 18.0502L460.442 14.6998L458.257 11.3494L451.357 15.8494L453.542 19.1998ZM460.442 14.6998L456.739 13.1866L430.339 77.7866L434.042 79.2998L437.745 80.813L464.145 16.213L460.442 14.6998ZM434.042 79.2998V75.2998H424.542V79.2998V83.2998H434.042V79.2998ZM443.042 51.8998V55.8998H469.942V51.8998V47.8998H443.042V51.8998ZM469.942 51.8998L466.204 53.3238L469.404 61.7238L473.142 60.2998L476.88 58.8758L473.68 50.4758L469.942 51.8998ZM473.142 60.2998V56.2998H440.242V60.2998V64.2998H473.142V60.2998ZM440.242 60.2998L444.037 61.5647L446.837 53.1647L443.042 51.8998L439.247 50.6349L436.447 59.0349L440.242 60.2998ZM549.259 19.8998L547.432 23.4581L551.029 25.305L552.837 21.6887L549.259 19.8998ZM523.259 17.8998L520.816 14.7327L520.794 14.7499L520.771 14.7674L523.259 17.8998ZM522.059 30.8998L519.11 33.6027L519.139 33.634L519.168 33.6647L522.059 30.8998ZM527.859 34.8998L529.567 31.2828L527.859 34.8998ZM535.359 38.0998L533.923 41.8332L533.93 41.836L535.359 38.0998ZM547.959 44.9998L545.246 47.939L545.273 47.9645L545.302 47.9894L547.959 44.9998ZM552.159 50.8998L548.482 52.4755L548.501 52.5194L548.521 52.5628L552.159 50.8998ZM550.859 69.9998L547.455 67.8994L547.438 67.9259L547.423 67.9526L550.859 69.9998ZM542.759 77.3998L544.575 80.964L542.759 77.3998ZM520.959 78.9998L519.968 82.875L519.978 82.8777L519.989 82.8804L520.959 78.9998ZM512.959 76.1998L511.209 79.7967L511.249 79.8161L511.289 79.8345L512.959 76.1998ZM506.359 72.4998L502.878 70.5301L501.032 73.7918L504.167 75.8456L506.359 72.4998ZM510.659 64.8998L512.971 61.6357L509.358 59.0764L507.178 62.9301L510.659 64.8998ZM516.159 68.1998L514.324 71.7543L514.37 71.778L514.417 71.8004L516.159 68.1998ZM522.659 70.6998L521.53 74.5373L521.583 74.5527L521.635 74.5666L522.659 70.6998ZM535.959 70.3998L537.326 74.159L537.357 74.1478L537.388 74.136L535.959 70.3998ZM541.559 66.4998L544.613 69.0836L541.559 66.4998ZM541.759 53.4998L538.574 55.9201L538.629 55.9916L538.686 56.0605L541.759 53.4998ZM536.659 49.2998L534.698 52.7861L534.74 52.8097L534.782 52.8323L536.659 49.2998ZM529.859 46.0998L531.309 42.3718L531.298 42.3677L531.288 42.3636L529.859 46.0998ZM522.959 43.2998L521.296 46.9377L521.339 46.9576L521.383 46.9764L522.959 43.2998ZM516.459 39.4998L514.025 42.6742L514.059 42.7002L514.094 42.7254L516.459 39.4998ZM512.559 15.9998L509.207 13.8171L509.201 13.8269L509.194 13.8368L512.559 15.9998ZM520.159 9.2998L521.948 12.8775L521.977 12.8627L522.007 12.8475L520.159 9.2998ZM531.159 6.5998V2.5998H531.094L531.03 2.60188L531.159 6.5998ZM543.459 8.2998L542.237 12.1087L542.248 12.112L542.258 12.1152L543.459 8.2998ZM552.959 12.4998L556.537 14.2887L558.181 10.9992L555.041 9.08461L552.959 12.4998ZM549.259 19.8998L551.086 16.3415C548.402 14.9631 545.494 13.7815 542.372 12.7881L541.159 16.5998L539.946 20.4115C542.691 21.2848 545.183 22.3031 547.432 23.4581L549.259 19.8998ZM541.159 16.5998L542.372 12.7881C539.085 11.7423 535.809 11.1998 532.559 11.1998V15.1998V19.1998C534.909 19.1998 537.366 19.5906 539.946 20.4115L541.159 16.5998ZM532.559 15.1998V11.1998C528.085 11.1998 524.04 12.2452 520.816 14.7327L523.259 17.8998L525.702 21.0669C527.144 19.9545 529.3 19.1998 532.559 19.1998V15.1998ZM523.259 17.8998L520.771 14.7674C517.51 17.3577 515.859 20.9313 515.859 25.0998H519.859H523.859C523.859 23.2683 524.475 22.0419 525.747 21.0322L523.259 17.8998ZM519.859 25.0998H515.859C515.859 28.3185 516.935 31.2298 519.11 33.6027L522.059 30.8998L525.008 28.1969C524.249 27.3698 523.859 26.4145 523.859 25.0998H519.859ZM522.059 30.8998L519.168 33.6647C521.047 35.6285 523.415 37.2247 526.151 38.5168L527.859 34.8998L529.567 31.2828C527.503 30.3082 526.004 29.2378 524.95 28.1349L522.059 30.8998ZM527.859 34.8998L526.151 38.5168C528.644 39.6943 531.235 40.7995 533.923 41.8332L535.359 38.0998L536.795 34.3664C534.282 33.4001 531.874 32.372 529.567 31.2828L527.859 34.8998ZM535.359 38.0998L533.93 41.836C536.089 42.6613 538.217 43.5822 540.314 44.5991L542.059 40.9998L543.804 37.4005C541.501 36.2841 539.162 35.2716 536.788 34.3636L535.359 38.0998ZM542.059 40.9998L540.314 44.5991C542.174 45.5007 543.811 46.615 545.246 47.939L547.959 44.9998L550.672 42.0606C548.64 40.1846 546.344 38.6322 543.804 37.4005L542.059 40.9998ZM547.959 44.9998L545.302 47.9894C546.638 49.1777 547.701 50.6527 548.482 52.4755L552.159 50.8998L555.836 49.3241C554.617 46.4802 552.88 44.0219 550.616 42.0102L547.959 44.9998ZM552.159 50.8998L548.521 52.5628C549.281 54.2249 549.759 56.5164 549.759 59.5998H553.759H557.759C557.759 55.7499 557.17 52.2414 555.797 49.2368L552.159 50.8998ZM553.759 59.5998H549.759C549.759 62.683 548.986 65.4184 547.455 67.8994L550.859 69.9998L554.263 72.1002C556.599 68.3146 557.759 64.1166 557.759 59.5998H553.759ZM550.859 69.9998L547.423 67.9526C545.976 70.3811 543.865 72.3472 540.943 73.8356L542.759 77.3998L544.575 80.964C548.72 78.8524 552.009 75.8852 554.295 72.047L550.859 69.9998ZM542.759 77.3998L540.943 73.8356C538.086 75.2913 534.536 76.0998 530.159 76.0998V80.0998V84.0998C535.516 84.0998 540.365 83.1083 544.575 80.964L542.759 77.3998ZM530.159 80.0998V76.0998C527.267 76.0998 524.527 75.7688 521.929 75.1192L520.959 78.9998L519.989 82.8804C523.257 83.6975 526.651 84.0998 530.159 84.0998V80.0998ZM520.959 78.9998L521.95 75.1246C519.296 74.4456 516.859 73.5895 514.629 72.5651L512.959 76.1998L511.289 79.8345C513.993 81.0768 516.889 82.0874 519.968 82.875L520.959 78.9998ZM512.959 76.1998L514.709 72.6029C512.367 71.4638 510.319 70.3124 508.551 69.154L506.359 72.4998L504.167 75.8456C506.265 77.2206 508.617 78.5358 511.209 79.7967L512.959 76.1998ZM506.359 72.4998L509.84 74.4695L514.14 66.8695L510.659 64.8998L507.178 62.9301L502.878 70.5301L506.359 72.4998ZM510.659 64.8998L508.347 68.1639C510.124 69.4227 512.122 70.6173 514.324 71.7543L516.159 68.1998L517.994 64.6453C516.063 63.649 514.394 62.6436 512.971 61.6357L510.659 64.8998ZM516.159 68.1998L514.417 71.8004C516.687 72.8988 519.059 73.8104 521.53 74.5373L522.659 70.6998L523.788 66.8623C521.726 66.2558 519.765 65.5008 517.901 64.5992L516.159 68.1998ZM522.659 70.6998L521.635 74.5666C524.203 75.2464 526.748 75.5998 529.259 75.5998V71.5998V67.5998C527.503 67.5998 525.648 67.3532 523.683 66.833L522.659 70.6998ZM529.259 71.5998V75.5998C532.007 75.5998 534.702 75.113 537.326 74.159L535.959 70.3998L534.592 66.6406C532.816 67.2866 531.044 67.5998 529.259 67.5998V71.5998ZM535.959 70.3998L537.388 74.136C540.24 73.0455 542.68 71.3673 544.613 69.0836L541.559 66.4998L538.505 63.916C537.504 65.099 536.212 66.0208 534.53 66.6636L535.959 70.3998ZM541.559 66.4998L544.613 69.0836C546.837 66.4546 547.759 63.1574 547.759 59.5998H543.759H539.759C539.759 61.7756 539.214 63.0784 538.505 63.916L541.559 66.4998ZM543.759 59.5998H547.759C547.759 56.3779 546.87 53.3854 544.832 50.9391L541.759 53.4998L538.686 56.0605C539.314 56.8142 539.759 57.8883 539.759 59.5998H543.759ZM541.759 53.4998L544.944 51.0795C543.277 48.8859 541.102 47.1307 538.536 45.7673L536.659 49.2998L534.782 52.8323C536.483 53.7356 537.708 54.7803 538.574 55.9201L541.759 53.4998ZM536.659 49.2998L538.62 45.8135C536.314 44.5163 533.876 43.37 531.309 42.3718L529.859 46.0998L528.409 49.8278C530.642 50.6963 532.737 51.6833 534.698 52.7861L536.659 49.2998ZM529.859 46.0998L531.288 42.3636C529.073 41.5167 526.822 40.6033 524.535 39.6232L522.959 43.2998L521.383 46.9764C523.763 47.9963 526.112 48.9496 528.43 49.836L529.859 46.0998ZM522.959 43.2998L524.622 39.6619C522.528 38.7045 520.598 37.5744 518.824 36.2742L516.459 39.4998L514.094 42.7254C516.32 44.3585 518.724 45.7618 521.296 46.9377L522.959 43.2998ZM516.459 39.4998L518.893 36.3254C517.333 35.1299 516.102 33.6912 515.171 31.9844L511.659 33.8998L508.147 35.8152C509.616 38.5084 511.585 40.8031 514.025 42.6742L516.459 39.4998ZM511.659 33.8998L515.171 31.9844C514.362 30.5013 513.859 28.5286 513.859 25.8998H509.859H505.859C505.859 29.5377 506.556 32.8983 508.147 35.8152L511.659 33.8998ZM509.859 25.8998H513.859C513.859 22.7553 514.595 20.2299 515.924 18.1628L512.559 15.9998L509.194 13.8368C506.923 17.3697 505.859 21.4443 505.859 25.8998H509.859ZM512.559 15.9998L515.911 18.1825C517.372 15.9393 519.353 14.1748 521.948 12.8775L520.159 9.2998L518.37 5.72209C514.565 7.62476 511.48 10.327 509.207 13.8171L512.559 15.9998ZM520.159 9.2998L522.007 12.8475C524.602 11.4957 527.666 10.7145 531.288 10.5977L531.159 6.5998L531.03 2.60188C526.385 2.75172 522.116 3.77057 518.311 5.75214L520.159 9.2998ZM531.159 6.5998V10.5998C535.513 10.5998 539.185 11.1297 542.237 12.1087L543.459 8.2998L544.681 4.49094C540.666 3.2032 536.138 2.5998 531.159 2.5998V6.5998ZM543.459 8.2998L542.258 12.1152C545.602 13.1681 548.464 14.4437 550.877 15.915L552.959 12.4998L555.041 9.08461C551.988 7.22252 548.516 5.69817 544.66 4.4844L543.459 8.2998ZM552.959 12.4998L549.381 10.7109L545.681 18.1109L549.259 19.8998L552.837 21.6887L556.537 14.2887L552.959 12.4998Z" fill="#12274B" mask="url(#path-1-outside-1_146_410)"/>
</svg>
