<svg width="852" height="229" viewBox="0 0 852 229" fill="none" xmlns="http://www.w3.org/2000/svg">
<g clip-path="url(#clip0_111_371)">
<path d="M62.1845 22.968C59.0272 21.3467 55.5712 19.9387 51.8165 18.744C48.0618 17.5493 44.3925 16.952 40.8085 16.952C35.8592 16.952 31.8912 18.104 28.9045 20.408C26.0032 22.712 24.5525 25.784 24.5525 29.624C24.5525 32.5253 25.4912 35 27.3685 37.048C29.2458 39.0107 31.7205 40.7173 34.7925 42.168C37.8645 43.6187 41.0645 44.984 44.3925 46.264C47.2938 47.3733 50.1525 48.6107 52.9685 49.976C55.7845 51.3413 58.3018 53.048 60.5205 55.096C62.8245 57.144 64.6165 59.6613 65.8965 62.648C67.2618 65.6347 67.9445 69.3467 67.9445 73.784C67.9445 78.648 66.7072 83.0853 64.2325 87.096C61.8432 91.1067 58.3872 94.264 53.8645 96.568C49.3418 98.872 43.9658 100.024 37.7365 100.024C33.6405 100.024 29.7152 99.5547 25.9605 98.616C22.2912 97.6773 18.8778 96.4827 15.7205 95.032C12.5632 93.496 9.74713 91.9173 7.27246 90.296L12.7765 80.568C14.8245 82.0187 17.1712 83.4267 19.8165 84.792C22.4618 86.072 25.2352 87.1387 28.1365 87.992C31.0378 88.76 33.8538 89.144 36.5845 89.144C39.4858 89.144 42.3445 88.632 45.1605 87.608C48.0618 86.4987 50.4512 84.8347 52.3285 82.616C54.2058 80.3973 55.1445 77.4533 55.1445 73.784C55.1445 70.6267 54.2912 68.024 52.5845 65.976C50.9632 63.8427 48.7872 62.0507 46.0565 60.6C43.3258 59.064 40.4245 57.6987 37.3525 56.504C34.4512 55.3947 31.5072 54.2 28.5205 52.92C25.5338 51.5547 22.7605 49.9333 20.2005 48.056C17.6405 46.0933 15.5925 43.704 14.0565 40.888C12.5205 38.072 11.7525 34.6587 11.7525 30.648C11.7525 25.784 12.9045 21.56 15.2085 17.976C17.5978 14.3067 20.8405 11.448 24.9365 9.4C29.0325 7.26667 33.7258 6.11467 39.0165 5.944C44.9898 5.944 50.2378 6.66934 54.7605 8.12001C59.3685 9.57067 63.4218 11.3627 66.9205 13.496L62.1845 22.968ZM208.748 66.232C208.748 70.4133 209.729 74.168 211.692 77.496C213.74 80.7387 216.428 83.2987 219.756 85.176C223.084 87.0533 226.839 87.992 231.02 87.992C235.372 87.992 239.255 87.0533 242.668 85.176C246.081 83.2987 248.769 80.7387 250.732 77.496C252.695 74.168 253.676 70.4133 253.676 66.232V6.456H265.836V66.616C265.836 73.3573 264.257 79.2453 261.1 84.28C258.028 89.3147 253.847 93.1973 248.556 95.928C243.351 98.6587 237.505 100.024 231.02 100.024C224.535 100.024 218.689 98.6587 213.484 95.928C208.279 93.1973 204.14 89.3147 201.068 84.28C197.996 79.2453 196.46 73.3573 196.46 66.616V6.456H208.748V66.232ZM424.741 6.456C431.482 6.456 437.242 7.608 442.021 9.912C446.8 12.1307 450.469 15.3733 453.029 19.64C455.674 23.9067 456.997 29.0693 456.997 35.128C456.997 38.7973 456.442 42.424 455.333 46.008C454.224 49.5067 452.432 52.7067 449.957 55.608C447.568 58.424 444.41 60.6853 440.485 62.392C436.56 64.0987 431.781 64.952 426.149 64.952H412.453V99H400.037V6.456H424.741ZM426.021 53.048C429.69 53.048 432.72 52.4507 435.109 51.256C437.498 50.0613 439.376 48.568 440.741 46.776C442.106 44.8987 443.088 42.936 443.685 40.888C444.282 38.84 444.581 37.0053 444.581 35.384C444.581 33.5067 444.282 31.5867 443.685 29.624C443.088 27.576 442.064 25.7413 440.613 24.12C439.248 22.4133 437.413 21.048 435.109 20.024C432.89 18.9147 430.117 18.36 426.789 18.36H412.453V53.048H426.021ZM584.962 6.456H645.122V18.36H597.378V46.52H640.003V58.424H597.378V87.096H646.914V99H584.962V6.456ZM801.839 6.456C806.532 6.456 810.841 7.09601 814.766 8.37601C818.777 9.57068 822.233 11.4053 825.134 13.88C828.121 16.2693 830.426 19.256 832.047 22.84C833.754 26.3387 834.607 30.4347 834.607 35.128C834.607 38.7973 834.052 42.3813 832.943 45.88C831.919 49.3787 830.169 52.5787 827.694 55.48C825.219 58.296 821.977 60.6 817.966 62.392C814.041 64.0987 809.178 64.952 803.375 64.952H789.678V99H777.263V6.456H801.839ZM803.118 53.048C806.787 53.048 809.817 52.4933 812.206 51.384C814.681 50.2747 816.601 48.8667 817.966 47.16C819.331 45.368 820.313 43.448 820.91 41.4C821.507 39.352 821.807 37.432 821.807 35.64C821.807 33.7627 821.465 31.8427 820.782 29.88C820.185 27.832 819.162 25.9547 817.711 24.248C816.346 22.5413 814.51 21.1333 812.206 20.024C809.987 18.9147 807.257 18.36 804.014 18.36H789.678V53.048H803.118ZM818.35 60.088L842.542 99H828.206L803.63 60.472L818.35 60.088Z" fill="black"/>
<mask id="mask0_111_371" style="mask-type:luminance" maskUnits="userSpaceOnUse" x="0" y="0" width="852" height="106">
<path d="M852 0H0V106H852V0Z" fill="white"/>
<path d="M62.1845 22.968C59.0272 21.3467 55.5712 19.9387 51.8165 18.744C48.0618 17.5493 44.3925 16.952 40.8085 16.952C35.8592 16.952 31.8912 18.104 28.9045 20.408C26.0032 22.712 24.5525 25.784 24.5525 29.624C24.5525 32.5253 25.4912 35 27.3685 37.048C29.2458 39.0107 31.7205 40.7173 34.7925 42.168C37.8645 43.6187 41.0645 44.984 44.3925 46.264C47.2938 47.3733 50.1525 48.6107 52.9685 49.976C55.7845 51.3413 58.3018 53.048 60.5205 55.096C62.8245 57.144 64.6165 59.6613 65.8965 62.648C67.2618 65.6347 67.9445 69.3467 67.9445 73.784C67.9445 78.648 66.7072 83.0853 64.2325 87.096C61.8432 91.1067 58.3872 94.264 53.8645 96.568C49.3418 98.872 43.9658 100.024 37.7365 100.024C33.6405 100.024 29.7152 99.5547 25.9605 98.616C22.2912 97.6773 18.8778 96.4827 15.7205 95.032C12.5632 93.496 9.74713 91.9173 7.27246 90.296L12.7765 80.568C14.8245 82.0187 17.1712 83.4267 19.8165 84.792C22.4618 86.072 25.2352 87.1387 28.1365 87.992C31.0378 88.76 33.8538 89.144 36.5845 89.144C39.4858 89.144 42.3445 88.632 45.1605 87.608C48.0618 86.4987 50.4512 84.8347 52.3285 82.616C54.2058 80.3973 55.1445 77.4533 55.1445 73.784C55.1445 70.6267 54.2912 68.024 52.5845 65.976C50.9632 63.8427 48.7872 62.0507 46.0565 60.6C43.3258 59.064 40.4245 57.6987 37.3525 56.504C34.4512 55.3947 31.5072 54.2 28.5205 52.92C25.5338 51.5547 22.7605 49.9333 20.2005 48.056C17.6405 46.0933 15.5925 43.704 14.0565 40.888C12.5205 38.072 11.7525 34.6587 11.7525 30.648C11.7525 25.784 12.9045 21.56 15.2085 17.976C17.5978 14.3067 20.8405 11.448 24.9365 9.4C29.0325 7.26667 33.7258 6.11467 39.0165 5.944C44.9898 5.944 50.2378 6.66934 54.7605 8.12001C59.3685 9.57067 63.4218 11.3627 66.9205 13.496L62.1845 22.968ZM208.748 66.232C208.748 70.4133 209.729 74.168 211.692 77.496C213.74 80.7387 216.428 83.2987 219.756 85.176C223.084 87.0533 226.839 87.992 231.02 87.992C235.372 87.992 239.255 87.0533 242.668 85.176C246.081 83.2987 248.769 80.7387 250.732 77.496C252.695 74.168 253.676 70.4133 253.676 66.232V6.456H265.836V66.616C265.836 73.3573 264.257 79.2453 261.1 84.28C258.028 89.3147 253.847 93.1973 248.556 95.928C243.351 98.6587 237.505 100.024 231.02 100.024C224.535 100.024 218.689 98.6587 213.484 95.928C208.279 93.1973 204.14 89.3147 201.068 84.28C197.996 79.2453 196.46 73.3573 196.46 66.616V6.456H208.748V66.232ZM424.741 6.456C431.482 6.456 437.242 7.608 442.021 9.912C446.8 12.1307 450.469 15.3733 453.029 19.64C455.674 23.9067 456.997 29.0693 456.997 35.128C456.997 38.7973 456.442 42.424 455.333 46.008C454.224 49.5067 452.432 52.7067 449.957 55.608C447.568 58.424 444.41 60.6853 440.485 62.392C436.56 64.0987 431.781 64.952 426.149 64.952H412.453V99H400.037V6.456H424.741ZM426.021 53.048C429.69 53.048 432.72 52.4507 435.109 51.256C437.498 50.0613 439.376 48.568 440.741 46.776C442.106 44.8987 443.088 42.936 443.685 40.888C444.282 38.84 444.581 37.0053 444.581 35.384C444.581 33.5067 444.282 31.5867 443.685 29.624C443.088 27.576 442.064 25.7413 440.613 24.12C439.248 22.4133 437.413 21.048 435.109 20.024C432.89 18.9147 430.117 18.36 426.789 18.36H412.453V53.048H426.021ZM584.962 6.456H645.122V18.36H597.378V46.52H640.003V58.424H597.378V87.096H646.914V99H584.962V6.456ZM801.839 6.456C806.532 6.456 810.841 7.09601 814.766 8.37601C818.777 9.57068 822.233 11.4053 825.134 13.88C828.121 16.2693 830.426 19.256 832.047 22.84C833.754 26.3387 834.607 30.4347 834.607 35.128C834.607 38.7973 834.052 42.3813 832.943 45.88C831.919 49.3787 830.169 52.5787 827.694 55.48C825.219 58.296 821.977 60.6 817.966 62.392C814.041 64.0987 809.178 64.952 803.375 64.952H789.678V99H777.263V6.456H801.839ZM803.118 53.048C806.787 53.048 809.817 52.4933 812.206 51.384C814.681 50.2747 816.601 48.8667 817.966 47.16C819.331 45.368 820.313 43.448 820.91 41.4C821.507 39.352 821.807 37.432 821.807 35.64C821.807 33.7627 821.465 31.8427 820.782 29.88C820.185 27.832 819.162 25.9547 817.711 24.248C816.346 22.5413 814.51 21.1333 812.206 20.024C809.987 18.9147 807.257 18.36 804.014 18.36H789.678V53.048H803.118ZM818.35 60.088L842.542 99H828.206L803.63 60.472L818.35 60.088Z" fill="black"/>
</mask>
<g mask="url(#mask0_111_371)">
<path d="M62.1839 22.968L59.8999 27.4158L64.3958 29.7245L66.656 25.2041L62.1839 22.968ZM28.9039 20.408L25.8499 16.4491L25.822 16.4706L25.7945 16.4924L28.9039 20.408ZM27.3679 37.048L23.6821 40.4266L23.718 40.4658L23.7547 40.5041L27.3679 37.048ZM44.3919 46.264L42.597 50.9307L42.6062 50.9343L44.3919 46.264ZM60.5199 55.096L57.1285 58.77L57.163 58.8019L57.1981 58.833L60.5199 55.096ZM65.8959 62.648L61.3002 64.6176L61.3237 64.6725L61.3485 64.7268L65.8959 62.648ZM64.2319 87.096L59.9767 84.4705L59.9563 84.5036L59.9364 84.537L64.2319 87.096ZM25.9599 98.616L24.7207 103.46L24.734 103.463L24.7472 103.467L25.9599 98.616ZM15.7199 95.032L13.5326 99.5282L13.5822 99.5523L13.6324 99.5754L15.7199 95.032ZM7.27187 90.296L2.92012 87.8338L0.613281 91.911L4.53174 94.4783L7.27187 90.296ZM12.7759 80.568L15.666 76.4879L11.1496 73.2888L8.42412 78.1058L12.7759 80.568ZM19.8159 84.792L17.5227 89.2351L17.58 89.2647L17.6381 89.2928L19.8159 84.792ZM28.1359 87.992L26.7251 92.7888L26.7905 92.8081L26.8564 92.8255L28.1359 87.992ZM45.1599 87.608L46.8686 92.307L46.9072 92.2929L46.9456 92.2783L45.1599 87.608ZM52.5839 65.976L48.6031 69.0014L48.671 69.0907L48.7428 69.1769L52.5839 65.976ZM46.0559 60.6L43.6046 64.9579L43.657 64.9874L43.7101 65.0156L46.0559 60.6ZM37.3519 56.504L39.1641 51.844L39.1509 51.8388L39.1376 51.8337L37.3519 56.504ZM28.5199 52.92L26.4411 57.4674L26.4954 57.4922L26.5503 57.5157L28.5199 52.92ZM20.1999 48.056L17.1577 52.024L17.2001 52.0565L17.2431 52.088L20.1999 48.056ZM15.2079 17.976L11.0179 15.2476L11.0099 15.2599L11.002 15.2722L15.2079 17.976ZM24.9359 9.4L27.172 13.8721L27.2089 13.8537L27.2456 13.8346L24.9359 9.4ZM39.0159 5.944V0.944H38.9353L38.8547 0.946599L39.0159 5.944ZM54.7599 8.12001L53.2328 12.8811L53.2456 12.8852L53.2585 12.8892L54.7599 8.12001ZM66.9199 13.496L71.392 15.7321L73.4479 11.6203L69.5229 9.22702L66.9199 13.496ZM62.1839 22.968L64.4679 18.5202C61.0386 16.7592 57.3225 15.2491 53.3319 13.9794L51.8159 18.744L50.2999 23.5086C53.8187 24.6282 57.0145 25.9342 59.8999 27.4158L62.1839 22.968ZM51.8159 18.744L53.3319 13.9794C49.1354 12.6441 44.9547 11.952 40.8079 11.952V16.952V21.952C43.8291 21.952 46.9871 22.4545 50.2999 23.5086L51.8159 18.744ZM40.8079 16.952V11.952C35.0991 11.952 29.9506 13.2857 25.8499 16.4491L28.9039 20.408L31.9579 24.3669C33.8305 22.9223 36.6181 21.952 40.8079 21.952V16.952ZM28.9039 20.408L25.7945 16.4924C21.6491 19.7844 19.5519 24.3234 19.5519 29.624H24.5519H29.5519C29.5519 27.2446 30.3561 25.6396 32.0133 24.3236L28.9039 20.408ZM24.5519 29.624H19.5519C19.5519 33.7153 20.9192 37.4125 23.6821 40.4266L27.3679 37.048L31.0537 33.6694C30.0619 32.5875 29.5519 31.3353 29.5519 29.624H24.5519ZM27.3679 37.048L23.7547 40.5041C26.1467 43.0049 29.1647 45.0402 32.6569 46.6892L34.7919 42.168L36.9269 37.6468C34.2751 36.3945 32.3437 35.0164 30.9811 33.5919L27.3679 37.048ZM34.7919 42.168L32.6569 46.6892C35.8457 48.1951 39.1595 49.6086 42.597 50.9307L44.3919 46.264L46.1868 41.5973C42.9683 40.3594 39.8821 39.0422 36.9269 37.6468L34.7919 42.168ZM44.3919 46.264L42.6062 50.9343C45.3722 51.9919 48.0989 53.172 50.7865 54.4751L52.9679 49.976L55.1493 45.4769C52.2049 44.0493 49.2142 42.7548 46.1776 41.5937L44.3919 46.264ZM52.9679 49.976L50.7865 54.4751C53.1771 55.6341 55.2835 57.0669 57.1285 58.77L60.5199 55.096L63.9113 51.422C61.319 49.029 58.3907 47.0485 55.1493 45.4769L52.9679 49.976ZM60.5199 55.096L57.1981 58.833C58.9231 60.3664 60.2937 62.2692 61.3002 64.6176L65.8959 62.648L70.4916 60.6784C68.9381 57.0535 66.7247 53.9216 63.8417 51.359L60.5199 55.096ZM65.8959 62.648L61.3485 64.7268C62.3303 66.8744 62.9439 69.8257 62.9439 73.784H67.9439H72.9439C72.9439 68.8676 72.1922 64.395 70.4433 60.5692L65.8959 62.648ZM67.9439 73.784H62.9439C62.9439 77.752 61.9483 81.2752 59.9767 84.4705L64.2319 87.096L68.4871 89.7215C71.4649 84.8955 72.9439 79.544 72.9439 73.784H67.9439ZM64.2319 87.096L59.9364 84.537C58.0719 87.6666 55.3525 90.1982 51.5943 92.1128L53.8639 96.568L56.1335 101.023C61.4207 98.3298 65.6132 94.5467 68.5274 89.655L64.2319 87.096ZM53.8639 96.568L51.5943 92.1128C47.9165 93.9864 43.3528 95.024 37.7359 95.024V100.024V105.024C44.5777 105.024 50.7659 103.758 56.1335 101.023L53.8639 96.568ZM37.7359 100.024V95.024C34.0249 95.024 30.5082 94.5992 27.1726 93.7653L25.9599 98.616L24.7472 103.467C28.9209 104.51 33.2549 105.024 37.7359 105.024V100.024ZM25.9599 98.616L27.1991 93.772C23.7952 92.9012 20.6684 91.8031 17.8074 90.4886L15.7199 95.032L13.6324 99.5754C17.0861 101.162 20.786 102.453 24.7207 103.46L25.9599 98.616ZM15.7199 95.032L17.9072 90.5358C14.9066 89.076 12.2802 87.5997 10.012 86.1137L7.27187 90.296L4.53174 94.4783C7.21293 96.2349 10.2186 97.916 13.5326 99.5282L15.7199 95.032ZM7.27187 90.296L11.6236 92.7582L17.1276 83.0302L12.7759 80.568L8.42412 78.1058L2.92012 87.8338L7.27187 90.296ZM12.7759 80.568L9.88578 84.6481C12.1552 86.2556 14.7071 87.7819 17.5227 89.2351L19.8159 84.792L22.1091 80.3489C19.634 79.0714 17.4926 77.7817 15.666 76.4879L12.7759 80.568ZM19.8159 84.792L17.6381 89.2928C20.5376 90.6958 23.568 91.8603 26.7251 92.7888L28.1359 87.992L29.5467 83.1952C26.9011 82.417 24.3849 81.4482 21.9937 80.2912L19.8159 84.792ZM28.1359 87.992L26.8564 92.8255C30.1344 93.6932 33.381 94.144 36.5839 94.144V89.144V84.144C34.3254 84.144 31.94 83.8268 29.4154 83.1585L28.1359 87.992ZM36.5839 89.144V94.144C40.0871 94.144 43.5232 93.5235 46.8686 92.307L45.1599 87.608L43.4512 82.909C41.1647 83.7405 38.8834 84.144 36.5839 84.144V89.144ZM45.1599 87.608L46.9456 92.2783C50.5788 90.8891 53.6854 88.7523 56.1448 85.8457L52.3279 82.616L48.511 79.3863C47.2158 80.917 45.5437 82.1082 43.3742 82.9377L45.1599 87.608ZM52.3279 82.616L56.1448 85.8457C58.9695 82.5074 60.1439 78.317 60.1439 73.784H55.1439H50.1439C50.1439 76.5897 49.441 78.2872 48.511 79.3863L52.3279 82.616ZM55.1439 73.784H60.1439C60.1439 69.6826 59.0133 65.881 56.425 62.7751L52.5839 65.976L48.7428 69.1769C49.5679 70.167 50.1439 71.5707 50.1439 73.784H55.1439ZM52.5839 65.976L56.5647 62.9506C54.4429 60.1587 51.6735 57.9226 48.4017 56.1844L46.0559 60.6L43.7101 65.0156C45.8996 66.1788 47.4823 67.5266 48.6031 69.0014L52.5839 65.976ZM46.0559 60.6L48.5072 56.2421C45.5606 54.5846 42.4447 53.1197 39.1641 51.844L37.3519 56.504L35.5397 61.164C38.4031 62.2776 41.0899 63.5434 43.6046 64.9579L46.0559 60.6ZM37.3519 56.504L39.1376 51.8337C36.3008 50.7491 33.4181 49.5794 30.4895 48.3243L28.5199 52.92L26.5503 57.5157C29.595 58.8206 32.6003 60.0402 35.5662 61.1743L37.3519 56.504ZM28.5199 52.92L30.5987 48.3726C27.9108 47.1439 25.4331 45.6933 23.1567 44.024L20.1999 48.056L17.2431 52.088C20.0867 54.1734 23.1556 55.9654 26.4411 57.4674L28.5199 52.92ZM20.1999 48.056L23.2421 44.088C21.2329 42.5476 19.6451 40.6933 18.4454 38.4937L14.0559 40.888L9.66639 43.2823C11.5387 46.7147 14.0469 49.6391 17.1577 52.024L20.1999 48.056ZM14.0559 40.888L18.4454 38.4937C17.3982 36.5739 16.7519 34.028 16.7519 30.648H11.7519H6.75187C6.75187 35.2893 7.64157 39.5701 9.66639 43.2823L14.0559 40.888ZM11.7519 30.648H16.7519C16.7519 26.6034 17.6988 23.3476 19.4138 20.6798L15.2079 17.976L11.002 15.2722C8.10898 19.7724 6.75187 24.9646 6.75187 30.648H11.7519ZM15.2079 17.976L19.3979 20.7044C21.2797 17.8144 23.8326 15.5418 27.172 13.8721L24.9359 9.4L22.6998 4.92787C17.8472 7.3542 13.9147 10.799 11.0179 15.2476L15.2079 17.976ZM24.9359 9.4L27.2456 13.8346C30.5858 12.0949 34.5261 11.0914 39.1771 10.9414L39.0159 5.944L38.8547 0.946599C32.9244 1.13791 27.478 2.43847 22.6262 4.96543L24.9359 9.4ZM39.0159 5.944V10.944C44.5982 10.944 49.3118 11.6234 53.2328 12.8811L54.7599 8.12001L56.287 3.35893C51.1626 1.71525 45.3803 0.944 39.0159 0.944V5.944ZM54.7599 8.12001L53.2585 12.8892C57.5471 14.2394 61.2188 15.8759 64.3169 17.765L66.9199 13.496L69.5229 9.22702C65.6236 6.84941 61.1887 4.90197 56.2613 3.35076L54.7599 8.12001ZM66.9199 13.496L62.4478 11.2599L57.7118 20.7319L62.1839 22.968L66.656 25.2041L71.392 15.7321L66.9199 13.496ZM211.692 77.496L207.385 80.0359L207.424 80.1015L207.465 80.166L211.692 77.496ZM250.732 77.496L255.01 80.085L255.024 80.0606L255.039 80.0359L250.732 77.496ZM253.676 6.456V1.456H248.676V6.456H253.676ZM265.836 6.456H270.836V1.456H265.836V6.456ZM261.1 84.28L256.864 81.6236L256.848 81.6495L256.832 81.6757L261.1 84.28ZM248.556 95.928L246.263 91.4849L246.248 91.4925L246.233 91.5003L248.556 95.928ZM196.46 6.456V1.456H191.46V6.456H196.46ZM208.748 6.456H213.748V1.456H208.748V6.456ZM208.748 66.232H203.748C203.748 71.2308 204.932 75.8755 207.385 80.0359L211.692 77.496L215.999 74.9561C214.527 72.4605 213.748 69.5959 213.748 66.232H208.748ZM211.692 77.496L207.465 80.166C209.953 84.1054 213.248 87.2455 217.299 89.5309L219.756 85.176L222.213 80.8211C219.608 79.3518 217.527 77.3719 215.919 74.826L211.692 77.496ZM219.756 85.176L217.299 89.5309C221.446 91.8703 226.061 92.992 231.02 92.992V87.992V82.992C227.616 82.992 224.722 82.2364 222.213 80.8211L219.756 85.176ZM231.02 87.992V92.992C236.114 92.992 240.843 91.8863 245.078 89.5571L242.668 85.176L240.258 80.7949C237.667 82.2204 234.63 82.992 231.02 82.992V87.992ZM242.668 85.176L245.078 89.5571C249.238 87.269 252.579 84.1001 255.01 80.085L250.732 77.496L246.455 74.907C244.959 77.3772 242.925 79.3283 240.258 80.7949L242.668 85.176ZM250.732 77.496L255.039 80.0359C257.492 75.8755 258.676 71.2308 258.676 66.232H253.676H248.676C248.676 69.5959 247.897 72.4605 246.425 74.9561L250.732 77.496ZM253.676 66.232H258.676V6.456H253.676H248.676V66.232H253.676ZM253.676 6.456V11.456H265.836V6.456V1.456H253.676V6.456ZM265.836 6.456H260.836V66.616H265.836H270.836V6.456H265.836ZM265.836 66.616H260.836C260.836 72.5472 259.458 77.488 256.864 81.6236L261.1 84.28L265.336 86.9364C269.057 81.0026 270.836 74.1675 270.836 66.616H265.836ZM261.1 84.28L256.832 81.6757C254.242 85.9202 250.747 89.1704 246.263 91.4849L248.556 95.928L250.849 100.371C256.946 97.2243 261.814 92.7091 265.368 86.8843L261.1 84.28ZM248.556 95.928L246.233 91.5003C241.816 93.8174 236.781 95.024 231.02 95.024V100.024V105.024C238.229 105.024 244.885 103.5 250.879 100.356L248.556 95.928ZM231.02 100.024V95.024C225.259 95.024 220.224 93.8174 215.807 91.5003L213.484 95.928L211.161 100.356C217.155 103.5 223.811 105.024 231.02 105.024V100.024ZM213.484 95.928L215.807 91.5003C211.406 89.1916 207.938 85.9404 205.336 81.6757L201.068 84.28L196.8 86.8843C200.342 92.6889 205.152 97.2031 211.161 100.356L213.484 95.928ZM201.068 84.28L205.336 81.6757C202.808 77.5325 201.46 72.5726 201.46 66.616H196.46H191.46C191.46 74.142 193.184 80.9582 196.8 86.8843L201.068 84.28ZM196.46 66.616H201.46V6.456H196.46H191.46V66.616H196.46ZM196.46 6.456V11.456H208.748V6.456V1.456H196.46V6.456ZM208.748 6.456H203.748V66.232H208.748H213.748V6.456H208.748ZM442.021 9.912L439.85 14.4158L439.882 14.4317L439.915 14.447L442.021 9.912ZM453.029 19.64L448.742 22.2125L448.76 22.2437L448.78 22.2747L453.029 19.64ZM455.333 46.008L460.099 47.5192L460.104 47.5028L460.109 47.4864L455.333 46.008ZM449.957 55.608L446.153 52.3633L446.144 52.3731L449.957 55.608ZM412.453 64.952V59.952H407.453V64.952H412.453ZM412.453 99V104H417.453V99H412.453ZM400.037 99H395.037V104H400.037V99ZM400.037 6.456V1.456H395.037V6.456H400.037ZM440.741 46.776L444.718 49.8062L444.752 49.7619L444.785 49.7169L440.741 46.776ZM443.685 29.624L438.885 31.024L438.893 31.0519L438.902 31.0798L443.685 29.624ZM440.613 24.12L436.709 27.2435L436.795 27.3512L436.887 27.454L440.613 24.12ZM435.109 20.024L432.873 24.4961L432.975 24.5469L433.078 24.5931L435.109 20.024ZM412.453 18.36V13.36H407.453V18.36H412.453ZM412.453 53.048H407.453V58.048H412.453V53.048ZM424.741 6.456V11.456C430.928 11.456 435.906 12.5145 439.85 14.4158L442.021 9.912L444.193 5.40816C438.579 2.70154 432.037 1.456 424.741 1.456V6.456ZM442.021 9.912L439.915 14.447C443.843 16.2706 446.727 18.8552 448.742 22.2125L453.029 19.64L457.316 17.0675C454.211 11.8914 449.756 7.99071 444.127 5.37696L442.021 9.912ZM453.029 19.64L448.78 22.2747C450.841 25.6002 451.997 29.8066 451.997 35.128H456.997H461.997C461.997 28.332 460.507 22.2131 457.279 17.0053L453.029 19.64ZM456.997 35.128H451.997C451.997 38.2848 451.521 41.4135 450.557 44.5296L455.333 46.008L460.109 47.4864C461.364 43.4345 461.997 39.3098 461.997 35.128H456.997ZM455.333 46.008L450.567 44.4968C449.667 47.3344 448.212 49.9496 446.153 52.3633L449.957 55.608L453.761 58.8527C456.652 55.4638 458.78 51.679 460.099 47.5192L455.333 46.008ZM449.957 55.608L446.144 52.3731C444.323 54.5196 441.827 56.3566 438.491 57.8066L440.485 62.392L442.479 66.9773C446.994 65.0141 450.812 62.3284 453.77 58.8429L449.957 55.608ZM440.485 62.392L438.491 57.8066C435.36 59.1681 431.301 59.952 426.149 59.952V64.952V69.952C432.261 69.952 437.759 69.0293 442.479 66.9773L440.485 62.392ZM426.149 64.952V59.952H412.453V64.952V69.952H426.149V64.952ZM412.453 64.952H407.453V99H412.453H417.453V64.952H412.453ZM412.453 99V94H400.037V99V104H412.453V99ZM400.037 99H405.037V6.456H400.037H395.037V99H400.037ZM400.037 6.456V11.456H424.741V6.456V1.456H400.037V6.456ZM426.021 53.048V58.048C430.192 58.048 434.052 57.3747 437.345 55.7281L435.109 51.256L432.873 46.7839C431.387 47.5266 429.188 48.048 426.021 48.048V53.048ZM435.109 51.256L437.345 55.7281C440.291 54.255 442.812 52.3083 444.718 49.8062L440.741 46.776L436.764 43.7458C435.94 44.8277 434.705 45.8677 432.873 46.7839L435.109 51.256ZM440.741 46.776L444.785 49.7169C446.459 47.4144 447.713 44.9361 448.485 42.288L443.685 40.888L438.885 39.488C438.463 40.9359 437.754 42.3829 436.697 43.8351L440.741 46.776ZM443.685 40.888L448.485 42.288C449.176 39.9197 449.581 37.6013 449.581 35.384H444.581H439.581C439.581 36.4093 439.389 37.7603 438.885 39.488L443.685 40.888ZM444.581 35.384H449.581C449.581 32.9699 449.196 30.5593 448.468 28.1682L443.685 29.624L438.902 31.0798C439.369 32.614 439.581 34.0434 439.581 35.384H444.581ZM443.685 29.624L448.485 28.224C447.674 25.4447 446.278 22.9524 444.339 20.786L440.613 24.12L436.887 27.454C437.85 28.5303 438.501 29.7073 438.885 31.024L443.685 29.624ZM440.613 24.12L444.517 20.9965C442.58 18.5753 440.062 16.7538 437.14 15.4549L435.109 20.024L433.078 24.5931C434.764 25.3422 435.915 26.2514 436.709 27.2435L440.613 24.12ZM435.109 20.024L437.345 15.5519C434.237 13.9976 430.64 13.36 426.789 13.36V18.36V23.36C429.594 23.36 431.544 23.8317 432.873 24.4961L435.109 20.024ZM426.789 18.36V13.36H412.453V18.36V23.36H426.789V18.36ZM412.453 18.36H407.453V53.048H412.453H417.453V18.36H412.453ZM412.453 53.048V58.048H426.021V53.048V48.048H412.453V53.048ZM584.962 6.456V1.456H579.962V6.456H584.962ZM645.122 6.456H650.122V1.456H645.122V6.456ZM645.122 18.36V23.36H650.122V18.36H645.122ZM597.378 18.36V13.36H592.378V18.36H597.378ZM597.378 46.52H592.378V51.52H597.378V46.52ZM640.002 46.52H645.002V41.52H640.002V46.52ZM640.002 58.424V63.424H645.002V58.424H640.002ZM597.378 58.424V53.424H592.378V58.424H597.378ZM597.378 87.096H592.378V92.096H597.378V87.096ZM646.914 87.096H651.914V82.096H646.914V87.096ZM646.914 99V104H651.914V99H646.914ZM584.962 99H579.962V104H584.962V99ZM584.962 6.456V11.456H645.122V6.456V1.456H584.962V6.456ZM645.122 6.456H640.122V18.36H645.122H650.122V6.456H645.122ZM645.122 18.36V13.36H597.378V18.36V23.36H645.122V18.36ZM597.378 18.36H592.378V46.52H597.378H602.378V18.36H597.378ZM597.378 46.52V51.52H640.002V46.52V41.52H597.378V46.52ZM640.002 46.52H635.002V58.424H640.002H645.002V46.52H640.002ZM640.002 58.424V53.424H597.378V58.424V63.424H640.002V58.424ZM597.378 58.424H592.378V87.096H597.378H602.378V58.424H597.378ZM597.378 87.096V92.096H646.914V87.096V82.096H597.378V87.096ZM646.914 87.096H641.914V99H646.914H651.914V87.096H646.914ZM646.914 99V94H584.962V99V104H646.914V99ZM584.962 99H589.962V6.456H584.962H579.962V99H584.962ZM814.766 8.37601L813.216 13.1296L813.277 13.1496L813.339 13.1679L814.766 8.37601ZM825.134 13.88L821.889 17.6842L821.949 17.7352L822.011 17.7843L825.134 13.88ZM832.046 22.84L827.49 24.9008L827.52 24.9669L827.552 25.0321L832.046 22.84ZM832.942 45.88L828.176 44.3688L828.159 44.422L828.143 44.4755L832.942 45.88ZM827.694 55.48L831.45 58.7806L831.474 58.7528L831.498 58.7247L827.694 55.48ZM817.966 62.392L819.96 66.9773L819.983 66.9673L820.006 66.957L817.966 62.392ZM789.678 64.952V59.952H784.678V64.952H789.678ZM789.678 99V104H794.678V99H789.678ZM777.262 99H772.262V104H777.262V99ZM777.262 6.456V1.456H772.262V6.456H777.262ZM812.206 51.384L810.161 46.8215L810.13 46.835L810.1 46.849L812.206 51.384ZM817.966 47.16L821.87 50.2835L821.907 50.2373L821.943 50.1902L817.966 47.16ZM820.782 29.88L815.982 31.28L816.018 31.4023L816.06 31.5226L820.782 29.88ZM817.71 24.248L813.806 27.3715L813.852 27.4296L813.9 27.4862L817.71 24.248ZM812.206 20.024L809.97 24.4961L810.003 24.5128L810.037 24.529L812.206 20.024ZM789.678 18.36V13.36H784.678V18.36H789.678ZM789.678 53.048H784.678V58.048H789.678V53.048ZM818.35 60.088L822.596 57.4481L821.084 55.015L818.22 55.0897L818.35 60.088ZM842.542 99V104H851.538L846.788 96.3601L842.542 99ZM828.206 99L823.991 101.689L825.465 104H828.206V99ZM803.63 60.472L803.5 55.4737L794.658 55.7043L799.415 63.1609L803.63 60.472ZM801.838 6.456V11.456C806.076 11.456 809.854 12.0335 813.216 13.1296L814.766 8.37601L816.316 3.62236C811.827 2.15854 806.987 1.456 801.838 1.456V6.456ZM814.766 8.37601L813.339 13.1679C816.747 14.1832 819.568 15.7042 821.889 17.6842L825.134 13.88L828.379 10.0758C824.897 7.10644 820.806 4.95819 816.193 3.58408L814.766 8.37601ZM825.134 13.88L822.011 17.7843C824.363 19.6664 826.185 22.0145 827.49 24.9008L832.046 22.84L836.602 20.7792C834.665 16.4975 831.878 12.8722 828.258 9.97566L825.134 13.88ZM832.046 22.84L827.552 25.0321C828.864 27.7218 829.606 31.0402 829.606 35.128H834.606H839.606C839.606 29.8291 838.641 24.9555 836.54 20.6479L832.046 22.84ZM834.606 35.128H829.606C829.606 38.2844 829.13 41.3587 828.176 44.3688L832.942 45.88L837.708 47.3912C838.972 43.4039 839.606 39.3102 839.606 35.128H834.606ZM832.942 45.88L828.143 44.4755C827.326 47.2663 825.929 49.8451 823.89 52.2353L827.694 55.48L831.498 58.7247C834.409 55.3122 836.51 51.491 837.741 47.2845L832.942 45.88ZM827.694 55.48L823.938 52.1794C822.013 54.3705 819.392 56.2783 815.926 57.827L817.966 62.392L820.006 66.957C824.561 64.9217 828.426 62.2215 831.45 58.7806L827.694 55.48ZM817.966 62.392L815.972 57.8066C812.857 59.161 808.721 59.952 803.374 59.952V64.952V69.952C809.633 69.952 815.224 69.0363 819.96 66.9773L817.966 62.392ZM803.374 64.952V59.952H789.678V64.952V69.952H803.374V64.952ZM789.678 64.952H784.678V99H789.678H794.678V64.952H789.678ZM789.678 99V94H777.262V99V104H789.678V99ZM777.262 99H782.262V6.456H777.262H772.262V99H777.262ZM777.262 6.456V11.456H801.838V6.456V1.456H777.262V6.456ZM803.118 53.048V58.048C807.247 58.048 811.057 57.4303 814.312 55.919L812.206 51.384L810.1 46.849C808.577 47.5564 806.328 48.048 803.118 48.048V53.048ZM812.206 51.384L814.251 55.9465C817.28 54.5889 819.903 52.7425 821.87 50.2835L817.966 47.16L814.062 44.0365C813.298 44.9909 812.082 45.9604 810.161 46.8215L812.206 51.384ZM817.966 47.16L821.943 50.1902C823.659 47.9376 824.931 45.4698 825.71 42.8L820.91 41.4L816.11 40C815.694 41.4262 815.003 42.7984 813.989 44.1298L817.966 47.16ZM820.91 41.4L825.71 42.8C826.416 40.381 826.806 37.9858 826.806 35.64H821.806H816.806C816.806 36.8782 816.599 38.323 816.11 40L820.91 41.4ZM821.806 35.64H826.806C826.806 33.147 826.351 30.6721 825.505 28.2374L820.782 29.88L816.06 31.5226C816.578 33.0132 816.806 34.3783 816.806 35.64H821.806ZM820.782 29.88L825.582 28.48C824.778 25.7228 823.403 23.2253 821.52 21.0098L817.71 24.248L813.9 27.4862C814.918 28.684 815.592 29.9412 815.982 31.28L820.782 29.88ZM817.71 24.248L821.614 21.1245C819.708 18.7418 817.24 16.8982 814.375 15.519L812.206 20.024L810.037 24.529C811.78 25.3685 812.981 26.3408 813.806 27.3715L817.71 24.248ZM812.206 20.024L814.442 15.5519C811.349 14.0055 807.803 13.36 804.014 13.36V18.36V23.36C806.71 23.36 808.625 23.8238 809.97 24.4961L812.206 20.024ZM804.014 18.36V13.36H789.678V18.36V23.36H804.014V18.36ZM789.678 18.36H784.678V53.048H789.678H794.678V18.36H789.678ZM789.678 53.048V58.048H803.118V53.048V48.048H789.678V53.048ZM818.35 60.088L814.104 62.7279L838.296 101.64L842.542 99L846.788 96.3601L822.596 57.4481L818.35 60.088ZM842.542 99V94H828.206V99V104H842.542V99ZM828.206 99L832.421 96.3111L807.845 57.7831L803.63 60.472L799.415 63.1609L823.991 101.689L828.206 99ZM803.63 60.472L803.76 65.4703L818.48 65.0863L818.35 60.088L818.22 55.0897L803.5 55.4737L803.63 60.472Z" fill="black"/>
</g>
<path d="M54.5283 227L92.9283 132.152H93.4403L131.84 227H124.8L91.3923 142.136L95.7443 139.704L60.8003 227H54.5283ZM73.0883 191.032H113.408L115.2 196.92H71.5523L73.0883 191.032ZM172.935 136.12C181.724 136.12 188.508 137.955 193.287 141.624C198.151 145.208 200.583 151.053 200.583 159.16C200.583 163.171 199.815 166.84 198.279 170.168C196.743 173.496 194.439 176.227 191.367 178.36C188.38 180.493 184.626 181.859 180.103 182.456L179.463 179.384C184.156 179.725 188.423 180.92 192.263 182.968C196.188 184.931 199.303 187.619 201.607 191.032C203.996 194.36 205.191 198.285 205.191 202.808C205.191 206.904 204.38 210.488 202.759 213.56C201.223 216.547 199.09 219.064 196.359 221.112C193.714 223.075 190.684 224.568 187.271 225.592C183.858 226.531 180.274 227 176.519 227H152.839V136.12H172.935ZM175.879 178.616C182.364 178.616 187.015 176.867 189.831 173.368C192.732 169.869 194.183 165.517 194.183 160.312C194.183 153.827 192.263 149.176 188.423 146.36C184.668 143.544 179.591 142.136 173.191 142.136H159.111V178.616H175.879ZM176.263 221.24C180.359 221.24 184.114 220.6 187.527 219.32C190.94 217.955 193.671 215.907 195.719 213.176C197.767 210.445 198.791 207.075 198.791 203.064C198.791 198.627 197.639 195.085 195.335 192.44C193.031 189.709 190.13 187.747 186.631 186.552C183.132 185.272 179.548 184.632 175.879 184.632H159.111V221.24H176.263ZM219.528 227L257.928 132.152H258.44L296.84 227H289.8L256.392 142.136L260.744 139.704L225.8 227H219.528ZM238.088 191.032H278.408L280.2 196.92H236.552L238.088 191.032ZM338.575 136.12C341.988 136.12 345.359 136.632 348.687 137.656C352.1 138.595 355.172 140.131 357.903 142.264C360.719 144.312 362.98 146.957 364.687 150.2C366.394 153.443 367.247 157.325 367.247 161.848C367.247 165.261 366.735 168.589 365.711 171.832C364.687 174.989 363.023 177.848 360.719 180.408C358.415 182.968 355.428 185.016 351.759 186.552C348.09 188.088 343.567 188.856 338.191 188.856H324.111V227H317.839V136.12H338.575ZM337.807 182.84C342.33 182.84 346.084 182.2 349.071 180.92C352.058 179.64 354.404 177.976 356.111 175.928C357.818 173.88 359.012 171.661 359.695 169.272C360.463 166.797 360.847 164.408 360.847 162.104C360.847 159.373 360.335 156.813 359.311 154.424C358.372 152.035 356.964 149.944 355.087 148.152C353.21 146.275 350.948 144.824 348.303 143.8C345.658 142.691 342.714 142.136 339.471 142.136H324.111V182.84H337.807ZM350.863 185.656L376.079 227H368.783L343.439 185.784L350.863 185.656ZM419.575 136.12C422.988 136.12 426.359 136.632 429.687 137.656C433.1 138.595 436.172 140.131 438.903 142.264C441.719 144.312 443.98 146.957 445.687 150.2C447.394 153.443 448.247 157.325 448.247 161.848C448.247 165.261 447.735 168.589 446.711 171.832C445.687 174.989 444.023 177.848 441.719 180.408C439.415 182.968 436.428 185.016 432.759 186.552C429.09 188.088 424.567 188.856 419.191 188.856H405.111V227H398.839V136.12H419.575ZM418.807 182.84C423.33 182.84 427.084 182.2 430.071 180.92C433.058 179.64 435.404 177.976 437.111 175.928C438.818 173.88 440.012 171.661 440.695 169.272C441.463 166.797 441.847 164.408 441.847 162.104C441.847 159.373 441.335 156.813 440.311 154.424C439.372 152.035 437.964 149.944 436.087 148.152C434.21 146.275 431.948 144.824 429.303 143.8C426.658 142.691 423.714 142.136 420.471 142.136H405.111V182.84H418.807ZM431.863 185.656L457.079 227H449.783L424.439 185.784L431.863 185.656ZM473.204 181.688C473.204 175.288 474.399 169.315 476.788 163.768C479.177 158.136 482.505 153.187 486.772 148.92C491.039 144.568 495.945 141.197 501.492 138.808C507.124 136.333 513.14 135.096 519.54 135.096C525.94 135.096 531.956 136.333 537.588 138.808C543.22 141.197 548.169 144.568 552.436 148.92C556.703 153.187 560.031 158.136 562.42 163.768C564.895 169.315 566.132 175.288 566.132 181.688C566.132 188.088 564.895 194.104 562.42 199.736C560.031 205.283 556.703 210.189 552.436 214.456C548.169 218.723 543.22 222.051 537.588 224.44C531.956 226.829 525.94 228.024 519.54 228.024C513.14 228.024 507.124 226.872 501.492 224.568C495.945 222.264 491.039 219.021 486.772 214.84C482.505 210.659 479.177 205.752 476.788 200.12C474.399 194.488 473.204 188.344 473.204 181.688ZM479.604 181.816C479.604 187.363 480.628 192.568 482.676 197.432C484.724 202.296 487.583 206.563 491.252 210.232C494.921 213.901 499.145 216.803 503.924 218.936C508.788 220.984 513.951 222.008 519.412 222.008C525.044 222.008 530.292 220.984 535.156 218.936C540.02 216.803 544.287 213.901 547.956 210.232C551.625 206.563 554.484 202.296 556.532 197.432C558.665 192.568 559.732 187.32 559.732 181.688C559.732 176.141 558.665 170.936 556.532 166.072C554.484 161.123 551.625 156.813 547.956 153.144C544.287 149.389 540.02 146.445 535.156 144.312C530.292 142.179 525.087 141.112 519.54 141.112C513.908 141.112 508.66 142.221 503.796 144.44C498.932 146.573 494.665 149.517 490.996 153.272C487.412 157.027 484.596 161.379 482.548 166.328C480.585 171.192 479.604 176.355 479.604 181.816ZM577.418 136.12H636.938V142.136H610.186V227H603.914V142.136H577.418V136.12ZM658.589 136.12H714.653V142.136H664.861V178.232H709.661V184.248H664.861V220.984H716.445V227H658.589V136.12ZM785.779 146.36C783.134 145.08 779.891 143.885 776.051 142.776C772.211 141.667 768.371 141.112 764.531 141.112C758.558 141.112 753.779 142.605 750.195 145.592C746.611 148.579 744.819 152.333 744.819 156.856C744.819 160.269 745.843 163.128 747.891 165.432C749.939 167.651 752.627 169.571 755.955 171.192C759.283 172.728 762.824 174.221 766.579 175.672C769.566 176.781 772.51 178.019 775.411 179.384C778.398 180.749 781.086 182.413 783.475 184.376C785.864 186.339 787.742 188.771 789.107 191.672C790.558 194.573 791.283 198.157 791.283 202.424C791.283 207.459 790.088 211.939 787.699 215.864C785.31 219.704 781.982 222.691 777.715 224.824C773.448 226.957 768.499 228.024 762.867 228.024C758.344 228.024 754.206 227.469 750.451 226.36C746.782 225.251 743.539 223.971 740.723 222.52C737.992 220.984 735.816 219.704 734.195 218.68L737.139 213.56C739.016 214.925 741.278 216.291 743.923 217.656C746.654 219.021 749.598 220.173 752.755 221.112C755.912 222.051 759.07 222.52 762.227 222.52C765.896 222.52 769.438 221.795 772.851 220.344C776.35 218.893 779.208 216.717 781.427 213.816C783.731 210.829 784.883 207.075 784.883 202.552C784.883 198.2 783.816 194.701 781.683 192.056C779.55 189.325 776.819 187.107 773.491 185.4C770.163 183.693 766.622 182.157 762.867 180.792C759.966 179.683 757.064 178.531 754.163 177.336C751.262 176.056 748.616 174.563 746.227 172.856C743.838 171.064 741.918 168.931 740.467 166.456C739.102 163.981 738.419 160.995 738.419 157.496C738.419 153.144 739.528 149.347 741.747 146.104C743.966 142.861 746.952 140.344 750.707 138.552C754.547 136.675 758.899 135.693 763.763 135.608C768.03 135.608 772.339 136.163 776.691 137.272C781.128 138.381 784.968 139.789 788.211 141.496L785.779 146.36Z" fill="black"/>
</g>
<defs>
<clipPath id="clip0_111_371">
<rect width="852" height="229" fill="white"/>
</clipPath>
</defs>
</svg>
